# Blender 5.0.0
# www.blender.org
mtllib kamien1.mtl
o Cube
v 0.937688 0.937688 -0.937688
v 0.937688 -0.937688 -0.937688
v 0.937689 0.937689 0.937689
v 0.937689 -0.937689 0.937689
v -0.937689 0.937689 -0.937689
v -0.937689 -0.937689 -0.937689
v -0.937690 0.937690 0.937690
v -0.937690 -0.937690 0.937690
v -0.918660 -0.918660 -0.875000
v -0.921952 -0.921952 -0.625000
v -0.923686 -0.923686 -0.500000
v -0.920393 -0.920393 -0.375000
v -0.922646 -0.922646 -0.250000
v -0.922877 -0.922877 -0.125000
v -0.922819 -0.922819 -0.000000
v -0.920739 -0.920739 0.375000
v -0.921144 -0.921144 0.500000
v -0.919237 -0.919237 0.625000
v -0.918544 -0.918544 0.875000
v 0.875000 -0.918659 -0.918659
v 0.625000 -0.921952 -0.921952
v 0.500000 -0.923685 -0.923685
v 0.375000 -0.920392 -0.920392
v -0.875000 -0.918544 -0.918544
v 0.939919 0.875000 -0.939919
v 0.938475 0.125000 -0.938475
v 0.938302 -0.000000 -0.938302
v 0.942288 -0.125000 -0.942288
v 0.932467 -0.875000 -0.932467
v -0.932467 -0.875000 0.932467
v -0.935991 -0.750000 0.935991
v -0.941768 -0.625000 0.941768
v -0.944021 -0.500000 0.944021
v -0.941363 -0.375000 0.941363
v -0.938302 -0.000000 0.938302
v -0.938475 0.125000 0.938475
v -0.941132 0.250000 0.941132
v -0.938590 0.375000 0.938590
v -0.938822 0.500000 0.938822
v -0.937550 0.625000 0.937550
v -0.939919 0.875000 0.939919
v 0.939919 0.875000 0.939919
v 0.937551 0.625000 0.937551
v 0.938822 0.500000 0.938822
v 0.938590 0.375000 0.938590
v 0.941132 0.250000 0.941132
v 0.938475 0.125000 0.938475
v 0.938302 0.000000 0.938302
v 0.942288 -0.125000 0.942288
v 0.941364 -0.375000 0.941364
v 0.944022 -0.500000 0.944022
v 0.941768 -0.625000 0.941768
v 0.935991 -0.750000 0.935991
v 0.932467 -0.875000 0.932467
v -0.939919 0.875000 -0.939919
v -0.937550 0.625000 -0.937550
v -0.938822 0.500000 -0.938822
v -0.938590 0.375000 -0.938590
v -0.941133 0.250000 -0.941133
v -0.938475 0.125000 -0.938475
v -0.938302 0.000000 -0.938302
v -0.942288 -0.125000 -0.942288
v -0.941364 -0.375000 -0.941364
v -0.944022 -0.500000 -0.944022
v -0.941768 -0.625000 -0.941768
v -0.935991 -0.750000 -0.935991
v -0.932467 -0.875000 -0.932467
v 0.875000 0.918660 0.918660
v 0.625000 0.921953 0.921953
v 0.500000 0.923686 0.923686
v 0.375000 0.920393 0.920393
v -0.875000 0.918544 0.918544
v 0.939919 0.939919 -0.875000
v 0.938475 0.938475 -0.125000
v 0.938302 0.938302 0.000000
v 0.942288 0.942288 0.125000
v 0.932467 0.932467 0.875000
v -0.875000 -0.918544 0.918544
v 0.375000 -0.920393 0.920393
v 0.500000 -0.923686 0.923686
v 0.625000 -0.921952 0.921953
v 0.875000 -0.918660 0.918660
v -0.932467 0.932467 0.875000
v -0.935991 0.935991 0.750000
v -0.941768 0.941768 0.625000
v -0.944021 0.944021 0.500000
v -0.941363 0.941363 0.375000
v -0.942288 0.942288 0.125000
v -0.938302 0.938302 -0.000000
v -0.938475 0.938475 -0.125000
v -0.941132 0.941132 -0.250000
v -0.938590 0.938590 -0.375000
v -0.938822 0.938822 -0.500000
v -0.937550 0.937550 -0.625000
v -0.939919 0.939919 -0.875000
v -0.875000 0.918544 -0.918544
v 0.875000 0.918659 -0.918659
v 0.932467 -0.932467 0.875000
v 0.942288 -0.942288 0.125000
v 0.938302 -0.938302 0.000000
v 0.938475 -0.938475 -0.125000
v 0.941133 -0.941133 -0.250000
v 0.938590 -0.938590 -0.375000
v 0.938822 -0.938822 -0.500000
v 0.937550 -0.937550 -0.625000
v 0.939919 -0.939919 -0.875000
v 0.875000 0.973774 -0.875000
v 0.250000 0.978186 -0.875000
v 0.125000 0.979984 -0.875000
v -0.000000 0.935213 -0.875000
v -0.125000 0.975899 -0.875000
v -0.875000 0.970507 -0.875000
v 0.250000 0.981128 -0.750000
v -0.000000 0.921651 -0.750000
v 0.250000 0.993137 -0.625000
v 0.125000 0.983252 -0.625000
v 0.000000 0.927369 -0.625000
v -0.125000 0.983088 -0.625000
v -0.875000 0.973448 -0.625000
v 0.125000 0.987173 -0.500000
v -0.000000 0.972141 -0.500000
v -0.125000 0.907271 -0.500000
v -0.625000 0.901634 -0.500000
v -0.750000 0.905310 -0.500000
v -0.875000 0.910866 -0.500000
v 0.125000 0.991177 -0.375000
v 0.000000 0.930557 -0.375000
v -0.125000 0.988235 -0.375000
v -0.625000 0.981863 -0.375000
v -0.875000 0.975817 -0.375000
v -0.625000 0.985866 -0.250000
v -0.750000 0.996323 -0.250000
v -0.875000 0.977042 -0.250000
v 0.875000 0.976389 -0.125000
v 0.125000 0.987745 -0.125000
v 0.000000 0.931291 -0.125000
v -0.750000 1.002287 -0.125000
v -0.875000 0.913317 -0.125000
v 0.875000 0.933660 -0.000000
v 0.000000 0.914788 0.000000
v -0.750000 0.983987 0.000000
v -0.875000 0.975817 0.000000
v 0.875000 0.975327 0.125000
v 0.625000 0.981781 0.125000
v 0.500000 0.977941 0.125000
v 0.375000 0.985866 0.125000
v 0.250000 0.995425 0.125000
v 0.125000 0.992320 0.125000
v -0.000000 0.922631 0.125000
v 0.500000 0.913481 0.375000
v 0.375000 0.982517 0.375000
v 0.125000 0.983824 0.375000
v -0.000000 0.942567 0.375000
v -0.125000 0.983660 0.375000
v -0.875000 0.976144 0.375000
v 0.500000 0.962418 0.500000
v 0.375000 0.903268 0.500000
v -0.875000 0.899101 0.500000
v 0.500000 0.951390 0.625000
v 0.375000 0.982190 0.625000
v -0.375000 0.986356 0.625000
v -0.500000 0.959641 0.625000
v -0.750000 0.982271 0.625000
v -0.875000 0.945261 0.625000
v -0.750000 0.979167 0.750000
v -0.875000 0.978105 0.750000
v 0.875000 0.970343 0.875000
v 0.625000 0.974592 0.875000
v 0.500000 0.906209 0.875000
v 0.375000 0.972794 0.875000
v -0.375000 0.975899 0.875000
v -0.500000 0.956373 0.875000
v -0.875000 0.969853 0.875000
v 0.875000 -0.875000 0.970343
v 0.875000 -0.125000 0.975327
v 0.875000 0.000000 0.933659
v 0.875000 0.125000 0.976389
v 0.875000 0.875000 0.973774
v 0.625000 -0.875000 0.974591
v 0.625000 -0.125000 0.981781
v 0.500000 -0.875000 0.906209
v 0.500000 -0.625000 0.951389
v 0.500000 -0.500000 0.962418
v 0.500000 -0.375000 0.913481
v 0.500000 -0.125000 0.977942
v 0.375000 -0.875000 0.972794
v 0.375000 -0.625000 0.982190
v 0.375000 -0.500000 0.903268
v 0.375000 -0.375000 0.982517
v 0.375000 -0.125000 0.985866
v 0.250000 -0.125000 0.995425
v 0.250000 0.625000 0.993137
v 0.250000 0.750000 0.981128
v 0.250000 0.875000 0.978186
v 0.125000 -0.375000 0.983824
v 0.125000 -0.125000 0.992320
v 0.125000 0.125000 0.987745
v 0.125000 0.375000 0.991177
v 0.125000 0.500000 0.987173
v 0.125000 0.625000 0.983252
v 0.125000 0.875000 0.979984
v -0.000000 -0.375000 0.942566
v 0.000000 -0.125000 0.922631
v -0.000000 -0.000000 0.914788
v -0.000000 0.125000 0.931291
v 0.000000 0.375000 0.930556
v 0.000000 0.500000 0.972141
v 0.000000 0.625000 0.927369
v -0.000000 0.750000 0.921651
v -0.000000 0.875000 0.935212
v -0.125000 -0.375000 0.983660
v -0.125000 0.375000 0.988235
v -0.125000 0.500000 0.907271
v -0.125000 0.625000 0.983088
v -0.125000 0.875000 0.975899
v -0.375000 -0.875000 0.975899
v -0.375000 -0.625000 0.986356
v -0.500000 -0.875000 0.956373
v -0.500000 -0.625000 0.959641
v -0.625000 0.250000 0.985866
v -0.625000 0.375000 0.981863
v -0.625000 0.500000 0.901634
v -0.750000 -0.750000 0.979167
v -0.750000 -0.625000 0.982271
v -0.750000 -0.000000 0.983987
v -0.750000 0.125000 1.002287
v -0.750000 0.250000 0.996323
v -0.750000 0.500000 0.905310
v -0.875000 -0.875000 0.969853
v -0.875000 -0.750000 0.978105
v -0.875000 -0.625000 0.945262
v -0.875000 -0.500000 0.899101
v -0.875000 -0.375000 0.976144
v -0.875000 -0.000000 0.975817
v -0.875000 0.125000 0.913317
v -0.875000 0.250000 0.977043
v -0.875000 0.375000 0.975817
v -0.875000 0.500000 0.910866
v -0.875000 0.625000 0.973448
v -0.875000 0.875000 0.970507
v -0.969853 -0.875000 0.875000
v -0.978105 -0.750000 0.875000
v -0.945261 -0.625000 0.875000
v -0.899101 -0.500000 0.875000
v -0.976144 -0.375000 0.875000
v -0.975817 0.000000 0.875000
v -0.913317 0.125000 0.875000
v -0.977042 0.250000 0.875000
v -0.975817 0.375000 0.875000
v -0.910866 0.500000 0.875000
v -0.973448 0.625000 0.875000
v -0.970507 0.875000 0.875000
v -0.979167 -0.750000 0.750000
v -0.982271 -0.625000 0.750000
v -0.983987 0.000000 0.750000
v -1.002288 0.125000 0.750000
v -0.996324 0.250000 0.750000
v -0.905310 0.500000 0.750000
v -0.985866 0.250000 0.625000
v -0.981863 0.375000 0.625000
v -0.901634 0.500000 0.625000
v -0.956373 -0.875000 0.500000
v -0.959641 -0.625000 0.500000
v -0.975899 -0.875000 0.375000
v -0.986356 -0.625000 0.375000
v -0.983660 -0.375000 0.125000
v -0.988235 0.375000 0.125000
v -0.907271 0.500000 0.125000
v -0.983088 0.625000 0.125000
v -0.975899 0.875000 0.125000
v -0.942566 -0.375000 -0.000000
v -0.922631 -0.125000 0.000000
v -0.914788 0.000000 -0.000000
v -0.931292 0.125000 -0.000000
v -0.930556 0.375000 0.000000
v -0.972141 0.500000 -0.000000
v -0.927370 0.625000 0.000000
v -0.921651 0.750000 -0.000000
v -0.935212 0.875000 -0.000000
v -0.983824 -0.375000 -0.125000
v -0.992320 -0.125000 -0.125000
v -0.987745 0.125000 -0.125000
v -0.991177 0.375000 -0.125000
v -0.987173 0.500000 -0.125000
v -0.983252 0.625000 -0.125000
v -0.979984 0.875000 -0.125000
v -0.995425 -0.125000 -0.250000
v -0.993137 0.625000 -0.250000
v -0.981127 0.750000 -0.250000
v -0.978186 0.875000 -0.250000
v -0.972794 -0.875000 -0.375000
v -0.982190 -0.625000 -0.375000
v -0.903268 -0.500000 -0.375000
v -0.982516 -0.375000 -0.375000
v -0.985866 -0.125000 -0.375000
v -0.906209 -0.875000 -0.500000
v -0.951390 -0.625000 -0.500000
v -0.962418 -0.500000 -0.500000
v -0.913481 -0.375000 -0.500000
v -0.977941 -0.125000 -0.500000
v -0.974591 -0.875000 -0.625000
v -0.981781 -0.125000 -0.625000
v -0.970343 -0.875000 -0.875000
v -0.975327 -0.125000 -0.875000
v -0.933659 -0.000000 -0.875000
v -0.976389 0.125000 -0.875000
v -0.973774 0.875000 -0.875000
v -0.875000 -0.970507 -0.875000
v -0.125000 -0.975899 -0.875000
v 0.000000 -0.935213 -0.875000
v 0.125000 -0.979984 -0.875000
v 0.250000 -0.978186 -0.875000
v 0.875000 -0.973774 -0.875000
v 0.000000 -0.921651 -0.750000
v 0.250000 -0.981128 -0.750000
v -0.875000 -0.973448 -0.625000
v -0.125000 -0.983088 -0.625000
v 0.000000 -0.927369 -0.625000
v 0.125000 -0.983252 -0.625000
v 0.250000 -0.993137 -0.625000
v -0.875000 -0.910866 -0.500000
v -0.750000 -0.905310 -0.500000
v -0.625000 -0.901634 -0.500000
v -0.125000 -0.907271 -0.500000
v 0.000000 -0.972141 -0.500000
v 0.125000 -0.987173 -0.500000
v -0.875000 -0.975817 -0.375000
v -0.625000 -0.981863 -0.375000
v -0.125000 -0.988235 -0.375000
v -0.000000 -0.930556 -0.375000
v 0.125000 -0.991177 -0.375000
v -0.875000 -0.977043 -0.250000
v -0.750000 -0.996323 -0.250000
v -0.625000 -0.985866 -0.250000
v -0.750000 -1.002288 -0.125000
v -0.000000 -0.931292 -0.125000
v 0.125000 -0.987745 -0.125000
v 0.875000 -0.976389 -0.125000
v -0.875000 -0.975817 0.000000
v -0.750000 -0.983987 -0.000000
v -0.000000 -0.914788 0.000000
v 0.875000 -0.933660 0.000000
v 0.000000 -0.922631 0.125000
v 0.125000 -0.992320 0.125000
v 0.250000 -0.995425 0.125000
v 0.375000 -0.985866 0.125000
v 0.500000 -0.977942 0.125000
v 0.625000 -0.981781 0.125000
v 0.875000 -0.975327 0.125000
v -0.875000 -0.976144 0.375000
v -0.125000 -0.983660 0.375000
v 0.000000 -0.942567 0.375000
v 0.125000 -0.983824 0.375000
v 0.375000 -0.982517 0.375000
v 0.500000 -0.913480 0.375000
v -0.875000 -0.899101 0.500000
v 0.375000 -0.903268 0.500000
v 0.500000 -0.962418 0.500000
v -0.875000 -0.945261 0.625000
v -0.750000 -0.982271 0.625000
v -0.500000 -0.959641 0.625000
v -0.375000 -0.986356 0.625000
v 0.375000 -0.982190 0.625000
v 0.500000 -0.951390 0.625000
v -0.875000 -0.978105 0.750000
v -0.750000 -0.979167 0.750000
v -0.875000 -0.969853 0.875000
v -0.500000 -0.956373 0.875000
v -0.375000 -0.975899 0.875000
v 0.375000 -0.972794 0.875000
v 0.500000 -0.906209 0.875000
v 0.625000 -0.974591 0.875000
v 0.875000 -0.970343 0.875000
v 0.970343 -0.875000 -0.875000
v 0.975327 -0.125000 -0.875000
v 0.933659 0.000000 -0.875000
v 0.976389 0.125000 -0.875000
v 0.973774 0.875000 -0.875000
v 0.974591 -0.875000 -0.625000
v 0.981781 -0.125000 -0.625000
v 0.906209 -0.875000 -0.500000
v 0.951389 -0.625000 -0.500000
v 0.962418 -0.500000 -0.500000
v 0.913481 -0.375000 -0.500000
v 0.977942 -0.125000 -0.500000
v 0.972794 -0.875000 -0.375000
v 0.982190 -0.625000 -0.375000
v 0.903268 -0.500000 -0.375000
v 0.982517 -0.375000 -0.375000
v 0.985866 -0.125000 -0.375000
v 0.995425 -0.125000 -0.250000
v 0.993137 0.625000 -0.250000
v 0.981128 0.750000 -0.250000
v 0.978186 0.875000 -0.250000
v 0.983824 -0.375000 -0.125000
v 0.992320 -0.125000 -0.125000
v 0.987745 0.125000 -0.125000
v 0.991177 0.375000 -0.125000
v 0.987173 0.500000 -0.125000
v 0.983252 0.625000 -0.125000
v 0.979984 0.875000 -0.125000
v 0.942566 -0.375000 0.000000
v 0.922631 -0.125000 0.000000
v 0.914788 0.000000 0.000000
v 0.931291 0.125000 0.000000
v 0.930556 0.375000 -0.000000
v 0.972141 0.500000 0.000000
v 0.927369 0.625000 -0.000000
v 0.921651 0.750000 0.000000
v 0.935212 0.875000 0.000000
v 0.983660 -0.375000 0.125000
v 0.988235 0.375000 0.125000
v 0.907271 0.500000 0.125000
v 0.983088 0.625000 0.125000
v 0.975899 0.875000 0.125000
v 0.975899 -0.875000 0.375000
v 0.986356 -0.625000 0.375000
v 0.956373 -0.875000 0.500000
v 0.959641 -0.625000 0.500000
v 0.985866 0.250000 0.625000
v 0.981863 0.375000 0.625000
v 0.901634 0.500000 0.625000
v 0.979167 -0.750000 0.750000
v 0.982271 -0.625000 0.750000
v 0.983987 -0.000000 0.750000
v 1.002287 0.125000 0.750000
v 0.996323 0.250000 0.750000
v 0.905310 0.500000 0.750000
v 0.969853 -0.875000 0.875000
v 0.978105 -0.750000 0.875000
v 0.945262 -0.625000 0.875000
v 0.899101 -0.500000 0.875000
v 0.976144 -0.375000 0.875000
v 0.975817 -0.000000 0.875000
v 0.913317 0.125000 0.875000
v 0.977043 0.250000 0.875000
v 0.975817 0.375000 0.875000
v 0.910866 0.500000 0.875000
v 0.973448 0.625000 0.875000
v 0.970507 0.875000 0.875000
v -0.875000 -0.875000 -0.969853
v -0.875000 -0.750000 -0.978105
v -0.875000 -0.625000 -0.945261
v -0.875000 -0.500000 -0.899101
v -0.875000 -0.375000 -0.976144
v -0.875000 0.000000 -0.975817
v -0.875000 0.125000 -0.913317
v -0.875000 0.250000 -0.977042
v -0.875000 0.375000 -0.975817
v -0.875000 0.500000 -0.910866
v -0.875000 0.625000 -0.973448
v -0.875000 0.875000 -0.970507
v -0.750000 -0.750000 -0.979167
v -0.750000 -0.625000 -0.982271
v -0.750000 0.000000 -0.983987
v -0.750000 0.125000 -1.002288
v -0.750000 0.250000 -0.996324
v -0.750000 0.500000 -0.905310
v -0.625000 0.250000 -0.985866
v -0.625000 0.375000 -0.981863
v -0.625000 0.500000 -0.901634
v -0.500000 -0.875000 -0.956373
v -0.500000 -0.625000 -0.959641
v -0.375000 -0.875000 -0.975899
v -0.375000 -0.625000 -0.986356
v -0.125000 -0.375000 -0.983660
v -0.125000 0.375000 -0.988235
v -0.125000 0.500000 -0.907271
v -0.125000 0.625000 -0.983088
v -0.125000 0.875000 -0.975899
v 0.000000 -0.375000 -0.942566
v -0.000000 -0.125000 -0.922631
v 0.000000 -0.000000 -0.914788
v 0.000000 0.125000 -0.931292
v -0.000000 0.375000 -0.930556
v -0.000000 0.500000 -0.972141
v -0.000000 0.625000 -0.927370
v 0.000000 0.750000 -0.921651
v 0.000000 0.875000 -0.935212
v 0.125000 -0.375000 -0.983824
v 0.125000 -0.125000 -0.992320
v 0.125000 0.125000 -0.987745
v 0.125000 0.375000 -0.991177
v 0.125000 0.500000 -0.987173
v 0.125000 0.625000 -0.983252
v 0.125000 0.875000 -0.979984
v 0.250000 -0.125000 -0.995425
v 0.250000 0.625000 -0.993137
v 0.250000 0.750000 -0.981127
v 0.250000 0.875000 -0.978186
v 0.375000 -0.875000 -0.972794
v 0.375000 -0.625000 -0.982190
v 0.375000 -0.500000 -0.903268
v 0.375000 -0.375000 -0.982516
v 0.375000 -0.125000 -0.985866
v 0.500000 -0.875000 -0.906209
v 0.500000 -0.625000 -0.951390
v 0.500000 -0.500000 -0.962418
v 0.500000 -0.375000 -0.913481
v 0.500000 -0.125000 -0.977941
v 0.625000 -0.875000 -0.974591
v 0.625000 -0.125000 -0.981781
v 0.875000 -0.875000 -0.970343
v 0.875000 -0.125000 -0.975327
v 0.875000 -0.000000 -0.933659
v 0.875000 0.125000 -0.976389
v 0.875000 0.875000 -0.973774
vn -0.1990 -0.9711 0.1317
vn 0.3905 -0.9206 0.0012
vn -0.2495 0.9541 -0.1656
vn -0.0363 0.9917 0.1232
vn 0.8624 -0.5062 0.0035
vn -0.3813 -0.0496 -0.9231
vn -0.0284 0.9874 -0.1555
vn -0.0101 0.5419 0.8404
vn -0.9399 0.3294 0.0901
vn 0.0690 0.2992 0.9517
vn 0.0164 0.9998 -0.0057
vn -0.0029 -0.0079 1.0000
vn -0.3887 0.8977 0.2074
vn 0.9158 -0.4002 0.0335
vn -0.3574 0.9197 -0.1626
vn -0.0373 0.4080 -0.9122
vn -0.9478 -0.1285 -0.2918
vn -0.4055 -0.9138 -0.0209
vn 0.9992 -0.0363 -0.0155
vn -0.9076 0.0045 -0.4198
vn -0.9969 -0.0498 -0.0617
vn 0.0392 0.9920 0.1203
vn -0.9158 -0.4002 0.0335
vn 0.0214 -0.0081 0.9997
vn -0.1088 0.9593 -0.2605
vn 0.4941 -0.8693 0.0118
vn -0.0140 -0.8506 -0.5256
vn 0.3611 -0.1012 -0.9270
vn -0.9992 -0.0397 -0.0048
vn 0.9830 -0.0270 0.1818
vn -0.9705 0.1092 0.2150
vn 0.0314 0.8795 -0.4749
vn -0.0006 0.7071 -0.7071
vn -0.0117 0.8906 -0.4546
vn 0.8866 -0.0012 0.4624
vn -0.0609 0.9695 0.2374
vn -0.0703 0.9657 -0.2499
vn -0.4910 0.8710 -0.0181
vn -0.0799 0.9632 0.2566
vn -0.0942 0.9660 -0.2408
vn -0.4632 0.8862 -0.0059
vn -0.0001 -0.5096 -0.8604
vn 0.2876 0.9429 -0.1682
vn -0.5566 0.8294 0.0469
vn -0.0763 0.9161 0.3937
vn -0.0018 -0.7071 0.7071
vn 0.2267 0.9131 0.3390
vn -0.2406 0.9110 0.3349
vn 0.0808 0.9148 0.3957
vn 0.4444 -0.0116 0.8957
vn 0.2091 0.9614 -0.1789
vn 0.2504 0.9542 0.1639
vn 0.4879 0.8729 -0.0002
vn -0.9997 -0.0081 -0.0214
vn -0.9565 -0.0503 0.2873
vn -0.8404 0.5419 0.0101
vn 0.3611 0.9270 0.1012
vn -0.1088 0.2605 0.9593
vn 0.0392 -0.1203 0.9920
vn -0.0373 -0.9122 -0.4080
vn 0.0164 0.0057 0.9998
vn -0.2495 0.1656 0.9541
vn -0.1990 0.9711 0.1317
vn 0.9138 0.0209 0.4055
vn -0.3813 -0.9231 0.0496
vn 0.9992 -0.0397 -0.0048
vn 0.9076 0.0045 -0.4198
vn 0.0155 -0.9992 0.0363
vn -0.0284 0.1555 0.9874
vn -0.0363 -0.1232 0.9917
vn 0.3905 0.9206 0.0012
vn -0.8866 -0.0012 0.4625
vn -0.0101 -0.8404 -0.5419
vn -0.1818 -0.9830 0.0270
vn 1.0000 -0.0079 0.0029
vn -0.0901 -0.9399 -0.3294
vn 0.0617 -0.0498 -0.9969
vn 0.0617 -0.9969 0.0498
vn -0.8506 0.5256 0.0140
vn -0.3574 0.1626 0.9197
vn -0.3887 -0.2074 0.8977
vn -0.9517 0.2992 -0.0690
vn -0.8624 -0.5062 0.0035
vn -0.0100 0.9997 -0.0203
vn 0.0808 -0.3957 0.9148
vn 0.2090 0.1789 0.9614
vn 0.2504 -0.1639 0.9542
vn 0.4910 0.0002 0.8711
vn 0.0314 0.4749 0.8795
vn 0.8646 0.5024 -0.0023
vn -0.0117 0.4546 0.8906
vn -0.4625 -0.0012 -0.8866
vn -0.0609 -0.2374 0.9695
vn -0.0703 0.2499 0.9657
vn -0.4910 0.0181 0.8710
vn -0.0799 -0.2566 0.9632
vn -0.0942 0.2408 0.9660
vn -0.4870 0.0059 0.8734
vn 0.9997 -0.0081 -0.0214
vn -0.8604 -0.5096 0.0001
vn 0.2876 0.1682 0.9429
vn -0.5567 -0.0469 0.8294
vn -0.0763 -0.3937 0.9161
vn 0.0155 -0.0363 -0.9992
vn 0.2267 -0.3390 0.9131
vn -0.2406 -0.3349 0.9110
vn 0.0617 -0.0498 0.9969
vn -0.2150 0.1092 0.9705
vn -0.0140 0.5256 -0.8506
vn -0.9197 0.1626 0.3574
vn -0.8977 -0.2074 0.3887
vn 0.0690 0.2992 -0.9517
vn -0.0035 -0.5062 -0.8624
vn -0.9997 0.0203 0.0100
vn -0.0029 -0.0079 -1.0000
vn 0.9399 0.3294 0.0901
vn -0.0101 0.8404 -0.5419
vn -0.1818 -0.0270 -0.9830
vn 0.0048 -0.9992 0.0397
vn 0.0048 -0.0397 0.9992
vn 0.4198 0.0045 -0.9076
vn -0.9874 0.1555 0.0284
vn -0.9917 -0.1232 0.0363
vn 0.3905 -0.0012 0.9206
vn -0.4055 0.0209 0.9138
vn 0.9122 0.4080 0.0373
vn -0.0335 -0.4002 -0.9158
vn 0.9231 -0.0496 0.3813
vn -0.9541 0.1656 0.2495
vn -0.1990 -0.1317 -0.9711
vn 0.9363 -0.0838 -0.3411
vn -0.9998 0.0057 -0.0164
vn 0.3611 -0.9270 0.1012
vn -0.9593 0.2605 0.1088
vn -0.9920 -0.1203 -0.0392
vn 0.2918 -0.1285 -0.9478
vn -0.2873 -0.9565 0.0503
vn -0.9161 -0.3937 0.0763
vn -0.8294 -0.0469 0.5566
vn -0.9429 0.1682 -0.2876
vn -0.0001 0.8604 0.5096
vn -0.8734 0.0059 0.4870
vn -0.9660 0.2408 0.0942
vn -0.9632 -0.2566 0.0799
vn -0.8710 0.0181 0.4910
vn -0.9657 0.2499 0.0703
vn -0.9695 -0.2374 0.0609
vn -0.4625 0.8866 0.0012
vn -0.3813 0.9231 0.0496
vn -0.7126 -0.7016 -0.0030
vn -0.9587 0.2241 -0.1749
vn -0.9431 0.2858 0.1698
vn -0.9262 0.2666 -0.2666
vn -0.8711 0.0002 -0.4910
vn -0.9542 -0.1639 -0.2504
vn -0.9614 0.1789 -0.2091
vn 0.4941 0.8693 0.0118
vn -0.9148 -0.3957 -0.0808
vn -0.9110 -0.3349 0.2406
vn -0.9131 -0.3390 -0.2267
vn 0.0690 -0.9517 -0.2992
vn -0.2495 -0.9541 -0.1656
vn -0.0363 -0.9917 0.1232
vn 0.9517 0.2992 -0.0690
vn 0.8404 0.5419 0.0101
vn -0.0284 -0.9874 -0.1555
vn 0.0001 -0.7000 -0.7142
vn 0.0214 -0.0081 -0.9997
vn -0.3759 -0.9244 -0.0654
vn 0.0164 -0.9998 -0.0057
vn 0.3905 -0.0012 -0.9206
vn -0.0335 0.9158 0.4002
vn -0.0373 0.9122 -0.4080
vn -0.4030 -0.9096 0.1009
vn -0.9138 0.0209 0.4055
vn 0.9478 -0.1285 -0.2918
vn -0.0001 -0.5096 0.8604
vn -0.4055 0.9138 -0.0209
vn 0.9997 0.0203 0.0100
vn 0.4198 0.0045 0.9076
vn 0.0155 -0.0363 0.9992
vn -0.0036 -0.8544 0.5196
vn 0.0392 -0.9920 0.1203
vn -0.0140 0.5256 0.8506
vn -0.1088 -0.9593 -0.2605
vn -0.2873 0.9565 0.0503
vn 0.0214 0.9997 0.0081
vn -0.1495 -0.9818 -0.1168
vn 0.0048 -0.0397 -0.9992
vn 0.0149 -0.7070 0.7070
vn 0.9572 -0.0491 0.2851
vn -0.2439 -0.9378 -0.2470
vn 0.0001 0.7142 0.7000
vn 0.0314 -0.8795 -0.4749
vn 0.4910 -0.8711 -0.0002
vn 0.2504 -0.9542 0.1639
vn 0.2091 -0.9614 -0.1789
vn 0.4941 -0.0118 -0.8693
vn 0.0808 -0.9148 0.3957
vn -0.2406 -0.9110 0.3349
vn 0.2267 -0.9131 0.3390
vn -0.2411 -0.9400 0.2412
vn -0.0100 0.0203 -0.9997
vn -0.0433 -0.9838 -0.1738
vn -0.3280 -0.9033 0.2764
vn -0.4030 -0.8898 -0.2141
vn -0.3659 -0.9048 0.2177
vn 0.0214 -0.9997 0.0081
vn 0.8506 0.5256 0.0140
vn 0.3611 -0.1012 0.9270
vn 0.9593 0.2605 0.1088
vn 0.9920 -0.1203 -0.0392
vn 0.2918 -0.1285 0.9478
vn 0.0155 0.9992 0.0363
vn 0.9998 0.0057 -0.0164
vn 0.9541 0.1656 0.2495
vn -0.1990 -0.1317 0.9711
vn -0.4055 0.0209 -0.9138
vn -0.0373 0.4080 0.9122
vn -0.0335 -0.4002 0.9158
vn -0.3813 -0.0496 0.9231
vn 0.0048 0.9992 0.0397
vn -0.9830 -0.0270 0.1818
vn 0.9874 0.1555 0.0284
vn 0.9917 -0.1232 0.0363
vn -0.9206 -0.0012 -0.3905
vn -0.1818 -0.0270 0.9830
vn -0.0101 0.5419 -0.8404
vn -1.0000 -0.0079 0.0029
vn -0.0901 0.3294 -0.9399
vn 0.9969 -0.0498 -0.0617
vn -0.2150 0.9705 -0.1092
vn -0.0140 0.8506 -0.5256
vn 0.9197 0.1626 0.3574
vn 0.8977 -0.2074 0.3887
vn 0.0690 0.9517 -0.2992
vn -0.0035 -0.5062 0.8624
vn -0.0100 -0.9997 -0.0203
vn -0.2873 -0.0503 -0.9565
vn 0.9614 0.1789 -0.2090
vn 0.9542 -0.1639 -0.2504
vn 0.8729 0.0002 -0.4879
vn 0.9262 0.2666 -0.2666
vn -0.8629 0.5055 -0.0023
vn 0.9431 0.2858 0.1698
vn 0.9587 0.2241 -0.1749
vn -0.8978 0.4399 0.0231
vn -0.4625 -0.0012 0.8866
vn 0.9695 -0.2374 0.0609
vn 0.9657 0.2499 0.0703
vn 0.8710 0.0181 0.4910
vn 0.9632 -0.2566 0.0799
vn 0.9660 0.2408 0.0942
vn 0.8862 0.0059 0.4632
vn 0.2918 0.9478 0.1285
vn 0.9429 0.1682 -0.2876
vn 0.8294 -0.0469 0.5566
vn 0.9400 -0.2412 0.2412
vn -0.0029 1.0000 0.0079
vn 0.0617 0.9969 0.0498
vn 0.9705 0.1092 0.2150
vn -0.3574 0.1626 -0.9197
vn -0.3887 -0.2074 -0.8977
vn -0.0035 -0.8624 0.5062
vn -0.0100 0.0203 0.9997
vn -0.0035 0.8624 0.5062
vn -0.0029 -1.0000 0.0079
vn -0.0901 0.3294 0.9399
vn -0.1818 0.9830 0.0270
vn -0.7053 -0.7088 -0.0141
vn -0.2150 0.1092 -0.9705
vn 0.4198 -0.9076 -0.0045
vn -0.0284 0.1555 -0.9874
vn -0.0363 -0.1232 -0.9917
vn 0.9206 -0.0012 -0.3905
vn 0.4198 0.9076 -0.0045
vn -0.9122 0.4080 0.0373
vn -0.0335 -0.9158 0.4002
vn -0.9231 -0.0496 0.3813
vn -0.2495 0.1656 -0.9541
vn 0.9711 -0.1317 0.1990
vn -0.9992 -0.0363 -0.0155
vn 0.0164 0.0057 -0.9998
vn -0.9270 -0.1012 -0.3611
vn -0.1088 0.2605 -0.9593
vn 0.0392 -0.1203 -0.9920
vn 0.2918 -0.9478 0.1285
vn -0.2873 -0.0503 0.9565
vn -0.0901 0.9399 -0.3294
vn -0.0763 -0.3937 -0.9161
vn -0.5566 -0.0469 -0.8294
vn 0.2876 0.1682 -0.9429
vn 0.8604 -0.5096 0.0001
vn -0.4632 0.0059 -0.8862
vn -0.0942 0.2408 -0.9660
vn -0.0799 -0.2566 -0.9632
vn -0.4910 0.0181 -0.8710
vn -0.0703 0.2499 -0.9657
vn -0.0609 -0.2374 -0.9695
vn -0.0117 0.4546 -0.8906
vn 0.8756 -0.0232 -0.4824
vn 0.8736 0.4861 0.0235
vn 0.0314 0.4749 -0.8795
vn 0.4879 0.0002 -0.8729
vn 0.2504 -0.1639 -0.9542
vn 0.2091 0.1789 -0.9614
vn 0.8838 -0.4678 -0.0011
vn -0.8957 -0.0116 -0.4444
vn 0.0808 -0.3957 -0.9148
vn -0.9711 -0.1317 0.1990
vn -0.2405 -0.3350 -0.9110
vn 0.2267 -0.3390 -0.9131
vn 0.8929 -0.4502 0.0043
vt 0.562500 0.937500
vt 0.625000 0.937500
vt 0.625000 0.875000
vt 0.500000 0.875000
vt 0.500000 0.937500
vt 0.500000 0.812500
vt 0.437500 0.812500
vt 0.437500 0.937500
vt 0.500000 0.750000
vt 0.562500 0.750000
vt 0.562500 0.812500
vt 0.625000 0.812500
vt 0.437500 0.750000
vt 0.062500 0.812500
vt 0.062500 0.750000
vt 0.125000 0.750000
vt 0.187500 0.750000
vt 0.500000 0.562500
vt 0.500000 0.687500
vt 0.500000 0.750000
vt 0.562500 0.750000
vt 0.562500 0.687500
vt 0.562500 0.562500
vt 0.437500 0.687500
vt 0.187500 0.687500
vt 0.437500 0.687500
vt 0.125000 0.625000
vt 0.125000 0.750000
vt 0.187500 0.750000
vt 0.187500 0.625000
vt 0.062500 0.687500
vt 0.062500 0.625000
vt 0.562500 0.687500
vt 0.562500 0.562500
vt 0.937500 0.562500
vt 0.937500 0.937500
vt 0.437500 0.312500
vt 0.187500 0.625000
vt 0.125000 0.562500
vt 0.125000 0.500000
vt 0.062500 0.500000
vt 0.062500 0.312500
vt 0.062500 0.625000
vt 0.062500 0.562500
vt 0.125000 0.562500
vt 0.937500 0.562500
vt 0.500000 0.562500
vt 0.500000 0.500000
vt 0.937500 0.500000
vt 0.062500 0.500000
vt 0.937500 0.500000
vt 0.937500 0.437500
vt 0.812500 0.437500
vt 0.750000 0.437500
vt 0.687500 0.437500
vt 0.625000 0.437500
vt 0.562500 0.437500
vt 0.500000 0.437500
vt 0.687500 0.312500
vt 0.750000 0.312500
vt 0.562500 0.312500
vt 0.500000 0.312500
vt 0.500000 0.437500
vt 0.562500 0.437500
vt 0.562500 0.312500
vt 0.687500 0.312500
vt 0.687500 0.437500
vt 0.437500 0.312500
vt 0.437500 0.687500
vt 0.125000 0.187500
vt 0.250000 0.187500
vt 0.250000 0.062500
vt 0.062500 0.062500
vt 0.062500 0.125000
vt 0.125000 0.125000
vt 0.687500 0.250000
vt 0.750000 0.250000
vt 0.937500 0.062500
vt 0.937500 0.437500
vt 0.812500 0.437500
vt 0.812500 0.062500
vt 0.687500 0.187500
vt 0.750000 0.187500
vt 1.000000 0.062500
vt 1.000000 0.437500
vt 0.062500 0.250000
vt 0.687500 0.187500
vt 0.312500 0.187500
vt 0.250000 0.187500
vt 0.125000 0.187500
vt 0.062500 0.187500
vt 0.687500 0.062500
vt 0.750000 0.187500
vt 0.750000 0.062500
vt 0.312500 0.062500
vt 0.312500 0.062500
vt 0.250000 0.062500
vt 0.000000 0.125000
vt 0.000000 0.187500
vt 0.062500 0.187500
vt 1.000000 1.000000
vt 0.937500 1.000000
vt 1.000000 0.937500
vt 0.625000 0.937500
vt 0.562500 0.937500
vt 0.500000 0.937500
vt 0.437500 0.937500
vt 0.062500 0.937500
vt 0.062500 1.000000
vt 0.437500 0.937500
vt 0.000000 1.000000
vt 0.000000 0.937500
vt 0.000000 0.812500
vt 0.062500 0.812500
vt 0.000000 0.750000
vt 0.000000 0.687500
vt 0.062500 0.687500
vt 0.000000 0.625000
vt 0.000000 0.562500
vt 0.000000 0.500000
vt 0.000000 0.437500
vt 0.000000 0.312500
vt 0.062500 0.312500
vt 0.562500 0.312500
vt 0.687500 0.250000
vt 0.062500 0.250000
vt 0.000000 0.250000
vt 0.062500 0.125000
vt 0.000000 0.062500
vt 0.000000 0.000000
vt 0.062500 0.000000
vt 0.250000 0.062500
vt 0.312500 0.062500
vt 0.687500 0.000000
vt 0.687500 0.062500
vt 0.750000 0.062500
vt 0.687500 0.062500
vt 0.750000 0.000000
vt 0.812500 0.062500
vt 0.812500 0.000000
vt 1.000000 0.062500
vt 0.937500 0.000000
vt 1.000000 0.000000
vt 1.000000 0.250000
vt 1.000000 0.312500
vt 1.000000 0.125000
vt 1.000000 0.187500
vt 1.000000 0.500000
vt 0.937500 0.500000
vt 0.937500 0.437500
vt 1.000000 0.437500
vt 1.000000 0.562500
vt 0.812500 0.062500
vt 0.750000 0.250000
vt 0.437500 0.750000
vt 0.687500 0.250000
vt 0.687500 0.187500
vt 0.500000 0.500000
vt 0.750000 0.437500
vt 0.687500 0.437500
vt 0.625000 0.437500
vt 0.562500 0.812500
vt 0.562500 0.750000
vt 0.625000 0.875000
vt 0.500000 0.687500
vt 0.687500 0.312500
vt 0.062500 0.812500
vt 0.187500 0.750000
vt 0.437500 0.687500
vt 0.187500 0.687500
vt 0.187500 0.625000
vt 0.125000 0.625000
vt 0.062500 0.125000
vt 0.437500 0.812500
vt 0.937500 0.000000
vt 1.000000 0.562500
vt 1.000000 0.625000
vt 1.000000 0.687500
vt 1.000000 0.750000
vt 1.000000 0.812500
vt 1.000000 0.937500
vt 0.937500 1.000000
vt 0.562500 1.000000
vt 0.562500 0.937500
vt 0.000000 0.937500
vt 0.000000 0.812500
vt 0.062500 0.250000
vt 0.062500 0.125000
vt 0.750000 0.062500
vt 0.812500 0.000000
vt 0.125000 0.187500
vt 0.062500 0.500000
vt 0.062500 0.562500
vt 0.125000 0.562500
vt 0.500000 0.812500
vt 0.750000 0.437500
vt 0.625000 0.875000
vt 0.625000 0.812500
vt 0.812500 0.062500
vt 0.437500 0.312500
vt 0.062500 0.687500
vt 0.625000 0.000000
vt 0.562500 0.000000
vt 0.062500 0.500000
vt 0.312500 0.000000
vt 0.250000 0.000000
vt 0.000000 0.187500
vt 0.437500 1.000000
vt 0.500000 1.000000
vt 0.562500 1.000000
vt 1.000000 0.812500
vt 1.000000 0.625000
vt 0.687500 1.000000
vt 0.750000 1.000000
vt 0.125000 0.562500
vt 0.500000 0.500000
vt 0.625000 0.437500
vt 0.687500 0.437500
vt 0.812500 0.437500
vt 0.437500 0.312500
vt 0.812500 1.000000
vt 0.812500 1.000000
vt 0.625000 1.000000
vt 0.437500 1.000000
vt 0.250000 1.000000
vt 0.312500 1.000000
vt 0.062500 1.000000
vt 0.125000 1.000000
vt 0.187500 1.000000
vt 0.000000 0.562500
vt 0.000000 0.625000
vt 0.437500 0.000000
vt 0.500000 0.000000
s 0
usemtl Material
f 311/1/1 312/2/1 315/3/1 314/4/1 310/5/1
f 314/4/2 318/6/2 317/7/2 309/8/2 310/5/2
f 113/3/3 114/4/3 117/6/3 121/9/3 120/10/3 116/11/3 115/12/3
f 117/6/4 118/7/4 122/13/4 121/9/4
f 414/7/5 439/14/5 438/15/5 428/16/5 422/17/5 413/13/5
f 474/18/6 475/19/6 476/20/6 484/21/6 483/22/6 482/23/6
f 121/9/7 122/13/7 128/24/7 127/19/7
f 213/13/8 222/17/8 221/25/8 212/26/8
f 257/27/9 258/28/9 261/29/9 260/25/9 259/30/9
f 227/27/10 228/16/10 238/15/10 237/31/10 236/32/10
f 115/12/11 116/11/11 120/10/11 126/33/11 135/34/11 134/35/11 107/36/11 108/2/11 113/3/11
f 211/37/12 212/26/12 221/25/12 220/38/12 227/27/12 226/39/12 225/40/12 234/41/12 233/42/12
f 132/27/13 133/43/13 138/44/13 137/45/13
f 377/46/14 397/23/14 405/47/14 404/48/14 376/49/14
f 137/45/15 138/44/15 142/50/15 141/40/15
f 473/48/16 505/51/16 504/52/16 502/53/16 500/54/16 495/55/16 487/56/16 481/57/16 472/58/16
f 294/59/17 295/55/17 300/54/17 299/60/17
f 344/57/18 353/61/18 352/62/18 343/63/18
f 391/56/19 396/64/19 395/65/19 389/66/19 390/67/19
f 266/68/20 267/69/20 275/19/20 274/18/20 273/48/20 272/58/20 271/62/20
f 254/70/21 263/71/21 262/72/21 241/73/21 242/74/21 253/75/21
f 150/60/22 151/66/22 157/76/22 156/77/22
f 282/23/23 306/35/23 305/51/23 273/48/23 274/18/23
f 174/78/24 175/79/24 180/80/24 179/81/24
f 156/77/25 157/76/25 160/82/25 159/83/25
f 98/84/26 373/78/26 349/79/26 99/85/26
f 356/86/27 357/76/27 363/87/27 362/88/27 361/89/27 360/90/27 359/91/27
f 491/92/28 492/87/28 497/93/28 496/94/28
f 291/92/29 264/95/29 265/88/29 292/87/29
f 416/96/30 417/88/30 419/89/30 418/97/30
f 31/98/31 32/99/31 243/100/31 254/70/31 253/75/31 242/74/31
f 1/101/32 97/102/32 107/36/32 73/103/32
f 97/102/33 507/36/33 490/104/33 486/105/33 479/106/33 470/107/33 452/108/33 96/109/33 112/108/33 111/110/33 110/106/33 109/105/33 108/2/33 107/36/33
f 96/109/34 5/111/34 95/112/34 112/108/34
f 439/14/35 440/108/35 42/112/35 43/113/35
f 119/114/36 94/113/36 93/115/36 125/15/36
f 125/15/37 93/115/37 92/116/37 130/117/37
f 130/117/38 92/116/38 91/118/38 133/43/38
f 133/43/39 91/118/39 90/119/39 138/44/39
f 138/44/40 90/119/40 89/120/40 142/50/40
f 88/121/41 87/122/41 155/123/41 142/50/41 89/120/41
f 445/123/42 466/68/42 471/62/42 480/124/42 494/59/42 493/125/42 444/126/42 64/127/42 63/122/42
f 158/126/43 86/127/43 85/99/43 164/100/43
f 166/128/44 84/98/44 83/129/44 173/73/44
f 173/73/45 83/129/45 7/130/45 72/131/45
f 367/73/46 368/132/46 369/133/46 370/92/46 79/134/46 186/135/46 216/96/46 218/97/46 229/73/46 78/131/46
f 169/136/47 170/137/47 71/134/47 70/138/47
f 168/139/48 169/136/48 70/138/48 69/140/48
f 77/141/49 167/78/49 68/142/49 3/143/49
f 51/144/50 50/145/50 49/85/50 175/79/50 174/78/50 54/84/50 53/146/50 52/147/50
f 75/148/51 139/149/51 143/150/51 76/151/51
f 74/152/52 134/35/52 139/149/52 75/148/52
f 107/36/53 134/35/53 74/152/53 73/103/53
f 303/78/54 301/153/54 302/53/54 304/52/54
f 299/60/55 300/54/55 302/53/55 301/153/55 296/94/55 297/93/55 298/154/55
f 261/29/56 268/155/56 267/69/56 260/25/56
f 160/82/57 170/137/57 169/136/57 159/83/57
f 182/83/58 183/77/58 188/156/58 187/157/58
f 183/77/59 184/60/59 189/66/59 188/156/59
f 341/158/60 342/149/60 349/79/60 348/80/60 347/159/60 346/160/60 345/161/60 344/57/60 343/63/60
f 192/12/61 200/162/61 199/163/61 198/33/61 197/23/61 177/46/61 178/36/61 194/104/61 193/164/61
f 193/164/62 209/4/62 208/6/62 207/20/62 199/163/62 200/162/62 192/12/62
f 109/105/63 110/106/63 114/4/63 113/3/63 108/2/63
f 395/65/64 396/64/64 403/58/64 402/62/64
f 331/22/65 337/23/65 336/18/65 330/165/65 325/20/65 326/21/65
f 386/135/66 387/157/66 417/88/66 416/96/66
f 405/47/67 406/19/67 412/26/67 411/37/67 402/62/67 403/58/67 404/48/67
f 345/161/68 346/160/68 354/166/68 353/61/68 344/57/68
f 206/19/69 207/20/69 213/13/69 212/26/69
f 207/20/70 208/6/70 214/7/70 213/13/70
f 111/110/71 118/7/71 117/6/71 114/4/71 110/106/71
f 40/113/72 41/112/72 252/108/72 251/167/72
f 323/168/73 324/155/73 329/169/73 328/170/73
f 362/88/74 369/133/74 368/132/74 361/89/74
f 411/37/75 412/26/75 421/25/75 420/38/75 427/27/75 426/39/75 425/40/75 434/41/75 433/42/75
f 328/170/76 334/171/76 333/172/76 322/16/76 323/168/76
f 454/70/77 463/71/77 462/72/77 441/73/77 442/74/77 453/75/77
f 361/89/78 368/132/78 367/73/78 365/173/78 366/75/78 360/90/78
f 244/126/79 293/125/79 292/87/79 265/88/79 263/71/79 254/70/79 243/100/79
f 225/40/80 226/39/80 235/44/80 234/41/80
f 226/39/81 227/27/81 236/32/81 235/44/81
f 249/31/82 250/15/82 258/28/82 257/27/82 248/43/82
f 251/167/83 269/174/83 268/155/83 261/29/83 258/28/83 250/15/83
f 112/108/84 119/114/84 118/7/84 111/110/84
f 4/143/85 54/84/85 174/78/85 82/175/85
f 49/85/86 48/148/86 176/49/86 175/79/86
f 48/148/87 47/176/87 177/46/87 176/49/87
f 46/177/88 45/178/88 44/179/88 43/180/88 42/181/88 178/36/88 177/46/88 47/176/88
f 42/181/89 3/101/89 68/182/89 178/36/89
f 73/182/90 74/183/90 401/184/90 394/104/90 378/36/90
f 240/108/91 72/109/91 7/111/91 41/112/91
f 55/185/92 452/108/92 451/167/92 56/186/92
f 238/15/93 239/14/93 40/113/93 39/115/93
f 237/31/94 238/15/94 39/115/94 38/116/94
f 236/32/95 237/31/95 38/116/95 37/118/95
f 235/44/96 236/32/96 37/118/96 36/119/96
f 234/41/97 235/44/97 36/119/97 35/120/97
f 233/42/98 234/41/98 35/120/98 34/122/98
f 374/78/99 375/79/99 380/80/99 379/81/99
f 245/123/100 266/68/100 271/62/100 280/124/100 294/59/100 293/125/100 244/126/100 33/127/100 34/122/100
f 231/100/101 232/187/101 33/127/101 32/99/101
f 229/73/102 230/188/102 31/98/102 30/129/102
f 78/131/103 229/73/103 30/129/103 8/130/103
f 487/56/104 495/55/104 494/59/104 480/124/104 481/57/104
f 80/138/105 181/189/105 186/135/105 79/134/105
f 81/190/106 179/81/106 181/189/106 80/138/106
f 218/97/107 219/89/107 224/191/107 223/75/107 230/188/107 229/73/107
f 231/100/108 32/99/108 31/98/108 230/188/108 223/75/108 224/191/108
f 444/126/109 493/125/109 492/87/109 465/88/109 463/71/109 454/70/109 443/100/109
f 246/192/110 247/193/110 256/194/110 255/40/110
f 247/193/111 248/43/111 257/27/111 256/194/111
f 449/31/112 450/15/112 458/28/112 457/27/112 448/43/112
f 451/167/113 469/174/113 468/155/113 461/29/113 458/28/113 450/15/113
f 252/108/114 270/107/114 269/174/114 251/167/114
f 445/123/115 446/192/115 455/40/115 456/194/115 457/27/115 459/30/115 460/25/115 467/69/115 466/68/115
f 421/25/116 422/17/116 428/16/116 427/27/116 420/38/116
f 122/13/117 123/168/117 129/170/117 128/24/117
f 462/72/118 463/71/118 465/88/118 464/95/118
f 363/87/119 370/92/119 369/133/119 362/88/119
f 186/135/120 187/157/120 217/88/120 216/96/120
f 466/68/121 467/69/121 475/19/121 474/18/121 473/48/121 472/58/121 471/62/121
f 267/69/122 268/155/122 276/20/122 275/19/122
f 268/155/123 269/174/123 277/195/123 276/20/123
f 209/4/124 210/106/124 215/8/124 214/7/124 208/6/124
f 195/65/125 196/64/125 203/58/125 202/62/125
f 376/49/126 404/48/126 403/58/126 396/64/126 391/56/126 390/67/126 385/196/126 380/80/126 375/79/126
f 482/23/127 506/35/127 505/51/127 473/48/127 474/18/127
f 397/23/128 398/33/128 399/163/128 407/20/128 406/19/128 405/47/128
f 278/4/129 289/197/129 288/198/129 285/11/129 284/21/129 276/20/129 277/195/129
f 486/105/130 490/104/130 489/197/130 478/4/130 479/106/130
f 381/189/131 382/83/131 387/157/131 386/135/131 103/134/131 104/138/131
f 289/197/132 290/104/132 307/36/132 306/35/132 282/23/132 283/22/132 284/21/132 285/11/132 288/198/132
f 364/93/133 371/189/133 370/92/133 363/87/133
f 292/87/134 293/125/134 298/154/134 297/93/134
f 293/125/135 294/59/135 299/60/135 298/154/135
f 494/59/136 495/55/136 500/54/136 499/60/136
f 348/80/137 372/199/137 371/189/137 364/93/137 358/154/137 355/60/137 347/159/137
f 8/130/138 30/129/138 241/73/138 19/131/138
f 30/129/139 31/98/139 242/74/139 241/73/139
f 32/99/140 33/127/140 244/126/140 243/100/140
f 154/200/141 155/123/141 87/122/141 86/127/141 158/126/141 157/76/141 151/66/141 152/124/141 153/62/141
f 34/122/142 35/120/142 246/192/142 245/123/142
f 35/120/143 36/119/143 247/193/143 246/192/143
f 36/119/144 37/118/144 248/43/144 247/193/144
f 37/118/145 38/116/145 249/31/145 248/43/145
f 38/116/146 39/115/146 250/15/146 249/31/146
f 39/115/147 40/113/147 251/167/147 250/15/147
f 94/113/148 119/114/148 112/108/148 95/112/148
f 127/19/149 136/47/149 135/34/149 126/33/149 120/10/149 121/9/149
f 241/73/150 262/72/150 264/95/150 291/92/150 12/116/150 327/201/150 332/32/150 13/202/150 14/203/150 15/120/150 339/204/150 350/123/150 16/205/150 17/206/150 18/207/150 359/91/150 365/173/150 367/73/150 19/131/150
f 270/107/151 88/208/151 89/209/151 279/106/151
f 279/106/152 89/209/152 90/210/152 286/105/152
f 307/36/153 95/102/153 5/101/153 55/103/153
f 306/35/154 307/36/154 55/103/154 56/211/154 57/179/154 58/178/154 59/212/154 60/152/154
f 305/51/155 306/35/155 60/152/155 61/148/155
f 304/52/156 305/51/156 61/148/156 62/85/156
f 143/150/157 167/78/157 77/141/157 76/151/157
f 9/175/158 303/78/158 67/84/158 6/143/158
f 11/138/159 296/94/159 301/153/159 10/190/159
f 12/134/160 291/92/160 296/94/160 11/138/160
f 322/16/161 333/172/161 332/32/161 327/201/161 321/15/161
f 314/4/162 315/3/162 320/12/162 319/11/162 326/21/162 325/20/162 318/6/162
f 317/7/163 318/6/163 325/20/163 324/155/163
f 427/27/164 428/16/164 438/15/164 437/31/164 436/32/164
f 413/13/165 422/17/165 421/25/165 412/26/165
f 324/155/166 325/20/166 330/165/166 329/169/166
f 441/73/167 462/72/167 464/95/167 491/92/167 23/213/167 22/214/167 21/190/167 501/153/167 503/78/167 20/102/167 313/36/167 312/2/167 311/1/167 310/5/167 309/8/167 308/108/167 24/131/167
f 503/78/168 501/153/168 502/53/168 504/52/168
f 14/119/169 335/215/169 340/40/169 339/204/169 15/120/169
f 315/3/170 312/2/170 313/36/170 338/35/170 337/23/170 331/22/170 326/21/170 319/11/170 320/12/170
f 469/174/171 470/107/171 479/106/171 478/4/171 477/195/171
f 134/35/172 135/34/172 136/47/172 140/216/172 139/149/172
f 139/149/173 140/216/173 149/63/173 148/57/173 147/217/173 146/218/173 145/54/173 144/219/173 143/150/173
f 13/118/174 332/32/174 333/172/174 335/215/174 14/119/174
f 271/62/175 272/58/175 281/57/175 280/124/175
f 384/60/176 385/196/176 390/67/176 389/66/176
f 211/37/177 233/42/177 34/122/177 33/127/177 232/187/177 188/156/177 189/66/177 195/65/177 202/62/177
f 149/63/178 153/62/178 152/124/178 148/57/178
f 439/14/179 414/7/179 415/8/179 440/108/179
f 205/47/180 206/19/180 212/26/180 211/37/180 202/62/180 203/58/180 204/48/180
f 191/56/181 196/64/181 195/65/181 189/66/181 190/67/181
f 350/123/182 351/220/182 352/62/182 353/61/182 354/166/182 357/76/182 356/86/182
f 354/166/183 355/60/183 358/154/183 357/76/183
f 188/156/184 232/187/184 231/100/184 224/191/184 219/89/184 217/88/184 187/157/184
f 357/76/185 358/154/185 364/93/185 363/87/185
f 150/60/186 156/77/186 159/83/186 169/136/186 168/139/186 144/219/186 145/54/186
f 143/150/187 144/219/187 168/139/187 167/78/187
f 359/91/188 360/90/188 366/75/188 365/173/188
f 491/92/189 464/95/189 465/88/189 492/87/189
f 372/199/190 373/78/190 82/175/190 174/78/190 179/81/190 81/190/190
f 379/81/191 380/80/191 385/196/191 384/60/191 383/77/191 382/83/191 381/189/191 104/138/191 105/190/191
f 6/111/192 24/109/192 308/108/192 9/112/192
f 171/96/193 172/72/193 173/73/193 72/109/193 240/108/193 215/8/193 210/106/193 201/184/193 194/104/193 178/36/193 68/142/193 167/78/193 168/139/193 69/221/193 70/214/193 71/134/193 170/137/193
f 20/102/194 2/101/194 106/103/194 313/36/194
f 102/212/195 101/152/195 338/35/195 313/36/195 106/103/195 105/211/195 104/179/195 103/178/195
f 338/35/196 101/152/196 100/148/196 342/149/196
f 342/149/197 100/148/197 99/85/197 349/79/197
f 503/78/198 504/52/198 28/85/198 29/84/198
f 373/78/199 98/84/199 4/143/199 82/175/199
f 371/189/200 372/199/200 81/190/200 80/138/200
f 370/92/201 371/189/201 80/138/201 79/134/201
f 19/129/202 367/73/202 78/131/202 8/130/202
f 452/108/203 470/107/203 469/174/203 451/167/203
f 17/127/204 356/86/204 359/91/204 18/207/204
f 16/122/205 350/123/205 356/86/205 17/127/205
f 11/115/206 321/15/206 327/201/206 12/116/206
f 10/113/207 316/167/207 321/15/207 11/115/207
f 349/79/208 373/78/208 372/199/208 348/80/208
f 388/156/209 432/187/209 431/100/209 424/191/209 419/89/209 417/88/209 387/157/209
f 181/189/210 182/83/210 187/157/210 186/135/210
f 382/83/211 383/77/211 388/156/211 387/157/211
f 383/77/212 384/60/212 389/66/212 388/156/212
f 184/60/213 185/196/213 190/67/213 189/66/213
f 147/217/214 148/57/214 152/124/214 151/66/214 146/218/214
f 392/12/215 400/162/215 399/163/215 398/33/215 397/23/215 377/46/215 378/36/215 394/104/215 393/164/215
f 393/164/216 409/4/216 408/6/216 407/20/216 399/163/216 400/162/216 392/12/216
f 201/184/217 210/106/217 209/4/217 193/164/217 194/104/217
f 471/62/218 472/58/218 481/57/218 480/124/218
f 176/49/219 204/48/219 203/58/219 196/64/219 191/56/219 190/67/219 185/196/219 180/80/219 175/79/219
f 177/46/220 197/23/220 205/47/220 204/48/220 176/49/220
f 197/23/221 198/33/221 199/163/221 207/20/221 206/19/221 205/47/221
f 170/137/222 160/82/222 161/88/222 171/96/222
f 262/72/223 263/71/223 265/88/223 264/95/223
f 406/19/224 407/20/224 413/13/224 412/26/224
f 407/20/225 408/6/225 414/7/225 413/13/225
f 269/174/226 270/107/226 279/106/226 278/4/226 277/195/226
f 216/96/227 217/88/227 219/89/227 218/97/227
f 461/29/228 468/155/228 467/69/228 460/25/228
f 245/123/229 246/192/229 255/40/229 256/194/229 257/27/229 259/30/229 260/25/229 267/69/229 266/68/229
f 457/27/230 458/28/230 461/29/230 460/25/230 459/30/230
f 418/97/231 419/89/231 424/191/231 423/75/231 430/188/231 429/73/231
f 164/100/232 85/99/232 84/98/232 166/128/232 165/75/232 163/191/232
f 157/76/233 158/126/233 164/100/233 163/191/233 162/89/233 161/88/233 160/82/233
f 425/40/234 426/39/234 435/44/234 434/41/234
f 426/39/235 427/27/235 436/32/235 435/44/235
f 130/117/236 133/43/236 132/27/236 124/16/236 125/15/236
f 214/7/237 239/14/237 238/15/237 228/16/237 222/17/237 213/13/237
f 308/108/238 309/8/238 317/7/238 316/167/238
f 499/60/239 500/54/239 502/53/239 501/153/239 496/94/239 497/93/239 498/154/239
f 28/85/240 27/148/240 376/49/240 375/79/240
f 27/148/241 26/176/241 377/46/241 376/49/241
f 25/181/242 378/36/242 377/46/242 26/176/242
f 25/181/243 1/101/243 73/182/243 378/36/243
f 93/214/244 94/222/244 95/102/244 307/36/244 290/104/244 286/105/244 90/210/244 91/223/244 92/213/244
f 401/184/245 74/183/245 75/209/245 410/106/245
f 410/106/246 75/209/246 76/224/246 415/8/246
f 86/225/247 87/226/247 88/208/247 270/107/247 252/108/247 41/112/247 7/111/247 83/227/247 84/228/247 85/229/247
f 239/14/248 240/108/248 41/112/248 40/113/248
f 438/15/249 439/14/249 43/113/249 44/115/249
f 437/31/250 438/15/250 44/115/250 45/116/250
f 436/32/251 437/31/251 45/116/251 46/118/251
f 435/44/252 436/32/252 46/118/252 47/119/252
f 434/41/253 435/44/253 47/119/253 48/120/253
f 433/42/254 434/41/254 48/120/254 49/121/254 50/122/254
f 146/218/255 151/66/255 150/60/255 145/54/255
f 431/100/256 432/187/256 51/127/256 52/99/256
f 429/73/257 430/188/257 53/98/257 54/129/257
f 98/131/258 429/73/258 54/129/258 4/130/258
f 128/24/259 129/170/259 131/171/259 132/27/259 137/45/259 141/40/259 142/50/259 155/123/259 154/200/259
f 172/72/260 162/89/260 163/191/260 165/75/260 166/128/260 173/73/260
f 431/100/261 52/99/261 53/98/261 430/188/261 423/75/261 424/191/261
f 446/192/262 447/193/262 456/194/262 455/40/262
f 447/193/263 448/43/263 457/27/263 456/194/263
f 316/167/264 317/7/264 324/155/264 323/168/264 322/16/264 321/15/264
f 239/14/265 214/7/265 215/8/265 240/108/265
f 118/7/266 119/114/266 125/15/266 124/16/266 123/168/266 122/13/266
f 350/123/267 339/204/267 340/40/267 335/215/267 333/172/267 334/171/267 328/170/267 329/169/267 351/220/267
f 221/25/268 222/17/268 228/16/268 227/27/268 220/38/268
f 162/89/269 172/72/269 171/96/269 161/88/269
f 10/190/270 301/153/270 303/78/270 9/112/270 308/108/270 316/167/270
f 66/98/271 65/99/271 443/100/271 454/70/271 453/75/271 442/74/271
f 330/165/272 336/18/272 341/158/272 343/63/272 352/62/272 351/220/272 329/169/272
f 467/69/273 468/155/273 476/20/273 475/19/273
f 468/155/274 469/174/274 477/195/274 476/20/274
f 409/4/275 410/106/275 415/8/275 414/7/275 408/6/275
f 128/24/276 154/200/276 153/62/276 149/63/276 140/216/276 136/47/276 127/19/276
f 273/48/277 305/51/277 304/52/277 302/53/277 300/54/277 295/55/277 287/56/277 281/57/277 272/58/277
f 337/23/278 338/35/278 342/149/278 341/158/278 336/18/278
f 274/18/279 275/19/279 276/20/279 284/21/279 283/22/279 282/23/279
f 478/4/280 489/197/280 488/198/280 485/11/280 484/21/280 476/20/280 477/195/280
f 401/184/281 410/106/281 409/4/281 393/164/281 394/104/281
f 287/56/282 295/55/282 294/59/282 280/124/282 281/57/282
f 489/197/283 490/104/283 507/36/283 506/35/283 482/23/283 483/22/283 484/21/283 485/11/283 488/198/283
f 291/92/284 292/87/284 297/93/284 296/94/284
f 492/87/285 493/125/285 498/154/285 497/93/285
f 493/125/286 494/59/286 499/60/286 498/154/286
f 347/159/287 355/60/287 354/166/287 346/160/287
f 179/81/288 180/80/288 185/196/288 184/60/288 183/77/288 182/83/288 181/189/288
f 124/16/289 132/27/289 131/171/289 129/170/289 123/168/289
f 6/130/290 67/129/290 441/73/290 24/131/290
f 67/129/291 66/98/291 442/74/291 441/73/291
f 65/99/292 64/127/292 444/126/292 443/100/292
f 411/37/293 433/42/293 50/122/293 51/127/293 432/187/293 388/156/293 389/66/293 395/65/293 402/62/293
f 62/121/294 61/120/294 446/192/294 445/123/294 63/122/294
f 61/120/295 60/230/295 447/193/295 446/192/295
f 60/230/296 59/231/296 448/43/296 447/193/296
f 59/231/297 58/116/297 449/31/297 448/43/297
f 58/116/298 57/115/298 450/15/298 449/31/298
f 57/115/299 56/186/299 451/167/299 450/15/299
f 55/185/300 5/111/300 96/109/300 452/108/300
f 28/85/301 375/79/301 374/78/301 106/175/301 2/143/301 29/84/301
f 76/224/302 77/109/302 3/111/302 42/112/302 440/108/302 415/8/302
f 507/36/303 97/102/303 1/101/303 25/181/303
f 506/35/304 507/36/304 25/181/304 26/176/304
f 505/51/305 506/35/305 26/176/305 27/148/305
f 504/52/306 505/51/306 27/148/306 28/85/306
f 106/175/307 374/78/307 379/81/307 105/190/307
f 303/78/308 304/52/308 62/85/308 63/145/308 64/144/308 65/147/308 66/146/308 67/84/308
f 20/175/309 503/78/309 29/84/309 2/143/309
f 286/105/310 290/104/310 289/197/310 278/4/310 279/106/310
f 22/138/311 496/94/311 501/153/311 21/190/311
f 23/134/312 491/92/312 496/94/312 22/138/312
f 416/96/313 418/97/313 429/73/313 98/131/313 99/232/313 100/233/313 101/203/313 102/202/313 103/134/313 386/135/313
