# Blender 5.0.0
# www.blender.org
mtllib plate.mtl
o polySurface326
v -0.615705 -0.267988 1.388019
v -0.650109 -0.267988 1.353615
v 0.149891 -0.267988 1.353615
v 0.115488 -0.267988 1.388019
v -0.650109 0.063205 1.353615
v -0.615705 0.063205 1.388019
v -0.615705 0.097608 1.353615
v 0.115488 0.097608 1.353615
v 0.115488 0.063205 1.388019
v 0.149891 0.063205 1.353615
v -0.650109 0.063205 1.022422
v -0.615705 0.097608 1.022422
v -0.615705 0.063205 0.988019
v 0.115488 0.063205 0.988019
v 0.115488 0.097608 1.022422
v 0.149891 0.063205 1.022422
v -0.650109 -0.267988 1.022422
v -0.615705 -0.267988 0.988019
v 0.115488 -0.267988 0.988019
v 0.149891 -0.267988 1.022422
v -1.009121 -0.148301 1.045101
v 0.990879 -0.148301 1.045101
v -1.009121 -0.148301 -0.954899
v 0.990879 -0.148301 -0.954899
v 0.586742 0.251699 1.045101
v 0.990879 0.211699 1.045101
v 0.990879 0.251699 0.873279
v -1.009121 0.251699 0.903616
v -0.501477 0.272497 1.045101
v -1.009121 0.194110 1.045101
v -0.660255 0.215789 1.045101
v -0.780348 0.251699 -0.954899
v -1.009121 0.251699 -0.761688
v -1.009121 0.160701 -0.954899
v -0.844665 0.251699 -0.803410
v 0.990879 0.211699 -0.954899
v 0.990879 0.251699 -0.772082
v 0.813756 0.251699 -0.954899
v -0.616695 0.256043 0.587016
v -0.107603 0.256604 0.817361
v 0.430446 0.255951 0.666581
v 0.745695 0.254390 0.205230
v 0.690636 0.252651 -0.350824
v 0.291029 0.251548 -0.741395
v -0.266142 0.251597 -0.783730
v -0.720173 0.252775 -0.458022
v -0.858617 0.254531 0.083328
v -0.382457 0.256472 0.747071
v 0.174715 0.256423 0.789407
v 0.628745 0.255245 0.463699
v 0.767190 0.253489 -0.077651
v 0.525268 0.251977 -0.581339
v 0.016176 0.251416 -0.811684
v -0.521874 0.252069 -0.660905
v -0.837123 0.253630 -0.199553
v -0.782063 0.255369 0.356501
v -0.506578 0.256292 0.677291
v 0.034778 0.256552 0.815734
v 0.698527 0.254830 0.339581
v 0.768817 0.253939 0.064730
v 0.415150 0.251728 -0.671613
v -0.126206 0.251468 -0.810057
v -0.399381 0.251800 -0.733504
v -0.789955 0.253190 -0.333903
v -0.709463 0.255732 0.478992
v -0.248105 0.256577 0.794239
v 0.307953 0.256221 0.739182
v 0.538471 0.255623 0.573815
v 0.740863 0.253056 -0.217586
v 0.618035 0.252288 -0.473315
v 0.156677 0.251443 -0.788563
v -0.629898 0.252398 -0.568138
v -0.860245 0.254082 -0.059052
v -0.832290 0.254965 0.223264
v -0.485232 0.255575 0.452514
v -0.400468 0.255767 0.522004
v -0.304925 0.255905 0.575718
v -0.201506 0.255986 0.612026
v -0.093354 0.256007 0.629823
v 0.016245 0.255967 0.628571
v 0.123963 0.255868 0.608306
v 0.226524 0.255712 0.569644
v 0.320814 0.255504 0.513760
v 0.403968 0.255251 0.442353
v 0.473457 0.254961 0.357590
v 0.527172 0.254641 0.262049
v 0.563480 0.254303 0.158631
v 0.581278 0.253955 0.050480
v 0.580025 0.253609 -0.059118
v 0.559760 0.253276 -0.166835
v 0.521098 0.252964 -0.269395
v 0.465213 0.252685 -0.363685
v 0.393804 0.252445 -0.446837
v 0.309040 0.252254 -0.516326
v 0.213498 0.252115 -0.570041
v 0.110078 0.252034 -0.606348
v 0.001927 0.252014 -0.624147
v -0.107673 0.252054 -0.622895
v -0.215390 0.252153 -0.602629
v -0.317952 0.252309 -0.563968
v -0.412242 0.252516 -0.508083
v -0.495395 0.252769 -0.436676
v -0.564885 0.253060 -0.351912
v -0.618600 0.253379 -0.256372
v -0.654908 0.253718 -0.152954
v -0.672706 0.254065 -0.044803
v -0.671453 0.254411 0.064795
v -0.651188 0.254745 0.172512
v -0.612525 0.255056 0.275073
v -0.556640 0.255336 0.369362
v -0.385185 0.254941 0.350153
v -0.319717 0.255055 0.403825
v -0.245921 0.255137 0.445312
v -0.166043 0.255185 0.473356
v -0.082509 0.255197 0.487103
v 0.002142 0.255174 0.486136
v 0.085340 0.255114 0.470483
v 0.164556 0.255022 0.440622
v 0.237383 0.254899 0.397458
v 0.301608 0.254748 0.342305
v 0.355280 0.254575 0.276837
v 0.396768 0.254385 0.203044
v 0.424811 0.254184 0.123167
v 0.438557 0.253978 0.039636
v 0.437589 0.253772 -0.045014
v 0.421937 0.253573 -0.128212
v 0.392075 0.253388 -0.207426
v 0.348912 0.253222 -0.280252
v 0.293758 0.253080 -0.344477
v 0.228289 0.252966 -0.398148
v 0.154494 0.252884 -0.439636
v 0.074616 0.252836 -0.467679
v -0.008919 0.252823 -0.481425
v -0.093570 0.252847 -0.480458
v -0.176768 0.252906 -0.464807
v -0.255984 0.252999 -0.434945
v -0.328811 0.253122 -0.391782
v -0.393036 0.253272 -0.336628
v -0.446707 0.253445 -0.271160
v -0.488196 0.253635 -0.197366
v -0.516239 0.253836 -0.117491
v -0.529985 0.254043 -0.033959
v -0.529017 0.254249 0.050691
v -0.513365 0.254447 0.133888
v -0.483503 0.254632 0.213104
v -0.440340 0.254798 0.285928
v -0.281268 0.254656 0.243832
v -0.235841 0.254735 0.281075
v -0.184635 0.254792 0.309863
v -0.129208 0.254825 0.329321
v -0.071245 0.254834 0.338860
v -0.012507 0.254817 0.338189
v 0.045223 0.254776 0.327327
v 0.100189 0.254712 0.306607
v 0.150723 0.254627 0.276657
v 0.195287 0.254522 0.238387
v 0.232530 0.254402 0.192960
v 0.261317 0.254271 0.141757
v 0.280775 0.254131 0.086332
v 0.290314 0.253988 0.028372
v 0.289643 0.253845 -0.030364
v 0.278781 0.253707 -0.088094
v 0.258061 0.253579 -0.143060
v 0.228111 0.253463 -0.193592
v 0.189840 0.253365 -0.238156
v 0.144413 0.253286 -0.275397
v 0.093208 0.253228 -0.304185
v 0.037780 0.253195 -0.323645
v -0.020182 0.253187 -0.333183
v -0.078921 0.253203 -0.332512
v -0.136651 0.253244 -0.321651
v -0.191617 0.253308 -0.300931
v -0.242151 0.253394 -0.270980
v -0.286716 0.253498 -0.232709
v -0.323957 0.253618 -0.187283
v -0.352745 0.253750 -0.136080
v -0.372203 0.253890 -0.080655
v -0.381742 0.254033 -0.022695
v -0.381070 0.254176 0.036042
v -0.370209 0.254313 0.093771
v -0.349488 0.254442 0.148737
v -0.319538 0.254557 0.199268
v 0.516154 0.215351 -0.400228
v 0.577610 0.215659 -0.296539
v 0.620127 0.216001 -0.183752
v 0.642413 0.216368 -0.065296
v 0.643791 0.216748 0.055230
v 0.624218 0.217130 0.174164
v 0.584290 0.217503 0.287892
v 0.525220 0.217854 0.392960
v 0.448802 0.218174 0.486174
v 0.357358 0.218452 0.564702
v 0.253667 0.218680 0.626157
v 0.140880 0.218851 0.668674
v 0.022423 0.218961 0.690959
v -0.098104 0.219004 0.692336
v -0.217039 0.218982 0.672764
v -0.330769 0.218893 0.632836
v -0.435838 0.218741 0.573765
v -0.529052 0.218530 0.497348
v -0.607582 0.218267 0.405905
v -0.669038 0.217959 0.302215
v -0.711555 0.217617 0.189429
v -0.733841 0.217250 0.070974
v -0.735219 0.216869 -0.049553
v -0.715647 0.216487 -0.168487
v -0.675718 0.216115 -0.282215
v -0.616648 0.215763 -0.387282
v -0.540229 0.215444 -0.480496
v -0.448786 0.215166 -0.559024
v -0.345095 0.214938 -0.620479
v -0.232307 0.214766 -0.662996
v -0.113851 0.214657 -0.685281
v 0.006676 0.214613 -0.686660
v 0.125611 0.214636 -0.667087
v 0.239341 0.214725 -0.627159
v 0.344410 0.214877 -0.568089
v 0.437625 0.215088 -0.491671
v 0.567094 0.215219 -0.436772
v 0.634123 0.215554 -0.323681
v 0.680495 0.215928 -0.200668
v 0.704801 0.216328 -0.071474
v 0.706305 0.216743 0.059980
v 0.684957 0.217160 0.189697
v 0.641409 0.217566 0.313736
v 0.576983 0.217949 0.428329
v 0.493637 0.218298 0.529994
v 0.393902 0.218601 0.615641
v 0.280810 0.218850 0.682669
v 0.157797 0.219037 0.729040
v 0.028601 0.219156 0.753346
v -0.102854 0.219204 0.754849
v -0.232572 0.219179 0.733501
v -0.356614 0.219082 0.689953
v -0.471208 0.218916 0.625528
v -0.572874 0.218686 0.542182
v -0.658522 0.218399 0.442448
v -0.725551 0.218063 0.329357
v -0.771922 0.217690 0.206346
v -0.796229 0.217290 0.077150
v -0.797732 0.216875 -0.054302
v -0.776385 0.216458 -0.184019
v -0.732837 0.216052 -0.308060
v -0.668410 0.215669 -0.422652
v -0.585064 0.215320 -0.524317
v -0.485329 0.215017 -0.609964
v -0.372238 0.214768 -0.676992
v -0.249225 0.214581 -0.723364
v -0.120028 0.214462 -0.747669
v 0.011426 0.214414 -0.749172
v 0.141145 0.214439 -0.727824
v 0.265186 0.214536 -0.684277
v 0.379780 0.214702 -0.619851
v 0.481446 0.214932 -0.536505
v 0.268378 0.238044 -0.222479
v 0.302732 0.238176 -0.164515
v 0.326499 0.238323 -0.101467
v 0.338958 0.238481 -0.035248
v 0.339729 0.238645 0.032127
v 0.328788 0.238809 0.098611
v 0.306468 0.238970 0.162186
v 0.273446 0.239121 0.220919
v 0.230728 0.239258 0.273027
v 0.179610 0.239378 0.316924
v 0.121645 0.239476 0.351279
v 0.058595 0.239550 0.375046
v -0.007624 0.239597 0.387504
v -0.075000 0.239616 0.388275
v -0.141487 0.239606 0.377333
v -0.205064 0.239568 0.355012
v -0.263799 0.239502 0.321992
v -0.315907 0.239412 0.279273
v -0.359806 0.239298 0.228155
v -0.394160 0.239166 0.170192
v -0.417927 0.239019 0.107144
v -0.430385 0.238861 0.040925
v -0.431156 0.238697 -0.026450
v -0.420215 0.238533 -0.092934
v -0.397895 0.238372 -0.156508
v -0.364874 0.238221 -0.215242
v -0.322156 0.238084 -0.267349
v -0.271037 0.237964 -0.311247
v -0.213073 0.237866 -0.345601
v -0.150023 0.237792 -0.369370
v -0.083803 0.237745 -0.381827
v -0.016428 0.237726 -0.382597
v 0.050059 0.237736 -0.371656
v 0.113637 0.237774 -0.349335
v 0.172372 0.237840 -0.316314
v 0.224479 0.237931 -0.273596
v 0.308645 0.237963 -0.251365
v 0.347404 0.238113 -0.185970
v 0.374218 0.238279 -0.114840
v 0.388274 0.238457 -0.040131
v 0.389143 0.238642 0.035881
v 0.376799 0.238827 0.110889
v 0.351618 0.239008 0.182615
v 0.314363 0.239179 0.248878
v 0.266168 0.239334 0.307665
v 0.208496 0.239469 0.357192
v 0.143101 0.239579 0.395950
v 0.071967 0.239663 0.422764
v -0.002741 0.239716 0.436819
v -0.078755 0.239737 0.437689
v -0.153765 0.239726 0.425345
v -0.225493 0.239683 0.400162
v -0.291758 0.239609 0.362908
v -0.350546 0.239506 0.314714
v -0.400072 0.239379 0.257042
v -0.438832 0.239229 0.191647
v -0.465646 0.239063 0.120517
v -0.479701 0.238885 0.045809
v -0.480570 0.238700 -0.030205
v -0.468227 0.238515 -0.105212
v -0.443045 0.238334 -0.176937
v -0.405791 0.238164 -0.243201
v -0.357596 0.238008 -0.301988
v -0.299924 0.237873 -0.351514
v -0.234529 0.237763 -0.390273
v -0.163395 0.237679 -0.417088
v -0.088687 0.237626 -0.431143
v -0.012673 0.237605 -0.432011
v 0.062337 0.237616 -0.419667
v 0.134065 0.237659 -0.394486
v 0.200330 0.237733 -0.357231
v 0.259118 0.237836 -0.309036
v -0.045714 0.254010 0.002839
v -1.384024 -0.250693 -0.341110
v -1.349621 -0.250693 -0.375513
v -1.349621 -0.250693 0.498022
v -1.384024 -0.250693 0.463618
v -1.349621 0.080500 -0.375513
v -1.384024 0.080500 -0.341110
v -1.349621 0.114904 -0.341110
v -1.349621 0.114904 0.463618
v -1.384024 0.080500 0.463618
v -1.349621 0.080500 0.498022
v -1.053591 0.080500 -0.375513
v -1.053591 0.114904 -0.341110
v -1.019187 0.080500 -0.341110
v -1.019187 0.080500 0.463618
v -1.053591 0.114904 0.463618
v -1.053591 0.080500 0.498022
v -1.053591 -0.250693 -0.375513
v -1.019187 -0.250693 -0.341110
v -1.019187 -0.250693 0.463618
v -1.053591 -0.250693 0.498022
v -0.969790 -0.256705 -1.025892
v -1.004193 -0.256705 -1.060296
v -0.277116 -0.256705 -1.060296
v -0.311520 -0.256705 -1.025892
v -1.004193 0.074488 -1.060296
v -0.969790 0.074488 -1.025892
v -0.969790 0.108892 -1.060296
v -0.311520 0.108892 -1.060296
v -0.311520 0.074488 -1.025892
v -0.277116 0.074488 -1.060296
v -1.004193 0.074488 -1.363572
v -0.969790 0.108892 -1.363572
v -0.969790 0.074488 -1.397976
v -0.311520 0.074488 -1.397976
v -0.311520 0.108892 -1.363572
v -0.277116 0.074488 -1.363572
v -1.004193 -0.256705 -1.363572
v -0.969790 -0.256705 -1.397975
v -0.311520 -0.256705 -1.397975
v -0.277116 -0.256705 -1.363572
v 0.187859 -0.253301 1.356379
v 0.153455 -0.253301 1.321977
v 0.975967 -0.253301 1.321977
v 0.941563 -0.253301 1.356379
v 0.153455 0.077892 1.321977
v 0.187859 0.077892 1.356379
v 0.187859 0.112295 1.321977
v 0.941563 0.112295 1.321977
v 0.941563 0.077892 1.356379
v 0.975967 0.077892 1.321977
v 0.153455 0.077892 1.018701
v 0.187859 0.112295 1.018701
v 0.187859 0.077892 0.984298
v 0.941563 0.077892 0.984298
v 0.941563 0.112295 1.018701
v 0.975967 0.077892 1.018701
v 0.153455 -0.253301 1.018701
v 0.187859 -0.253301 0.984298
v 0.941563 -0.253301 0.984298
v 0.975967 -0.253301 1.018701
v -0.232827 -0.282176 -1.025892
v -0.267230 -0.282176 -1.060296
v 0.415396 -0.282176 -1.060296
v 0.380993 -0.282176 -1.025892
v -0.267230 0.049018 -1.060296
v -0.232827 0.049018 -1.025892
v -0.232827 0.083421 -1.060296
v 0.380993 0.083421 -1.060296
v 0.380993 0.049018 -1.025892
v 0.415396 0.049018 -1.060296
v -0.267230 0.049018 -1.363572
v -0.232827 0.083421 -1.363572
v -0.232827 0.049018 -1.397976
v 0.380993 0.049018 -1.397976
v 0.380993 0.083421 -1.363572
v 0.415396 0.049018 -1.363572
v -0.267230 -0.282176 -1.363572
v -0.232827 -0.282176 -1.397975
v 0.380993 -0.282176 -1.397975
v 0.415396 -0.282176 -1.363572
v 0.992096 -0.256427 0.584291
v 1.026499 -0.256427 0.549888
v 1.026499 -0.256427 1.372399
v 0.992096 -0.256427 1.337997
v 1.026499 0.074767 0.549888
v 0.992096 0.074767 0.584291
v 1.026499 0.109170 0.584291
v 1.026499 0.109170 1.337997
v 0.992096 0.074767 1.337997
v 1.026499 0.074767 1.372399
v 1.329776 0.074767 0.549888
v 1.329776 0.109170 0.584291
v 1.364179 0.074767 0.584291
v 1.364179 0.074767 1.337997
v 1.329776 0.109170 1.337997
v 1.329776 0.074767 1.372399
v 1.329776 -0.256427 0.549888
v 1.364179 -0.256427 0.584291
v 1.364179 -0.256427 1.337997
v 1.329776 -0.256427 1.372399
v -1.374457 -0.244566 1.362338
v -1.408861 -0.244566 1.327934
v -0.655553 -0.244566 1.327934
v -0.689956 -0.244566 1.362338
v -1.408861 0.086628 1.327934
v -1.374457 0.086628 1.362338
v -1.374457 0.121031 1.327934
v -0.689956 0.121031 1.327934
v -0.689956 0.086628 1.362338
v -0.655553 0.086628 1.327934
v -1.408861 0.086627 1.022422
v -1.374457 0.121031 1.022422
v -1.374457 0.086627 0.988019
v -0.689956 0.086627 0.988019
v -0.689956 0.121031 1.022422
v -0.655553 0.086627 1.022422
v -1.408861 -0.244566 1.022422
v -1.374457 -0.244566 0.988019
v -0.689956 -0.244566 0.988019
v -0.655553 -0.244566 1.022422
v -1.400209 -0.259205 -0.951446
v -1.365806 -0.259205 -0.985849
v -1.365806 -0.259205 -0.386784
v -1.400209 -0.259205 -0.421187
v -1.365806 0.071988 -0.985849
v -1.400209 0.071988 -0.951446
v -1.365806 0.106391 -0.951446
v -1.365806 0.106391 -0.421187
v -1.400209 0.071988 -0.421187
v -1.365806 0.071988 -0.386784
v -1.053591 0.071988 -0.985849
v -1.053591 0.106391 -0.951446
v -1.019187 0.071988 -0.951446
v -1.019187 0.071988 -0.421187
v -1.053591 0.106391 -0.421187
v -1.053591 0.071988 -0.386784
v -1.053591 -0.259205 -0.985849
v -1.019187 -0.259205 -0.951446
v -1.019187 -0.259205 -0.421187
v -1.053591 -0.259205 -0.386784
v 0.992096 -0.249579 -1.418253
v 1.026499 -0.249579 -1.452657
v 1.026499 -0.249579 -0.618861
v 0.992096 -0.249579 -0.653265
v 1.026499 0.081614 -1.452657
v 0.992096 0.081614 -1.418253
v 1.026499 0.116017 -1.418253
v 1.026499 0.116017 -0.653265
v 0.992096 0.081614 -0.653265
v 1.026499 0.081614 -0.618861
v 1.322824 0.081614 -1.452657
v 1.322824 0.116017 -1.418254
v 1.357227 0.081614 -1.418254
v 1.357227 0.081614 -0.653265
v 1.322824 0.116017 -0.653265
v 1.322824 0.081614 -0.618861
v 1.322824 -0.249579 -1.452657
v 1.357227 -0.249579 -1.418254
v 1.357227 -0.249579 -0.653265
v 1.322824 -0.249579 -0.618861
v 0.455537 -0.260378 -1.025892
v 0.421134 -0.260378 -1.060296
v 0.975967 -0.260378 -1.060296
v 0.941563 -0.260378 -1.025892
v 0.421134 0.070816 -1.060296
v 0.455537 0.070816 -1.025892
v 0.455537 0.105219 -1.060296
v 0.941563 0.105219 -1.060296
v 0.941563 0.070816 -1.025892
v 0.975967 0.070816 -1.060296
v 0.421134 0.070816 -1.363572
v 0.455537 0.105219 -1.363572
v 0.455537 0.070816 -1.397976
v 0.941563 0.070816 -1.397976
v 0.941563 0.105219 -1.363572
v 0.975967 0.070816 -1.363572
v 0.421134 -0.260378 -1.363572
v 0.455537 -0.260378 -1.397975
v 0.941563 -0.260378 -1.397975
v 0.975967 -0.260378 -1.363572
v 0.992096 -0.287207 0.185071
v 1.026499 -0.287207 0.150668
v 1.026499 -0.287207 0.543609
v 0.992096 -0.287207 0.509206
v 1.026499 0.043987 0.150668
v 0.992096 0.043987 0.185071
v 1.026499 0.078390 0.185071
v 1.026499 0.078390 0.509206
v 0.992096 0.043987 0.509206
v 1.026499 0.043987 0.543609
v 1.301760 0.043987 0.150668
v 1.301760 0.078390 0.185071
v 1.336164 0.043987 0.185071
v 1.336164 0.043987 0.509206
v 1.301760 0.078390 0.509206
v 1.301760 0.043987 0.543609
v 1.301760 -0.287207 0.150668
v 1.336164 -0.287207 0.185071
v 1.336164 -0.287207 0.509206
v 1.301760 -0.287207 0.543609
v -1.422633 -0.267988 0.539814
v -1.388229 -0.267988 0.505409
v -1.388229 -0.267988 0.977265
v -1.422633 -0.267988 0.942862
v -1.388229 0.063205 0.505409
v -1.422633 0.063205 0.539814
v -1.388229 0.097608 0.539814
v -1.388229 0.097608 0.942862
v -1.422633 0.063205 0.942862
v -1.388229 0.063205 0.977265
v -1.053591 0.063205 0.505409
v -1.053591 0.097608 0.539814
v -1.019187 0.063205 0.539814
v -1.019187 0.063205 0.942862
v -1.053591 0.097608 0.942862
v -1.053591 0.063205 0.977265
v -1.053591 -0.267988 0.505409
v -1.019187 -0.267988 0.539814
v -1.019187 -0.267988 0.942862
v -1.053591 -0.267988 0.977265
v 0.992096 -0.262933 -0.578350
v 1.026499 -0.262933 -0.612753
v 1.026499 -0.262933 0.142055
v 0.992096 -0.262933 0.107651
v 1.026499 0.068261 -0.612753
v 0.992096 0.068261 -0.578350
v 1.026499 0.102664 -0.578350
v 1.026499 0.102664 0.107651
v 0.992096 0.068261 0.107651
v 1.026499 0.068261 0.142055
v 1.322824 0.068261 -0.612753
v 1.322824 0.102664 -0.578350
v 1.357227 0.068261 -0.578350
v 1.357227 0.068261 0.107651
v 1.322824 0.102664 0.107651
v 1.322824 0.068261 0.142055
v 1.322824 -0.262933 -0.612753
v 1.357227 -0.262933 -0.578350
v 1.357227 -0.262933 0.107651
v 1.322824 -0.262933 0.142055
v -1.353650 -0.242655 -1.370467
v -1.353650 -0.242655 -0.990217
v -1.388053 -0.242655 -1.024620
v -1.353650 0.088539 -1.370467
v -1.353650 0.122942 -1.336064
v -1.353650 0.122942 -1.024620
v -1.388053 0.088539 -1.024620
v -1.353650 0.088539 -0.990217
v -1.053591 0.088539 -1.370467
v -1.053591 0.122942 -1.336064
v -1.019187 0.088539 -1.336064
v -1.019187 0.088539 -1.024620
v -1.053591 0.122942 -1.024620
v -1.053591 0.088539 -0.990217
v -1.053591 -0.242655 -1.370467
v -1.019187 -0.242655 -1.336064
v -1.019187 -0.242655 -1.024620
v -1.053591 -0.242655 -0.990217
vn -0.7071 -0.0000 0.7071
vn 0.7071 -0.0000 0.7071
vn -0.7071 0.7071 -0.0000
vn -0.0000 0.7071 0.7071
vn 0.7071 0.7071 -0.0000
vn -0.7071 -0.0000 -0.7071
vn -0.0000 0.7071 -0.7071
vn 0.7071 -0.0000 -0.7071
vn -0.0000 -0.0000 1.0000
vn -0.0000 1.0000 -0.0000
vn -0.0000 -0.0000 -1.0000
vn 1.0000 -0.0000 -0.0000
vn -1.0000 -0.0000 -0.0000
vn -0.5774 0.5774 0.5773
vn 0.5774 0.5774 0.5773
vn -0.5773 0.5774 -0.5774
vn 0.5774 0.5773 -0.5774
vn 0.0960 0.9695 0.2257
vn 0.2154 0.9540 -0.2087
vn -0.2298 0.6435 0.7301
vn -0.0575 0.9247 0.3764
vn -0.1075 0.8994 -0.4236
vn -0.3651 0.9180 -0.1550
vn -0.0131 0.9989 -0.0443
vn -0.0163 0.9989 -0.0442
vn 0.0114 0.9986 -0.0519
vn 0.0060 0.9999 0.0093
vn 0.0138 0.9997 -0.0189
vn 0.0071 0.9999 0.0083
vn 0.0096 1.0000 0.0006
vn 0.0048 1.0000 0.0060
vn 0.0102 0.9999 0.0003
vn -0.0009 1.0000 -0.0029
vn 0.0078 1.0000 -0.0006
vn -0.0007 1.0000 -0.0028
vn -0.0009 1.0000 -0.0013
vn -0.0002 1.0000 -0.0012
vn -0.0008 1.0000 -0.0012
vn 0.0001 1.0000 0.0014
vn 0.0001 1.0000 0.0013
vn 0.0007 1.0000 -0.0014
vn -0.0002 1.0000 -0.0032
vn -0.0000 1.0000 -0.0031
vn -0.0000 1.0000 -0.0023
vn -0.0003 1.0000 -0.0031
vn -0.0011 1.0000 -0.0032
vn -0.0012 1.0000 -0.0031
vn -0.0115 0.9999 0.0019
vn -0.0152 0.9999 0.0011
vn -0.0089 1.0000 0.0032
vn 0.3566 0.8591 -0.3673
vn 0.2878 0.8589 -0.4235
vn 0.3566 0.8591 -0.3672
vn 0.2104 0.8589 -0.4670
vn 0.1265 0.8588 -0.4964
vn 0.1266 0.8588 -0.4964
vn 0.0389 0.8588 -0.5109
vn -0.0499 0.8588 -0.5098
vn -0.1372 0.8589 -0.4935
vn -0.1373 0.8589 -0.4935
vn -0.2204 0.8590 -0.4622
vn -0.2968 0.8591 -0.4170
vn -0.2969 0.8591 -0.4169
vn -0.3643 0.8592 -0.3591
vn -0.3644 0.8592 -0.3591
vn -0.4208 0.8594 -0.2905
vn -0.4208 0.8594 -0.2904
vn -0.4644 0.8596 -0.2130
vn -0.4645 0.8596 -0.2129
vn -0.4940 0.8598 -0.1292
vn -0.4940 0.8598 -0.1291
vn -0.5086 0.8600 -0.0414
vn -0.5086 0.8600 -0.0413
vn -0.5077 0.8602 0.0475
vn -0.5077 0.8602 0.0476
vn -0.4914 0.8604 0.1350
vn -0.4913 0.8604 0.1351
vn -0.4601 0.8606 0.2183
vn -0.4600 0.8606 0.2184
vn -0.4148 0.8608 0.2950
vn -0.4147 0.8608 0.2950
vn -0.3568 0.8609 0.3626
vn -0.2880 0.8610 0.4191
vn -0.2104 0.8611 0.4628
vn -0.2103 0.8611 0.4628
vn -0.1263 0.8612 0.4924
vn -0.0384 0.8612 0.5068
vn 0.0506 0.8612 0.5058
vn 0.1382 0.8611 0.4893
vn 0.1381 0.8611 0.4893
vn 0.2215 0.8610 0.4578
vn 0.2981 0.8609 0.4123
vn 0.2980 0.8609 0.4124
vn 0.3656 0.8607 0.3543
vn 0.3655 0.8607 0.3543
vn 0.4219 0.8606 0.2853
vn 0.4219 0.8606 0.2854
vn 0.4654 0.8604 0.2077
vn 0.4654 0.8604 0.2078
vn 0.4948 0.8602 0.1237
vn 0.4948 0.8602 0.1238
vn 0.5091 0.8600 0.0359
vn 0.5091 0.8600 0.0360
vn 0.5080 0.8597 -0.0530
vn 0.5080 0.8597 -0.0529
vn 0.4914 0.8595 -0.1404
vn 0.4914 0.8595 -0.1403
vn 0.4599 0.8594 -0.2235
vn 0.4600 0.8594 -0.2235
vn 0.4145 0.8592 -0.2999
vn 0.4146 0.8592 -0.2999
vn 0.0018 1.0000 -0.0046
vn 0.0016 1.0000 -0.0051
vn 0.0012 1.0000 -0.0054
vn 0.0007 1.0000 -0.0056
vn 0.0003 1.0000 -0.0056
vn -0.0002 1.0000 -0.0055
vn -0.0006 1.0000 -0.0052
vn -0.0009 1.0000 -0.0048
vn -0.0010 1.0000 -0.0043
vn -0.0009 1.0000 -0.0038
vn -0.0007 1.0000 -0.0034
vn 0.0001 1.0000 -0.0029
vn 0.0006 1.0000 -0.0028
vn 0.0011 1.0000 -0.0030
vn 0.0015 1.0000 -0.0033
vn 0.0017 1.0000 -0.0037
vn 0.0018 1.0000 -0.0042
vn 0.2068 0.9548 -0.2137
vn 0.1670 0.9547 -0.2463
vn 0.1220 0.9547 -0.2715
vn 0.1221 0.9547 -0.2715
vn 0.0735 0.9546 -0.2886
vn 0.0226 0.9546 -0.2970
vn -0.0289 0.9546 -0.2964
vn -0.0795 0.9547 -0.2869
vn -0.1277 0.9547 -0.2687
vn -0.1720 0.9548 -0.2425
vn -0.2111 0.9549 -0.2089
vn -0.2438 0.9550 -0.1691
vn -0.2691 0.9551 -0.1242
vn -0.2862 0.9552 -0.0756
vn -0.2946 0.9553 -0.0247
vn -0.2940 0.9554 0.0268
vn -0.2846 0.9555 0.0775
vn -0.2845 0.9555 0.0775
vn -0.2664 0.9556 0.1257
vn -0.2401 0.9557 0.1701
vn -0.2066 0.9558 0.2092
vn -0.2065 0.9558 0.2093
vn -0.1667 0.9559 0.2420
vn -0.1217 0.9559 0.2672
vn -0.0731 0.9559 0.2843
vn -0.0222 0.9559 0.2927
vn 0.0294 0.9559 0.2921
vn 0.0801 0.9559 0.2826
vn 0.1283 0.9558 0.2644
vn 0.1727 0.9558 0.2381
vn 0.2118 0.9557 0.2044
vn 0.2118 0.9557 0.2045
vn 0.2445 0.9556 0.1645
vn 0.2444 0.9556 0.1646
vn 0.2697 0.9555 0.1196
vn 0.2867 0.9554 0.0709
vn 0.2867 0.9554 0.0710
vn 0.2951 0.9553 0.0201
vn 0.2944 0.9551 -0.0315
vn 0.2944 0.9551 -0.0314
vn 0.2849 0.9550 -0.0821
vn 0.2667 0.9549 -0.1303
vn 0.2404 0.9548 -0.1746
vn -0.2880 0.8610 0.4192
vn -0.2968 0.8591 -0.4169
vn -0.0499 0.8588 -0.5099
vn 0.2879 0.8589 -0.4235
vn 0.3566 0.8590 -0.3673
vn 0.3566 0.8590 -0.3672
vn 0.0003 1.0000 -0.0032
vn 0.0734 0.9546 -0.2886
vn 0.0003 1.0000 -0.0024
vn -0.0173 0.9991 -0.0388
vn -0.0170 0.9992 -0.0372
vn 0.0088 0.9985 -0.0545
vn -0.0067 1.0000 0.0054
vn -0.0079 1.0000 0.0039
vn -0.0186 0.9998 -0.0000
vn -0.0183 0.9998 0.0001
vn -0.0002 1.0000 -0.0034
vn -0.0004 1.0000 -0.0033
vn 0.0002 1.0000 -0.0008
vn -0.0000 1.0000 0.0015
vn -0.0000 1.0000 0.0017
vn -0.0003 1.0000 0.0003
vn -0.0006 1.0000 -0.0006
vn -0.0000 1.0000 -0.0014
vn -0.0004 1.0000 -0.0013
vn -0.0001 1.0000 -0.0016
vn -0.0005 1.0000 -0.0026
vn 0.0093 1.0000 -0.0003
vn 0.0089 1.0000 -0.0003
vn 0.0097 1.0000 -0.0004
vn 0.0136 0.9999 -0.0010
vn 0.0053 1.0000 0.0066
vn 0.0055 1.0000 0.0051
vn 0.0046 1.0000 0.0065
vn 0.0094 0.9999 0.0074
vn 0.0164 0.9995 -0.0285
vn 0.0041 0.9999 0.0119
vn 0.0169 0.9994 -0.0300
vn -0.5773 0.5773 -0.5774
vn 0.5773 0.5774 -0.5774
vn 0.5773 0.5774 0.5773
vn -0.5774 0.5773 -0.5774
vn -0.5773 0.5773 0.5774
vn 0.5773 0.5773 0.5774
vn 0.5774 0.5774 -0.5773
vn 0.5773 0.5773 -0.5774
vn 0.5773 0.5774 0.5774
vn -0.5774 0.5774 -0.5773
vn -0.5774 0.5773 0.5774
vn 0.5773 0.5774 -0.5773
vt 0.734568 0.075494
vt 0.734568 0.083150
vt 0.682458 0.083150
vt 0.682458 0.075494
vt 0.734568 0.198196
vt 0.734568 0.205851
vt 0.682458 0.205851
vt 0.682458 0.198196
vt 0.926916 0.756476
vt 0.927801 0.749043
vt 0.979899 0.749011
vt 0.980807 0.756622
vt 0.920172 0.749892
vt 0.920321 0.633169
vt 0.927849 0.634064
vt 0.926941 0.626453
vt 0.980832 0.626599
vt 0.979946 0.634032
vt 0.682458 0.388317
vt 0.682458 0.380662
vt 0.734568 0.380662
vt 0.734568 0.388317
vt 0.987427 0.749906
vt 0.987576 0.633183
vt 0.682458 0.265616
vt 0.682458 0.257961
vt 0.734568 0.257961
vt 0.734568 0.265616
vt 0.734568 0.023385
vt 0.682458 0.023385
vt 0.578597 0.102924
vt 0.575818 0.145226
vt 0.480437 0.106529
vt 0.103610 0.141965
vt 0.008059 0.102738
vt 0.097434 0.107520
vt 0.535265 0.582176
vt 0.576453 0.540040
vt 0.578345 0.585305
vt 0.580110 0.010951
vt 0.184256 0.104569
vt 0.222463 0.113265
vt 0.100306 0.583866
vt 0.108398 0.534246
vt 0.144091 0.543706
vt 0.158570 0.576563
vt 0.670132 0.099086
vt 0.668313 0.590280
vt 0.090836 0.664543
vt 0.581321 0.678201
vt 0.251058 0.180337
vt 0.282862 0.169079
vt 0.415362 0.179398
vt 0.444698 0.196063
vt 0.508377 0.273415
vt 0.519484 0.305620
vt 0.518511 0.407025
vt 0.506777 0.438904
vt 0.441533 0.514687
vt 0.411869 0.530783
vt 0.312714 0.545557
vt 0.279686 0.539098
vt 0.173753 0.463329
vt 0.194550 0.489003
vt 0.140637 0.369452
vt 0.140661 0.335843
vt 0.157753 0.271217
vt 0.174451 0.242347
vt 0.195996 0.217137
vt 0.221704 0.196476
vt 0.231450 0.210160
vt 0.207932 0.229197
vt 0.258221 0.195333
vt 0.287290 0.185079
vt 0.316170 0.163151
vt 0.317728 0.179716
vt 0.350018 0.162814
vt 0.348650 0.179483
vt 0.383437 0.168222
vt 0.379132 0.184505
vt 0.408222 0.194777
vt 0.434967 0.210020
vt 0.470495 0.217665
vt 0.458493 0.229781
vt 0.491889 0.243761
vt 0.478049 0.253569
vt 0.493125 0.280590
vt 0.503297 0.309943
vt 0.524931 0.339347
vt 0.508290 0.340672
vt 0.524604 0.373496
vt 0.507977 0.371812
vt 0.502382 0.402393
vt 0.491636 0.431458
vt 0.489701 0.468088
vt 0.476025 0.458070
vt 0.467802 0.493585
vt 0.455997 0.481359
vt 0.432062 0.500649
vt 0.405034 0.515381
vt 0.379814 0.541426
vt 0.375820 0.525160
vt 0.346400 0.546363
vt 0.345353 0.529728
vt 0.314589 0.529034
vt 0.284446 0.523136
vt 0.248319 0.527163
vt 0.255819 0.512315
vt 0.219709 0.510515
vt 0.229634 0.496966
vt 0.206629 0.477279
vt 0.187509 0.453799
vt 0.157468 0.434186
vt 0.172611 0.427205
vt 0.146301 0.402570
vt 0.162414 0.398349
vt 0.157249 0.368124
vt 0.157290 0.337453
vt 0.146392 0.302733
vt 0.162561 0.307272
vt 0.172972 0.278551
vt 0.188243 0.252232
vt 0.230104 0.251365
vt 0.249524 0.235530
vt 0.268472 0.262349
vt 0.253422 0.274673
vt 0.271542 0.223233
vt 0.285506 0.252784
vt 0.295460 0.214786
vt 0.303999 0.246243
vt 0.320526 0.210439
vt 0.323379 0.242921
vt 0.345973 0.210363
vt 0.343047 0.242937
vt 0.371011 0.214647
vt 0.362404 0.246321
vt 0.394901 0.223159
vt 0.380850 0.252993
vt 0.416864 0.235753
vt 0.397812 0.262786
vt 0.436208 0.252054
vt 0.412765 0.275419
vt 0.452335 0.271592
vt 0.425250 0.290518
vt 0.464781 0.293757
vt 0.434897 0.307618
vt 0.473191 0.317833
vt 0.441421 0.326182
vt 0.477327 0.343050
vt 0.444631 0.345626
vt 0.477070 0.368615
vt 0.444435 0.365342
vt 0.472437 0.393728
vt 0.440841 0.384714
vt 0.463557 0.417598
vt 0.433956 0.403135
vt 0.450679 0.439468
vt 0.423981 0.420031
vt 0.434173 0.458655
vt 0.411213 0.434879
vt 0.414524 0.474582
vt 0.396037 0.447231
vt 0.392356 0.486804
vt 0.378924 0.456720
vt 0.368355 0.494913
vt 0.360401 0.463067
vt 0.343309 0.498759
vt 0.341050 0.466107
vt 0.317987 0.498256
vt 0.321468 0.465770
vt 0.293159 0.493454
vt 0.302251 0.462086
vt 0.269577 0.484537
vt 0.283983 0.455180
vt 0.247961 0.471774
vt 0.267214 0.445259
vt 0.228947 0.455480
vt 0.252437 0.432604
vt 0.213074 0.436099
vt 0.240090 0.417574
vt 0.200758 0.414203
vt 0.230517 0.400619
vt 0.192353 0.390458
vt 0.223999 0.382251
vt 0.188118 0.365595
vt 0.220730 0.363028
vt 0.188191 0.340378
vt 0.220816 0.343540
vt 0.192594 0.315589
vt 0.224267 0.324387
vt 0.201225 0.292005
vt 0.230993 0.306160
vt 0.213849 0.270373
vt 0.240808 0.289422
vt 0.275317 0.272071
vt 0.261851 0.283109
vt 0.290548 0.263505
vt 0.307078 0.257656
vt 0.324399 0.254700
vt 0.341978 0.254737
vt 0.359275 0.257789
vt 0.375757 0.263781
vt 0.390916 0.272553
vt 0.404280 0.283858
vt 0.415445 0.297354
vt 0.424074 0.312630
vt 0.429912 0.329208
vt 0.432785 0.346571
vt 0.432611 0.364178
vt 0.429396 0.381478
vt 0.423236 0.397932
vt 0.414315 0.413029
vt 0.402902 0.426306
vt 0.389340 0.437357
vt 0.374049 0.445855
vt 0.357500 0.451551
vt 0.340206 0.454290
vt 0.322700 0.454005
vt 0.305515 0.450721
vt 0.289173 0.444544
vt 0.274165 0.435662
vt 0.260942 0.424331
vt 0.249879 0.410889
vt 0.241306 0.395726
vt 0.235472 0.379303
vt 0.232552 0.362119
vt 0.232638 0.344700
vt 0.235738 0.327579
vt 0.241767 0.311283
vt 0.250553 0.296306
vt 0.478642 0.425053
vt 0.464293 0.449466
vt 0.488530 0.398395
vt 0.493686 0.370346
vt 0.493976 0.341787
vt 0.489379 0.313614
vt 0.480018 0.286707
vt 0.466157 0.261937
vt 0.448185 0.240119
vt 0.426598 0.221953
vt 0.402071 0.207931
vt 0.375399 0.198444
vt 0.347423 0.193777
vt 0.319029 0.193932
vt 0.291071 0.198822
vt 0.264384 0.208241
vt 0.239817 0.221906
vt 0.218188 0.239483
vt 0.200088 0.260657
vt 0.186041 0.284801
vt 0.176452 0.311138
vt 0.171579 0.338819
vt 0.171523 0.366966
vt 0.176259 0.394709
vt 0.185627 0.421198
vt 0.199332 0.445614
vt 0.216969 0.467202
vt 0.238130 0.485324
vt 0.262206 0.499494
vt 0.288497 0.509431
vt 0.316183 0.514814
vt 0.344429 0.515415
vt 0.372380 0.511173
vt 0.399163 0.502142
vt 0.423943 0.488590
vt 0.445889 0.470856
vt 0.413001 0.392965
vt 0.405086 0.406346
vt 0.395439 0.399363
vt 0.402292 0.387768
vt 0.418465 0.378385
vt 0.407026 0.375144
vt 0.421317 0.363058
vt 0.409496 0.361878
vt 0.421470 0.347462
vt 0.409626 0.348381
vt 0.418918 0.332081
vt 0.407411 0.335071
vt 0.413737 0.317395
vt 0.402916 0.322359
vt 0.406080 0.303858
vt 0.396276 0.310640
vt 0.396176 0.291891
vt 0.387691 0.300273
vt 0.384328 0.281855
vt 0.377421 0.291578
vt 0.370887 0.274061
vt 0.365787 0.284802
vt 0.356277 0.268725
vt 0.353136 0.280156
vt 0.340944 0.265996
vt 0.339859 0.277771
vt 0.325361 0.265944
vt 0.326364 0.277707
vt 0.310005 0.268556
vt 0.313063 0.279959
vt 0.295348 0.273743
vt 0.300365 0.284454
vt 0.281839 0.281351
vt 0.288657 0.291054
vt 0.269890 0.291155
vt 0.278296 0.299563
vt 0.259860 0.302873
vt 0.269594 0.309729
vt 0.252052 0.316160
vt 0.262813 0.321249
vt 0.246690 0.330614
vt 0.258151 0.333777
vt 0.243929 0.345797
vt 0.255745 0.346933
vt 0.243843 0.361243
vt 0.255662 0.360317
vt 0.246431 0.376482
vt 0.257902 0.373522
vt 0.251609 0.391049
vt 0.262393 0.386147
vt 0.259224 0.404502
vt 0.269001 0.397810
vt 0.269051 0.416434
vt 0.277530 0.408159
vt 0.280797 0.426492
vt 0.287724 0.416884
vt 0.294120 0.434377
vt 0.299281 0.423723
vt 0.308622 0.439855
vt 0.311856 0.428470
vt 0.323866 0.442760
vt 0.325070 0.430980
vt 0.339391 0.442997
vt 0.338522 0.431172
vt 0.354723 0.440550
vt 0.351804 0.429036
vt 0.369392 0.435481
vt 0.364510 0.424626
vt 0.382946 0.427931
vt 0.376250 0.418071
vt 0.394968 0.418122
vt 0.386665 0.409565
vt 0.332666 0.354379
vt 0.090653 0.021866
vt 0.019880 0.593341
vt 0.357514 0.861617
vt 0.349859 0.861617
vt 0.349859 0.809507
vt 0.357514 0.809507
vt 0.223243 0.861617
vt 0.215588 0.861617
vt 0.215588 0.809508
vt 0.223243 0.809508
vt 0.849683 0.412808
vt 0.857090 0.413762
vt 0.856727 0.460330
vt 0.849112 0.461175
vt 0.856305 0.406125
vt 0.984579 0.407351
vt 0.983621 0.414879
vt 0.991237 0.414034
vt 0.990666 0.462401
vt 0.983259 0.461447
vt 0.027085 0.809508
vt 0.034741 0.809508
vt 0.034741 0.861617
vt 0.027086 0.861617
vt 0.855770 0.467858
vt 0.984044 0.469084
vt 0.161356 0.809508
vt 0.169011 0.809508
vt 0.169011 0.861617
vt 0.161356 0.861617
vt 0.404091 0.861617
vt 0.404091 0.809507
vt 0.850493 0.782425
vt 0.850493 0.790080
vt 0.798383 0.790080
vt 0.798383 0.782425
vt 0.850493 0.893652
vt 0.850493 0.901307
vt 0.798383 0.901307
vt 0.798383 0.893652
vt 0.447803 0.820467
vt 0.448613 0.813037
vt 0.496305 0.812470
vt 0.497302 0.820070
vt 0.440992 0.813979
vt 0.439972 0.708731
vt 0.447500 0.709552
vt 0.446503 0.701952
vt 0.496002 0.701555
vt 0.495192 0.708985
vt 0.798383 0.734707
vt 0.798383 0.727052
vt 0.850493 0.727052
vt 0.850493 0.734707
vt 0.503833 0.813291
vt 0.502813 0.708043
vt 0.798383 0.956679
vt 0.798383 0.949024
vt 0.850493 0.949024
vt 0.850493 0.956679
vt 0.798383 0.623480
vt 0.850493 0.623480
vt 0.803550 0.386616
vt 0.803550 0.378961
vt 0.855660 0.378961
vt 0.855660 0.386616
vt 0.803550 0.260373
vt 0.803550 0.252718
vt 0.855660 0.252718
vt 0.855660 0.260373
vt 0.816084 0.468001
vt 0.808673 0.467043
vt 0.809074 0.419339
vt 0.816691 0.418498
vt 0.809455 0.474681
vt 0.689203 0.473444
vt 0.690168 0.465922
vt 0.682551 0.466763
vt 0.683158 0.417260
vt 0.690569 0.418218
vt 0.855660 0.071102
vt 0.855660 0.078757
vt 0.803550 0.078757
vt 0.803550 0.071102
vt 0.810039 0.411817
vt 0.689787 0.410580
vt 0.855660 0.197345
vt 0.855660 0.205000
vt 0.803550 0.205000
vt 0.803550 0.197345
vt 0.803550 0.023385
vt 0.855660 0.023385
vt 0.665151 0.658012
vt 0.665151 0.650357
vt 0.717261 0.650357
vt 0.717261 0.658012
vt 0.665151 0.872991
vt 0.665151 0.865336
vt 0.717261 0.865336
vt 0.717261 0.872991
vt 0.412268 0.924916
vt 0.419681 0.925875
vt 0.419299 0.973563
vt 0.411680 0.974410
vt 0.418888 0.918236
vt 0.517147 0.919257
vt 0.516172 0.926760
vt 0.523792 0.925914
vt 0.523203 0.975407
vt 0.515790 0.974448
vt 0.717261 0.705730
vt 0.717261 0.713385
vt 0.665151 0.713385
vt 0.665151 0.705730
vt 0.418324 0.981066
vt 0.516583 0.982087
vt 0.717261 0.809963
vt 0.717261 0.817618
vt 0.665151 0.817618
vt 0.665151 0.809963
vt 0.665151 0.969569
vt 0.717261 0.969569
vt 0.155304 0.923329
vt 0.147649 0.923329
vt 0.147649 0.871219
vt 0.155304 0.871219
vt 0.029061 0.923329
vt 0.021406 0.923329
vt 0.021406 0.871219
vt 0.029061 0.871219
vt 0.980754 0.023444
vt 0.979878 0.030866
vt 0.932173 0.030992
vt 0.931248 0.023385
vt 0.987507 0.029999
vt 0.987599 0.150258
vt 0.980067 0.149376
vt 0.980992 0.156983
vt 0.931485 0.156923
vt 0.932362 0.149502
vt 0.203022 0.871219
vt 0.210677 0.871219
vt 0.210677 0.923329
vt 0.203022 0.923329
vt 0.924641 0.030110
vt 0.924733 0.150369
vt 0.329265 0.871219
vt 0.336920 0.871219
vt 0.336920 0.923329
vt 0.329265 0.923329
vt 0.384638 0.923329
vt 0.384638 0.871219
vt 0.192484 0.931511
vt 0.200139 0.931511
vt 0.200139 0.983621
vt 0.192484 0.983621
vt 0.307837 0.931511
vt 0.315492 0.931511
vt 0.315492 0.983621
vt 0.307837 0.983621
vt 0.026695 0.735323
vt 0.034118 0.736199
vt 0.034256 0.784248
vt 0.026647 0.785176
vt 0.033247 0.728570
vt 0.142622 0.728485
vt 0.141737 0.736009
vt 0.149345 0.735081
vt 0.149298 0.784934
vt 0.141874 0.784059
vt 0.144415 0.983621
vt 0.136760 0.983621
vt 0.136760 0.931511
vt 0.144415 0.931511
vt 0.033370 0.791772
vt 0.142746 0.791687
vt 0.029061 0.983621
vt 0.021406 0.983621
vt 0.021406 0.931511
vt 0.029061 0.931511
vt 0.363561 0.931511
vt 0.363561 0.983621
vt 0.934783 0.606763
vt 0.927128 0.606763
vt 0.927128 0.554654
vt 0.934783 0.554654
vt 0.843697 0.606763
vt 0.836042 0.606763
vt 0.836042 0.554654
vt 0.843697 0.554653
vt 0.930420 0.868407
vt 0.931379 0.860987
vt 0.980461 0.861369
vt 0.981311 0.868991
vt 0.923741 0.861788
vt 0.924640 0.776663
vt 0.932128 0.777644
vt 0.931278 0.770022
vt 0.982169 0.770606
vt 0.981210 0.778026
vt 0.688177 0.554653
vt 0.695833 0.554653
vt 0.695833 0.606763
vt 0.688177 0.606763
vt 0.987949 0.862350
vt 0.988849 0.777225
vt 0.779263 0.554653
vt 0.786918 0.554654
vt 0.786918 0.606763
vt 0.779263 0.606763
vt 0.983907 0.606763
vt 0.983907 0.554654
vt 0.743004 0.159058
vt 0.743004 0.151402
vt 0.795114 0.151402
vt 0.795114 0.159058
vt 0.743004 0.031040
vt 0.743004 0.023385
vt 0.795114 0.023385
vt 0.795114 0.031040
vt 0.979660 0.165172
vt 0.978786 0.172589
vt 0.932175 0.172736
vt 0.931246 0.165129
vt 0.986415 0.171719
vt 0.986570 0.293750
vt 0.979036 0.292871
vt 0.979965 0.300478
vt 0.931550 0.300435
vt 0.932424 0.293018
vt 0.795114 0.205681
vt 0.795114 0.213336
vt 0.743004 0.213336
vt 0.743004 0.205681
vt 0.924641 0.171857
vt 0.924795 0.293888
vt 0.795114 0.333699
vt 0.795114 0.341354
vt 0.743004 0.341354
vt 0.743004 0.333699
vt 0.743004 0.387977
vt 0.795114 0.387977
vt 0.916205 0.294726
vt 0.916205 0.302381
vt 0.864095 0.302381
vt 0.864095 0.294726
vt 0.916205 0.099855
vt 0.916205 0.107510
vt 0.864095 0.107510
vt 0.864095 0.099855
vt 0.624187 0.983275
vt 0.616771 0.982313
vt 0.617136 0.934647
vt 0.624759 0.933794
vt 0.617577 0.989952
vt 0.539407 0.989111
vt 0.540394 0.981632
vt 0.532771 0.982486
vt 0.533342 0.933004
vt 0.540758 0.933966
vt 0.864095 0.247008
vt 0.864095 0.239354
vt 0.916205 0.239354
vt 0.916205 0.247008
vt 0.618123 0.927168
vt 0.539952 0.926327
vt 0.864095 0.162883
vt 0.864095 0.155227
vt 0.916205 0.155227
vt 0.916205 0.162883
vt 0.916205 0.023385
vt 0.864095 0.023385
vt 0.932964 0.488690
vt 0.940619 0.488690
vt 0.940619 0.540800
vt 0.932964 0.540800
vt 0.991618 0.488690
vt 0.999273 0.488690
vt 0.999273 0.540800
vt 0.991618 0.540800
vt 0.867926 0.378683
vt 0.868814 0.371267
vt 0.912022 0.371030
vt 0.912984 0.378649
vt 0.861184 0.372192
vt 0.861171 0.319465
vt 0.868609 0.320387
vt 0.867646 0.312768
vt 0.912705 0.312733
vt 0.911817 0.320150
vt 0.889655 0.540800
vt 0.881999 0.540800
vt 0.881999 0.488690
vt 0.889655 0.488690
vt 0.919460 0.371951
vt 0.919447 0.319224
vt 0.831000 0.540800
vt 0.823345 0.540800
vt 0.823345 0.488690
vt 0.831000 0.488690
vt 0.780036 0.488690
vt 0.780036 0.540800
vt 0.908812 0.678750
vt 0.908812 0.686405
vt 0.856702 0.686406
vt 0.856702 0.678750
vt 0.908812 0.749821
vt 0.908812 0.757476
vt 0.856702 0.757476
vt 0.856702 0.749821
vt 0.938331 0.964344
vt 0.930898 0.963383
vt 0.931293 0.910799
vt 0.938920 0.909945
vt 0.931711 0.971020
vt 0.866575 0.970284
vt 0.867569 0.962829
vt 0.859941 0.963684
vt 0.860530 0.909285
vt 0.867963 0.910246
vt 0.856702 0.888854
vt 0.856702 0.881198
vt 0.908812 0.881198
vt 0.908812 0.888854
vt 0.932287 0.903344
vt 0.867151 0.902608
vt 0.856702 0.817783
vt 0.856702 0.810128
vt 0.908812 0.810128
vt 0.908812 0.817783
vt 0.908812 0.626099
vt 0.856702 0.626098
vt 0.787720 0.794710
vt 0.787720 0.802365
vt 0.735611 0.802365
vt 0.735611 0.794710
vt 0.787720 0.910299
vt 0.787720 0.917954
vt 0.735611 0.917954
vt 0.735611 0.910299
vt 0.643372 0.814639
vt 0.635955 0.813750
vt 0.635892 0.767146
vt 0.643501 0.766229
vt 0.636816 0.821381
vt 0.527204 0.821298
vt 0.528103 0.813775
vt 0.520493 0.814692
vt 0.520622 0.766282
vt 0.528040 0.767171
vt 0.735611 0.748086
vt 0.735611 0.740431
vt 0.787720 0.740431
vt 0.787720 0.748086
vt 0.636790 0.759623
vt 0.527179 0.759540
vt 0.735611 0.632497
vt 0.735611 0.624842
vt 0.787720 0.624842
vt 0.787720 0.632497
vt 0.787720 0.964578
vt 0.735611 0.964578
vt 0.532760 0.838504
vt 0.540415 0.838504
vt 0.540415 0.890614
vt 0.532760 0.890614
vt 0.988586 0.364694
vt 0.981166 0.363725
vt 0.981445 0.316618
vt 0.989076 0.315743
vt 0.932272 0.363369
vt 0.924641 0.364244
vt 0.925131 0.315293
vt 0.932551 0.316262
vt 0.651939 0.890614
vt 0.644284 0.890614
vt 0.644284 0.838504
vt 0.651939 0.838504
vt 0.982448 0.309197
vt 0.931713 0.308625
vt 0.595281 0.890614
vt 0.587626 0.890614
vt 0.587626 0.838504
vt 0.595281 0.838504
vt 0.428891 0.838504
vt 0.476102 0.838504
vt 0.476102 0.890614
vt 0.428891 0.890614
vt 0.931268 0.370790
s 1
g polySurface326_lambert1
usemtl lambert1
f 2/1/1 1/2/1 6/3/1 5/4/1
f 4/5/2 3/6/2 10/7/2 9/8/2
f 5/9/3 7/10/3 12/11/3 11/12/3
f 7/10/4 6/13/4 9/14/4 8/15/4
f 8/15/5 10/16/5 16/17/5 15/18/5
f 11/19/6 13/20/6 18/21/6 17/22/6
f 13/23/7 12/11/7 15/18/7 14/24/7
f 14/25/8 16/26/8 20/27/8 19/28/8
f 1/2/9 4/5/9 9/8/9 6/3/9
f 7/10/10 8/15/10 15/18/10 12/11/10
f 13/20/11 14/25/11 19/28/11 18/21/11
f 3/6/12 20/27/12 16/26/12 10/7/12
f 17/29/13 2/1/13 5/4/13 11/30/13
f 5/9/14 6/13/14 7/10/14
f 8/15/15 9/14/15 10/16/15
f 11/12/16 12/11/16 13/23/16
f 14/24/17 15/18/17 16/17/17
f 26/31/18 27/32/18 25/33/18
f 28/34/13 21/35/13 30/36/13
f 38/37/19 37/38/19 36/39/19
f 25/33/9 22/40/9 26/31/9
f 31/41/20 29/42/20 28/34/20
f 28/34/21 30/36/21 31/41/21
f 34/43/22 33/44/22 35/45/22
f 34/43/23 35/45/23 32/46/23
f 22/47/12 24/48/12 37/38/12 27/32/12
f 23/49/11 32/46/11 38/37/11 24/50/11
f 48/51/24 29/42/25 66/52/26
f 67/53/27 25/33/28 41/54/29
f 59/55/30 27/32/31 42/56/32
f 69/57/33 37/38/34 43/58/35
f 61/59/36 38/37/37 44/60/38
f 62/61/39 32/46/40 45/62/41
f 46/63/42 72/64/43 35/45/44 33/44/45
f 73/65/46 33/44/45 47/66/47
f 56/67/48 28/34/49 65/68/50
f 39/69/51 57/70/52 235/71/52 236/72/53
f 57/70/52 48/51/54 234/73/54 235/71/52
f 48/51/54 66/52/55 233/74/56 234/73/54
f 66/52/55 40/75/57 232/76/57 233/74/56
f 40/75/57 58/77/58 231/78/58 232/76/57
f 58/77/58 49/79/59 230/80/60 231/78/58
f 49/79/59 67/53/61 229/81/61 230/80/60
f 67/53/61 41/54/62 228/82/63 229/81/61
f 41/54/62 68/83/64 227/84/65 228/82/63
f 68/83/64 50/85/66 226/86/67 227/84/65
f 50/85/66 59/55/68 225/87/69 226/86/67
f 59/55/68 42/56/70 224/88/71 225/87/69
f 42/56/70 60/89/72 223/90/73 224/88/71
f 60/89/72 51/91/74 222/92/75 223/90/73
f 51/91/74 69/57/76 221/93/77 222/92/75
f 69/57/76 43/58/78 220/94/79 221/93/77
f 43/58/78 70/95/80 219/96/81 220/94/79
f 70/95/80 52/97/82 254/98/82 219/96/81
f 52/97/82 61/59/83 253/99/83 254/98/82
f 61/59/83 44/60/84 252/100/85 253/99/83
f 44/60/84 71/101/86 251/102/86 252/100/85
f 71/101/86 53/103/87 250/104/87 251/102/86
f 53/103/87 62/61/88 249/105/88 250/104/87
f 62/61/88 45/62/89 248/106/90 249/105/88
f 45/62/89 63/107/91 247/108/91 248/106/90
f 63/107/91 54/109/92 246/110/93 247/108/91
f 54/109/92 72/64/94 245/111/95 246/110/93
f 72/64/94 46/63/96 244/112/97 245/111/95
f 46/63/96 64/113/98 243/114/99 244/112/97
f 64/113/98 55/115/100 242/116/101 243/114/99
f 55/115/100 73/65/102 241/117/103 242/116/101
f 73/65/102 47/66/104 240/118/105 241/117/103
f 47/66/104 74/119/106 239/120/107 240/118/105
f 74/119/106 56/67/108 238/121/109 239/120/107
f 56/67/108 65/68/110 237/122/111 238/121/109
f 65/68/110 39/69/51 236/72/53 237/122/111
f 75/123/112 76/124/112 112/125/112 111/126/112
f 76/124/113 77/127/113 113/128/113 112/125/113
f 77/127/114 78/129/114 114/130/114 113/128/114
f 78/129/115 79/131/115 115/132/115 114/130/115
f 79/131/116 80/133/116 116/134/116 115/132/116
f 80/133/117 81/135/117 117/136/117 116/134/117
f 81/135/118 82/137/118 118/138/118 117/136/118
f 82/137/119 83/139/119 119/140/119 118/138/119
f 83/139/120 84/141/120 120/142/120 119/140/120
f 84/141/121 85/143/121 121/144/121 120/142/121
f 85/143/122 86/145/122 122/146/122 121/144/122
f 86/145/45 87/147/45 123/148/45 122/146/45
f 87/147/123 88/149/123 124/150/123 123/148/123
f 88/149/124 89/151/124 125/152/124 124/150/124
f 89/151/125 90/153/125 126/154/125 125/152/125
f 90/153/126 91/155/126 127/156/126 126/154/126
f 91/155/127 92/157/127 128/158/127 127/156/127
f 92/157/128 93/159/128 129/160/128 128/158/128
f 93/159/112 94/161/112 130/162/112 129/160/112
f 94/161/113 95/163/113 131/164/113 130/162/113
f 95/163/114 96/165/114 132/166/114 131/164/114
f 96/165/115 97/167/115 133/168/115 132/166/115
f 97/167/116 98/169/116 134/170/116 133/168/116
f 98/169/117 99/171/117 135/172/117 134/170/117
f 99/171/118 100/173/118 136/174/118 135/172/118
f 100/173/119 101/175/119 137/176/119 136/174/119
f 101/175/120 102/177/120 138/178/120 137/176/120
f 102/177/121 103/179/121 139/180/121 138/178/121
f 103/179/122 104/181/122 140/182/122 139/180/122
f 104/181/45 105/183/45 141/184/45 140/182/45
f 105/183/123 106/185/123 142/186/123 141/184/123
f 106/185/124 107/187/124 143/188/124 142/186/124
f 107/187/125 108/189/125 144/190/125 143/188/125
f 108/189/126 109/191/126 145/192/126 144/190/126
f 109/191/127 110/193/127 146/194/127 145/192/127
f 110/193/128 75/123/128 111/126/128 146/194/128
f 111/126/129 112/125/130 307/195/130 308/196/129
f 112/125/130 113/128/131 306/197/132 307/195/130
f 113/128/131 114/130/133 305/198/133 306/197/132
f 114/130/133 115/132/134 304/199/134 305/198/133
f 115/132/134 116/134/135 303/200/135 304/199/134
f 116/134/135 117/136/136 302/201/136 303/200/135
f 117/136/136 118/138/137 301/202/137 302/201/136
f 118/138/137 119/140/138 300/203/138 301/202/137
f 119/140/138 120/142/139 299/204/139 300/203/138
f 120/142/139 121/144/140 298/205/140 299/204/139
f 121/144/140 122/146/141 297/206/141 298/205/140
f 122/146/141 123/148/142 296/207/142 297/206/141
f 123/148/142 124/150/143 295/208/143 296/207/142
f 124/150/143 125/152/144 294/209/144 295/208/143
f 125/152/144 126/154/145 293/210/146 294/209/144
f 126/154/145 127/156/147 292/211/147 293/210/146
f 127/156/147 128/158/148 291/212/148 292/211/147
f 128/158/148 129/160/149 326/213/150 291/212/148
f 129/160/149 130/162/151 325/214/151 326/213/150
f 130/162/151 131/164/152 324/215/152 325/214/151
f 131/164/152 132/166/153 323/216/153 324/215/152
f 132/166/153 133/168/154 322/217/154 323/216/153
f 133/168/154 134/170/155 321/218/155 322/217/154
f 134/170/155 135/172/156 320/219/156 321/218/155
f 135/172/156 136/174/157 319/220/157 320/219/156
f 136/174/157 137/176/158 318/221/158 319/220/157
f 137/176/158 138/178/159 317/222/160 318/221/158
f 138/178/159 139/180/161 316/223/162 317/222/160
f 139/180/161 140/182/163 315/224/163 316/223/162
f 140/182/163 141/184/164 314/225/165 315/224/163
f 141/184/164 142/186/166 313/226/166 314/225/165
f 142/186/166 143/188/167 312/227/168 313/226/166
f 143/188/167 144/190/169 311/228/169 312/227/168
f 144/190/169 145/192/170 310/229/170 311/228/169
f 145/192/170 146/194/171 309/230/171 310/229/170
f 146/194/171 111/126/129 308/196/129 309/230/171
f 184/231/108 183/232/110 92/157/111 91/155/109
f 185/233/106 184/231/108 91/155/109 90/153/107
f 186/234/104 185/233/106 90/153/107 89/151/105
f 187/235/102 186/234/104 89/151/105 88/149/103
f 188/236/100 187/235/102 88/149/103 87/147/101
f 189/237/98 188/236/100 87/147/101 86/145/99
f 190/238/96 189/237/98 86/145/99 85/143/97
f 191/239/94 190/238/96 85/143/97 84/141/95
f 192/240/92 191/239/94 84/141/95 83/139/93
f 193/241/91 192/240/92 83/139/93 82/137/91
f 194/242/89 193/241/91 82/137/91 81/135/90
f 195/243/88 194/242/89 81/135/90 80/133/88
f 196/244/87 195/243/88 80/133/88 79/131/87
f 197/245/86 196/244/87 79/131/87 78/129/86
f 198/246/84 197/245/86 78/129/86 77/127/85
f 199/247/83 198/246/84 77/127/85 76/124/172
f 200/248/82 199/247/83 76/124/172 75/123/82
f 201/249/80 200/248/82 75/123/82 110/193/81
f 202/250/78 201/249/80 110/193/81 109/191/79
f 203/251/76 202/250/78 109/191/79 108/189/77
f 204/252/74 203/251/76 108/189/77 107/187/75
f 205/253/72 204/252/74 107/187/75 106/185/73
f 206/254/70 205/253/72 106/185/73 105/183/71
f 207/255/68 206/254/70 105/183/71 104/181/69
f 208/256/66 207/255/68 104/181/69 103/179/67
f 209/257/64 208/256/66 103/179/67 102/177/65
f 210/258/173 209/257/64 102/177/65 101/175/63
f 211/259/61 210/258/173 101/175/63 100/173/61
f 212/260/59 211/259/61 100/173/61 99/171/60
f 213/261/174 212/260/59 99/171/60 98/169/58
f 214/262/57 213/261/174 98/169/58 97/167/57
f 215/263/55 214/262/57 97/167/57 96/165/56
f 216/264/54 215/263/55 96/165/56 95/163/54
f 217/265/52 216/264/54 95/163/54 94/161/175
f 218/266/176 217/265/52 94/161/175 93/159/177
f 183/232/110 218/266/176 93/159/177 92/157/111
f 220/94/178 219/96/178 183/232/178 184/231/178
f 221/93/178 220/94/178 184/231/178 185/233/178
f 222/92/178 221/93/178 185/233/178 186/234/178
f 223/90/178 222/92/178 186/234/178 187/235/178
f 224/88/178 223/90/178 187/235/178 188/236/178
f 225/87/178 224/88/178 188/236/178 189/237/178
f 226/86/178 225/87/178 189/237/178 190/238/178
f 227/84/178 226/86/178 190/238/178 191/239/178
f 228/82/178 227/84/178 191/239/178 192/240/178
f 229/81/178 228/82/178 192/240/178 193/241/178
f 230/80/178 229/81/178 193/241/178 194/242/178
f 231/78/178 230/80/178 194/242/178 195/243/178
f 232/76/178 231/78/178 195/243/178 196/244/178
f 233/74/178 232/76/178 196/244/178 197/245/178
f 234/73/178 233/74/178 197/245/178 198/246/178
f 235/71/178 234/73/178 198/246/178 199/247/178
f 236/72/178 235/71/178 199/247/178 200/248/178
f 237/122/178 236/72/178 200/248/178 201/249/178
f 238/121/178 237/122/178 201/249/178 202/250/178
f 239/120/178 238/121/178 202/250/178 203/251/178
f 240/118/178 239/120/178 203/251/178 204/252/178
f 241/117/178 240/118/178 204/252/178 205/253/178
f 242/116/178 241/117/178 205/253/178 206/254/178
f 243/114/178 242/116/178 206/254/178 207/255/178
f 244/112/178 243/114/178 207/255/178 208/256/178
f 245/111/178 244/112/178 208/256/178 209/257/178
f 246/110/178 245/111/178 209/257/178 210/258/178
f 247/108/178 246/110/178 210/258/178 211/259/178
f 248/106/178 247/108/178 211/259/178 212/260/178
f 249/105/178 248/106/178 212/260/178 213/261/178
f 250/104/178 249/105/178 213/261/178 214/262/178
f 251/102/178 250/104/178 214/262/178 215/263/178
f 252/100/178 251/102/178 215/263/178 216/264/178
f 253/99/178 252/100/178 216/264/178 217/265/178
f 254/98/178 253/99/178 217/265/178 218/266/178
f 219/96/178 254/98/178 218/266/178 183/232/178
f 256/267/170 255/268/171 164/269/171 163/270/170
f 257/271/169 256/267/170 163/270/170 162/272/169
f 258/273/167 257/271/169 162/272/169 161/274/168
f 259/275/166 258/273/167 161/274/168 160/276/166
f 260/277/164 259/275/166 160/276/166 159/278/165
f 261/279/163 260/277/164 159/278/165 158/280/163
f 262/281/161 261/279/163 158/280/163 157/282/162
f 263/283/159 262/281/161 157/282/162 156/284/159
f 264/285/158 263/283/159 156/284/159 155/286/158
f 265/287/157 264/285/158 155/286/158 154/288/157
f 266/289/156 265/287/157 154/288/157 153/290/156
f 267/291/155 266/289/156 153/290/156 152/292/155
f 268/293/154 267/291/155 152/292/155 151/294/154
f 269/295/153 268/293/154 151/294/154 150/296/153
f 270/297/152 269/295/153 150/296/153 149/298/152
f 271/299/151 270/297/152 149/298/152 148/300/151
f 272/301/149 271/299/151 148/300/151 147/302/150
f 273/303/148 272/301/149 147/302/150 182/304/148
f 274/305/147 273/303/148 182/304/148 181/306/147
f 275/307/145 274/305/147 181/306/147 180/308/146
f 276/309/144 275/307/145 180/308/146 179/310/144
f 277/311/143 276/309/144 179/310/144 178/312/143
f 278/313/142 277/311/143 178/312/143 177/314/142
f 279/315/141 278/313/142 177/314/142 176/316/141
f 280/317/140 279/315/141 176/316/141 175/318/140
f 281/319/139 280/317/140 175/318/140 174/320/139
f 282/321/138 281/319/139 174/320/139 173/322/138
f 283/323/137 282/321/138 173/322/138 172/324/137
f 284/325/136 283/323/137 172/324/137 171/326/136
f 285/327/135 284/325/136 171/326/136 170/328/135
f 286/329/134 285/327/135 170/328/135 169/330/134
f 287/331/179 286/329/134 169/330/134 168/332/133
f 288/333/131 287/331/179 168/332/133 167/334/132
f 289/335/130 288/333/131 167/334/132 166/336/130
f 290/337/129 289/335/130 166/336/130 165/338/129
f 255/268/171 290/337/129 165/338/129 164/269/171
f 292/211/180 291/212/180 255/268/180 256/267/180
f 293/210/180 292/211/180 256/267/180 257/271/180
f 294/209/180 293/210/180 257/271/180 258/273/180
f 295/208/180 294/209/180 258/273/180 259/275/180
f 296/207/180 295/208/180 259/275/180 260/277/180
f 297/206/180 296/207/180 260/277/180 261/279/180
f 298/205/180 297/206/180 261/279/180 262/281/180
f 299/204/180 298/205/180 262/281/180 263/283/180
f 300/203/180 299/204/180 263/283/180 264/285/180
f 301/202/180 300/203/180 264/285/180 265/287/180
f 302/201/180 301/202/180 265/287/180 266/289/180
f 303/200/180 302/201/180 266/289/180 267/291/180
f 304/199/180 303/200/180 267/291/180 268/293/180
f 305/198/180 304/199/180 268/293/180 269/295/180
f 306/197/180 305/198/180 269/295/180 270/297/180
f 307/195/180 306/197/180 270/297/180 271/299/180
f 308/196/180 307/195/180 271/299/180 272/301/180
f 309/230/180 308/196/180 272/301/180 273/303/180
f 310/229/180 309/230/180 273/303/180 274/305/180
f 311/228/180 310/229/180 274/305/180 275/307/180
f 312/227/180 311/228/180 275/307/180 276/309/180
f 313/226/180 312/227/180 276/309/180 277/311/180
f 314/225/180 313/226/180 277/311/180 278/313/180
f 315/224/180 314/225/180 278/313/180 279/315/180
f 316/223/180 315/224/180 279/315/180 280/317/180
f 317/222/180 316/223/180 280/317/180 281/319/180
f 318/221/180 317/222/180 281/319/180 282/321/180
f 319/220/180 318/221/180 282/321/180 283/323/180
f 320/219/180 319/220/180 283/323/180 284/325/180
f 321/218/180 320/219/180 284/325/180 285/327/180
f 322/217/180 321/218/180 285/327/180 286/329/180
f 323/216/180 322/217/180 286/329/180 287/331/180
f 324/215/180 323/216/180 287/331/180 288/333/180
f 325/214/180 324/215/180 288/333/180 289/335/180
f 326/213/180 325/214/180 289/335/180 290/337/180
f 291/212/180 326/213/180 290/337/180 255/268/180
f 28/34/181 29/42/25 48/51/24 57/70/182
f 66/52/26 29/42/25 40/75/183
f 28/34/181 57/70/182 39/69/184
f 65/68/50 28/34/49 39/69/185
f 33/44/186 28/34/49 74/119/187 47/66/186
f 74/119/187 28/34/49 56/67/48
f 64/113/188 33/44/45 55/115/189
f 55/115/189 33/44/45 73/65/46
f 46/63/42 33/44/45 64/113/188
f 54/109/178 35/45/44 72/64/43
f 32/46/190 35/45/44 63/107/190 45/62/190
f 63/107/190 35/45/44 54/109/178
f 38/37/191 32/46/40 62/61/39 53/103/192
f 38/37/191 53/103/192 71/101/193
f 38/37/191 71/101/193 44/60/194
f 37/38/195 38/37/37 52/97/196 70/95/197
f 52/97/196 38/37/37 61/59/36
f 37/38/195 70/95/197 43/58/198
f 27/32/199 37/38/34 51/91/200 60/89/201
f 51/91/200 37/38/34 69/57/33
f 27/32/199 60/89/201 42/56/202
f 25/33/203 27/32/31 50/85/204 68/83/205
f 50/85/204 27/32/31 59/55/30
f 25/33/203 68/83/205 41/54/206
f 58/77/207 25/33/28 49/79/208
f 49/79/208 25/33/28 67/53/27
f 29/42/209 25/33/28 58/77/207 40/75/209
f 147/302/180 148/300/180 327/339/180
f 148/300/180 149/298/180 327/339/180
f 149/298/180 150/296/180 327/339/180
f 150/296/180 151/294/180 327/339/180
f 151/294/180 152/292/180 327/339/180
f 152/292/180 153/290/180 327/339/180
f 153/290/180 154/288/180 327/339/180
f 154/288/180 155/286/180 327/339/180
f 155/286/180 156/284/180 327/339/180
f 156/284/180 157/282/180 327/339/180
f 157/282/180 158/280/180 327/339/180
f 158/280/180 159/278/180 327/339/180
f 159/278/180 160/276/180 327/339/180
f 160/276/180 161/274/180 327/339/180
f 161/274/180 162/272/180 327/339/180
f 162/272/180 163/270/180 327/339/180
f 163/270/180 164/269/180 327/339/180
f 164/269/180 165/338/180 327/339/180
f 165/338/180 166/336/180 327/339/180
f 166/336/180 167/334/180 327/339/180
f 167/334/180 168/332/180 327/339/180
f 168/332/180 169/330/180 327/339/180
f 169/330/180 170/328/180 327/339/180
f 170/328/180 171/326/180 327/339/180
f 171/326/180 172/324/180 327/339/180
f 172/324/180 173/322/180 327/339/180
f 173/322/180 174/320/180 327/339/180
f 174/320/180 175/318/180 327/339/180
f 175/318/180 176/316/180 327/339/180
f 176/316/180 177/314/180 327/339/180
f 177/314/180 178/312/180 327/339/180
f 178/312/180 179/310/180 327/339/180
f 179/310/180 180/308/180 327/339/180
f 180/308/180 181/306/180 327/339/180
f 181/306/180 182/304/180 327/339/180
f 182/304/180 147/302/180 327/339/180
f 21/340/9 22/40/9 25/33/9 29/42/9
f 21/340/9 29/42/9 31/41/9 30/36/9
f 23/341/13 21/35/13 28/34/13 33/44/13
f 23/341/13 33/44/13 34/43/13
f 34/43/11 32/46/11 23/49/11
f 24/50/11 38/37/11 36/39/11
f 37/38/12 24/48/12 36/39/12
f 22/47/12 27/32/12 26/31/12
f 329/342/6 328/343/6 333/344/6 332/345/6
f 331/346/1 330/347/1 337/348/1 336/349/1
f 332/350/7 334/351/7 339/352/7 338/353/7
f 334/351/3 333/354/3 336/355/3 335/356/3
f 335/356/4 337/357/4 343/358/4 342/359/4
f 338/360/8 340/361/8 345/362/8 344/363/8
f 340/364/5 339/352/5 342/359/5 341/365/5
f 341/366/2 343/367/2 347/368/2 346/369/2
f 328/343/13 331/346/13 336/349/13 333/344/13
f 334/351/10 335/356/10 342/359/10 339/352/10
f 340/361/12 341/366/12 346/369/12 345/362/12
f 330/347/9 347/368/9 343/367/9 337/348/9
f 344/370/11 329/342/11 332/345/11 338/371/11
f 332/350/210 333/354/210 334/351/210
f 335/356/14 336/355/14 337/357/14
f 338/353/211 339/352/211 340/364/211
f 341/365/212 342/359/212 343/358/212
f 349/372/1 348/373/1 353/374/1 352/375/1
f 351/376/2 350/377/2 357/378/2 356/379/2
f 352/380/3 354/381/3 359/382/3 358/383/3
f 354/381/4 353/384/4 356/385/4 355/386/4
f 355/386/5 357/387/5 363/388/5 362/389/5
f 358/390/6 360/391/6 365/392/6 364/393/6
f 360/394/7 359/382/7 362/389/7 361/395/7
f 361/396/8 363/397/8 367/398/8 366/399/8
f 348/373/9 351/376/9 356/379/9 353/374/9
f 354/381/10 355/386/10 362/389/10 359/382/10
f 360/391/11 361/400/11 366/401/11 365/392/11
f 350/377/12 367/398/12 363/397/12 357/378/12
f 364/393/13 349/372/13 352/375/13 358/390/13
f 352/380/14 353/384/14 354/381/14
f 355/386/15 356/385/15 357/387/15
f 358/383/213 359/382/213 360/394/213
f 361/395/211 362/389/211 363/388/211
f 369/402/1 368/403/1 373/404/1 372/405/1
f 371/406/2 370/407/2 377/408/2 376/409/2
f 372/410/3 374/411/3 379/412/3 378/413/3
f 374/411/4 373/414/4 376/415/4 375/416/4
f 375/416/5 377/417/5 383/418/5 382/419/5
f 378/420/6 380/421/6 385/422/6 384/423/6
f 380/424/7 379/412/7 382/419/7 381/425/7
f 381/426/8 383/427/8 387/428/8 386/429/8
f 368/403/9 371/406/9 376/409/9 373/404/9
f 374/411/10 375/416/10 382/419/10 379/412/10
f 380/421/11 381/426/11 386/429/11 385/422/11
f 370/407/12 387/428/12 383/427/12 377/408/12
f 384/423/13 369/430/13 372/431/13 378/420/13
f 372/410/214 373/414/214 374/411/214
f 375/416/215 376/415/215 377/417/215
f 378/413/210 379/412/210 380/424/210
f 381/425/211 382/419/211 383/418/211
f 389/432/1 388/433/1 393/434/1 392/435/1
f 391/436/2 390/437/2 397/438/2 396/439/2
f 392/440/3 394/441/3 399/442/3 398/443/3
f 394/441/4 393/444/4 396/445/4 395/446/4
f 395/446/5 397/447/5 403/448/5 402/449/5
f 398/450/6 400/451/6 405/452/6 404/453/6
f 400/454/7 399/442/7 402/449/7 401/455/7
f 401/456/8 403/457/8 407/458/8 406/459/8
f 388/460/9 391/436/9 396/439/9 393/461/9
f 394/441/10 395/446/10 402/449/10 399/442/10
f 400/451/11 401/456/11 406/459/11 405/452/11
f 390/437/12 407/458/12 403/457/12 397/438/12
f 404/453/13 389/432/13 392/435/13 398/450/13
f 392/440/14 393/444/14 394/441/14
f 395/446/15 396/445/15 397/447/15
f 398/443/213 399/442/213 400/454/213
f 401/455/211 402/449/211 403/448/211
f 409/462/6 408/463/6 413/464/6 412/465/6
f 411/466/1 410/467/1 417/468/1 416/469/1
f 412/470/7 414/471/7 419/472/7 418/473/7
f 414/471/3 413/474/3 416/475/3 415/476/3
f 415/476/4 417/477/4 423/478/4 422/479/4
f 418/480/8 420/481/8 425/482/8 424/483/8
f 420/484/5 419/472/5 422/479/5 421/485/5
f 421/486/2 423/487/2 427/488/2 426/489/2
f 408/463/13 411/466/13 416/469/13 413/464/13
f 414/471/10 415/476/10 422/479/10 419/472/10
f 420/481/12 421/486/12 426/489/12 425/482/12
f 410/490/9 427/488/9 423/487/9 417/491/9
f 424/483/11 409/462/11 412/465/11 418/480/11
f 412/470/213 413/474/213 414/471/213
f 415/476/214 416/475/214 417/477/214
f 418/473/216 419/472/216 420/484/216
f 421/485/215 422/479/215 423/478/215
f 429/492/1 428/493/1 433/494/1 432/495/1
f 431/496/2 430/497/2 437/498/2 436/499/2
f 432/500/3 434/501/3 439/502/3 438/503/3
f 434/501/4 433/504/4 436/505/4 435/506/4
f 435/506/5 437/507/5 443/508/5 442/509/5
f 438/510/6 440/511/6 445/512/6 444/513/6
f 440/514/7 439/502/7 442/509/7 441/515/7
f 441/516/8 443/517/8 447/518/8 446/519/8
f 428/493/9 431/496/9 436/499/9 433/494/9
f 434/501/10 435/506/10 442/509/10 439/502/10
f 440/511/11 441/516/11 446/519/11 445/512/11
f 430/497/12 447/520/12 443/521/12 437/498/12
f 444/513/13 429/492/13 432/495/13 438/510/13
f 432/500/14 433/504/14 434/501/14
f 435/506/15 436/505/15 437/507/15
f 438/503/210 439/502/210 440/514/210
f 441/515/217 442/509/217 443/508/217
f 449/522/6 448/523/6 453/524/6 452/525/6
f 451/526/1 450/527/1 457/528/1 456/529/1
f 452/530/7 454/531/7 459/532/7 458/533/7
f 454/531/3 453/534/3 456/535/3 455/536/3
f 455/536/4 457/537/4 463/538/4 462/539/4
f 458/540/8 460/541/8 465/542/8 464/543/8
f 460/544/5 459/532/5 462/539/5 461/545/5
f 461/546/2 463/547/2 467/548/2 466/549/2
f 448/523/13 451/526/13 456/529/13 453/524/13
f 454/531/10 455/536/10 462/539/10 459/532/10
f 460/541/12 461/546/12 466/549/12 465/542/12
f 450/527/9 467/548/9 463/547/9 457/528/9
f 464/550/11 449/522/11 452/525/11 458/551/11
f 452/530/210 453/534/210 454/531/210
f 455/536/214 456/535/214 457/537/214
f 458/533/211 459/532/211 460/544/211
f 461/545/218 462/539/218 463/538/218
f 469/552/6 468/553/6 473/554/6 472/555/6
f 471/556/1 470/557/1 477/558/1 476/559/1
f 472/560/7 474/561/7 479/562/7 478/563/7
f 474/561/3 473/564/3 476/565/3 475/566/3
f 475/566/4 477/567/4 483/568/4 482/569/4
f 478/570/8 480/571/8 485/572/8 484/573/8
f 480/574/5 479/562/5 482/569/5 481/575/5
f 481/576/2 483/577/2 487/578/2 486/579/2
f 468/553/13 471/556/13 476/559/13 473/554/13
f 474/561/10 475/566/10 482/569/10 479/562/10
f 480/571/12 481/576/12 486/579/12 485/572/12
f 470/580/9 487/578/9 483/577/9 477/581/9
f 484/573/11 469/552/11 472/555/11 478/570/11
f 472/560/219 473/564/219 474/561/219
f 475/566/14 476/565/14 477/567/14
f 478/563/17 479/562/17 480/574/17
f 481/575/15 482/569/15 483/568/15
f 489/582/1 488/583/1 493/584/1 492/585/1
f 491/586/2 490/587/2 497/588/2 496/589/2
f 492/590/3 494/591/3 499/592/3 498/593/3
f 494/591/4 493/594/4 496/595/4 495/596/4
f 495/596/5 497/597/5 503/598/5 502/599/5
f 498/600/6 500/601/6 505/602/6 504/603/6
f 500/604/7 499/592/7 502/599/7 501/605/7
f 501/606/8 503/607/8 507/608/8 506/609/8
f 488/610/9 491/586/9 496/589/9 493/611/9
f 494/591/10 495/596/10 502/599/10 499/592/10
f 500/601/11 501/606/11 506/609/11 505/602/11
f 490/587/12 507/608/12 503/607/12 497/588/12
f 504/603/13 489/582/13 492/585/13 498/600/13
f 492/590/14 493/594/14 494/591/14
f 495/596/212 496/595/212 497/597/212
f 498/593/213 499/592/213 500/604/213
f 501/605/211 502/599/211 503/598/211
f 509/612/6 508/613/6 513/614/6 512/615/6
f 511/616/1 510/617/1 517/618/1 516/619/1
f 512/620/7 514/621/7 519/622/7 518/623/7
f 514/621/3 513/624/3 516/625/3 515/626/3
f 515/626/4 517/627/4 523/628/4 522/629/4
f 518/630/8 520/631/8 525/632/8 524/633/8
f 520/634/5 519/622/5 522/629/5 521/635/5
f 521/636/2 523/637/2 527/638/2 526/639/2
f 508/613/13 511/616/13 516/619/13 513/614/13
f 514/621/10 515/626/10 522/629/10 519/622/10
f 520/631/12 521/636/12 526/639/12 525/632/12
f 510/640/9 527/638/9 523/637/9 517/641/9
f 524/633/11 509/612/11 512/615/11 518/630/11
f 512/620/213 513/624/213 514/621/213
f 515/626/220 516/625/220 517/627/220
f 518/623/211 519/622/211 520/634/211
f 521/635/218 522/629/218 523/628/218
f 529/642/6 528/643/6 533/644/6 532/645/6
f 531/646/1 530/647/1 537/648/1 536/649/1
f 532/650/7 534/651/7 539/652/7 538/653/7
f 534/651/3 533/654/3 536/655/3 535/656/3
f 535/656/4 537/657/4 543/658/4 542/659/4
f 538/660/8 540/661/8 545/662/8 544/663/8
f 540/664/5 539/652/5 542/659/5 541/665/5
f 541/666/2 543/667/2 547/668/2 546/669/2
f 528/643/13 531/646/13 536/649/13 533/644/13
f 534/651/10 535/656/10 542/659/10 539/652/10
f 540/661/12 541/666/12 546/669/12 545/662/12
f 530/647/9 547/668/9 543/667/9 537/648/9
f 544/670/11 529/642/11 532/645/11 538/671/11
f 532/650/219 533/654/219 534/651/219
f 535/656/214 536/655/214 537/657/214
f 538/653/221 539/652/221 540/664/221
f 541/665/218 542/659/218 543/658/218
f 549/672/6 548/673/6 553/674/6 552/675/6
f 551/676/1 550/677/1 557/678/1 556/679/1
f 552/680/7 554/681/7 559/682/7 558/683/7
f 554/681/3 553/684/3 556/685/3 555/686/3
f 555/686/4 557/687/4 563/688/4 562/689/4
f 558/690/8 560/691/8 565/692/8 564/693/8
f 560/694/5 559/682/5 562/689/5 561/695/5
f 561/696/2 563/697/2 567/698/2 566/699/2
f 548/673/13 551/676/13 556/679/13 553/674/13
f 554/681/10 555/686/10 562/689/10 559/682/10
f 560/691/12 561/696/12 566/699/12 565/692/12
f 550/677/9 567/700/9 563/701/9 557/678/9
f 564/693/11 549/672/11 552/675/11 558/690/11
f 552/680/213 553/684/213 554/681/213
f 555/686/14 556/685/14 557/687/14
f 558/683/216 559/682/216 560/694/216
f 561/695/15 562/689/15 563/688/15
f 570/702/1 569/703/1 575/704/1 574/705/1
f 571/706/7 572/707/7 577/708/7 576/709/7
f 573/710/4 575/711/4 581/712/4 580/713/4
f 576/714/8 578/715/8 583/716/8 582/717/8
f 578/718/5 577/708/5 580/713/5 579/719/5
f 579/720/2 581/721/2 585/722/2 584/723/2
f 572/707/10 573/710/10 580/713/10 577/708/10
f 578/715/12 579/720/12 584/723/12 583/716/12
f 569/703/9 585/722/9 581/721/9 575/704/9
f 582/724/11 568/725/11 571/726/11 576/727/11
f 573/710/214 574/728/214 575/711/214
f 576/709/211 577/708/211 578/718/211
f 579/719/218 580/713/218 581/712/218
