# Blender 5.0.0
# www.blender.org
mtllib sword.mtl
o Sword
v 0.031957 -0.040915 -0.000118
v 0.026412 -0.006255 -0.000118
v 0.025950 -0.040915 0.012821
v 0.021328 -0.006255 0.014670
v 0.000070 -0.040915 0.018829
v 0.000070 -0.006255 0.020678
v -0.021188 -0.006255 0.014670
v -0.025809 -0.040915 0.012821
v -0.026271 -0.006255 -0.000118
v -0.031817 -0.040915 -0.000118
v -0.025809 -0.040915 -0.013058
v -0.021188 -0.006255 -0.014444
v 0.000070 -0.040915 -0.018604
v 0.000070 -0.006255 -0.020914
v 0.021328 -0.006255 -0.014444
v 0.025950 -0.040915 -0.013058
v 0.026874 -0.107924 -0.011672
v 0.033344 -0.107924 -0.000118
v 0.026874 -0.107924 0.011897
v 0.000070 -0.107924 0.016981
v -0.026733 -0.107924 0.011897
v -0.033203 -0.107924 -0.000118
v -0.026733 -0.107924 -0.011672
v 0.000070 -0.107924 -0.017217
v 0.023639 -0.174933 -0.010285
v 0.029185 -0.174933 -0.000118
v 0.023639 -0.174933 0.010511
v 0.000070 -0.174933 0.015132
v -0.023498 -0.174933 0.010511
v -0.029044 -0.174933 -0.000118
v -0.023498 -0.174933 -0.010285
v 0.000070 -0.174933 -0.014906
v 0.000070 -0.214214 -0.012596
v 0.017631 -0.214214 -0.008899
v 0.021790 -0.214214 -0.000118
v 0.017631 -0.214214 0.008662
v 0.000070 -0.214214 0.012821
v -0.017491 -0.214214 0.008662
v -0.021650 -0.214214 -0.000118
v -0.017491 -0.214214 -0.008899
v -0.011483 -0.242866 -0.007974
v 0.000070 -0.242866 -0.011209
v 0.011624 -0.242866 -0.007974
v 0.014396 -0.242866 -0.000118
v 0.011624 -0.242866 0.007738
v 0.000070 -0.242866 0.011435
v -0.011483 -0.242866 0.007738
v -0.014256 -0.242866 -0.000118
v 0.000070 -0.311724 0.013746
v 0.000070 -0.272905 0.025761
v -0.023961 -0.278913 0.013746
v -0.025809 -0.253958 0.025761
v -0.046143 -0.260427 0.013746
v -0.047991 -0.241018 0.025761
v -0.084038 -0.235934 0.013746
v -0.084038 -0.235934 -0.013520
v -0.047991 -0.241018 -0.025998
v -0.046143 -0.260427 -0.013520
v -0.025809 -0.253958 -0.025998
v -0.023961 -0.278913 -0.013520
v 0.000070 -0.272905 -0.025998
v 0.000070 -0.311724 -0.013520
v 0.000070 -0.311724 -0.013520
v 0.000070 -0.272905 -0.025998
v 0.024101 -0.278913 -0.013520
v 0.025950 -0.253958 -0.025998
v 0.046283 -0.260427 -0.013520
v 0.048132 -0.241018 -0.025998
v 0.084178 -0.235934 -0.013520
v -0.084038 -0.235934 0.013746
v -0.047991 -0.241018 0.025761
v -0.064166 -0.220222 0.013746
v -0.037362 -0.231313 0.025761
v -0.031355 -0.211904 0.013746
v -0.018415 -0.225768 0.025761
v 0.000070 -0.207282 0.013746
v 0.000070 -0.222995 0.025761
v 0.018556 -0.225768 0.025761
v 0.031495 -0.211904 0.013746
v 0.037503 -0.231313 0.025761
v 0.064307 -0.220222 0.013746
v 0.084178 -0.235934 0.013746
v 0.048132 -0.241018 0.025761
v -0.084038 -0.235934 -0.013520
v -0.064166 -0.220222 -0.013520
v -0.047991 -0.241018 -0.025998
v -0.037362 -0.231313 -0.025998
v -0.031355 -0.211904 -0.013520
v -0.018415 -0.225768 -0.025998
v 0.000070 -0.207282 -0.013520
v 0.000070 -0.222995 -0.025998
v 0.018556 -0.225768 -0.025998
v 0.084178 -0.235934 -0.013520
v 0.048132 -0.241018 -0.025998
v 0.064307 -0.220222 -0.013520
v 0.037503 -0.231313 -0.025998
v 0.031495 -0.211904 -0.013520
v 0.048132 -0.241018 -0.025998
v 0.025950 -0.253958 -0.025998
v 0.037503 -0.231313 -0.025998
v 0.018556 -0.225768 -0.025998
v 0.000070 -0.222995 -0.025998
v 0.000070 -0.272905 -0.025998
v -0.025809 -0.253958 -0.025998
v -0.018415 -0.225768 -0.025998
v -0.037362 -0.231313 -0.025998
v -0.047991 -0.241018 -0.025998
v -0.047991 -0.241018 0.025761
v -0.025809 -0.253958 0.025761
v -0.037362 -0.231313 0.025761
v -0.018415 -0.225768 0.025761
v 0.000070 -0.222995 0.025761
v 0.048132 -0.241018 0.025761
v 0.037503 -0.231313 0.025761
v 0.025950 -0.253958 0.025761
v 0.018556 -0.225768 0.025761
v 0.000070 -0.272905 0.025761
v -0.084038 -0.235934 0.013746
v -0.084038 -0.235934 -0.013520
v -0.046143 -0.260427 0.013746
v 0.000070 -0.311724 0.013746
v -0.023961 -0.278913 0.013746
v 0.000070 -0.311724 -0.013520
v -0.023961 -0.278913 -0.013520
v -0.046143 -0.260427 -0.013520
v 0.084178 -0.235934 0.013746
v 0.048132 -0.241018 0.025761
v 0.046283 -0.260427 0.013746
v 0.025950 -0.253958 0.025761
v 0.024101 -0.278913 0.013746
v 0.000070 -0.272905 0.025761
v 0.000070 -0.311724 0.013746
v 0.000070 -0.311724 -0.013520
v 0.024101 -0.278913 -0.013520
v 0.000070 -0.311724 0.013746
v 0.024101 -0.278913 0.013746
v 0.046283 -0.260427 0.013746
v 0.046283 -0.260427 -0.013520
v 0.084178 -0.235934 0.013746
v 0.084178 -0.235934 -0.013520
v 0.084178 -0.235934 -0.013520
v 0.064307 -0.220222 -0.013520
v 0.084178 -0.235934 0.013746
v 0.064307 -0.220222 0.013746
v 0.031495 -0.211904 -0.013520
v 0.031495 -0.211904 0.013746
v -0.084038 -0.235934 0.013746
v -0.064166 -0.220222 0.013746
v -0.084038 -0.235934 -0.013520
v -0.064166 -0.220222 -0.013520
v -0.031355 -0.211904 0.013746
v -0.031355 -0.211904 -0.013520
v 0.000070 -0.207282 0.013746
v 0.000070 -0.207282 -0.013520
v 0.118838 -0.014574 -0.000580
v 0.124846 -0.002558 -0.000580
v 0.118838 -0.014574 0.001730
v 0.124846 -0.002558 0.001730
v 0.130391 0.009457 -0.001043
v 0.130391 0.009457 0.001730
v 0.000070 0.054746 -0.086999
v 0.000070 0.054746 -0.000118
v 0.046746 0.012230 -0.072211
v 0.046746 0.012230 -0.000118
v 0.087875 0.007147 -0.044021
v 0.087875 0.007147 -0.000118
v 0.130391 0.009457 -0.001043
v 0.130391 0.009457 0.001730
v 0.087875 0.007147 0.043784
v 0.046746 0.012230 0.072436
v 0.000070 0.054746 0.087225
v -0.130251 0.009457 0.001730
v -0.130251 0.009457 -0.001043
v -0.124705 -0.002558 0.001730
v -0.118698 -0.014574 -0.000580
v -0.118698 -0.014574 0.001730
v -0.124705 -0.002558 -0.000580
v -0.118698 -0.014574 0.001730
v -0.081265 -0.012263 -0.000118
v -0.081265 -0.012263 0.041011
v -0.041984 -0.017346 -0.000118
v -0.041984 -0.017346 0.064580
v 0.000070 -0.040453 0.060883
v 0.000070 -0.040453 -0.000118
v 0.041662 -0.017346 -0.000118
v 0.041662 -0.017346 0.064580
v 0.081405 -0.012263 0.041011
v 0.081405 -0.012263 -0.000118
v 0.118838 -0.014574 0.001730
v 0.118838 -0.014574 -0.000580
v 0.081405 -0.012263 -0.040786
v 0.041662 -0.017346 -0.064817
v 0.000070 -0.040453 -0.060657
v -0.041984 -0.017346 -0.064817
v -0.081265 -0.012263 -0.040786
v -0.118698 -0.014574 -0.000580
v -0.124705 -0.002558 -0.000580
v -0.084500 -0.002558 -0.042172
v -0.118698 -0.014574 -0.000580
v -0.081265 -0.012263 -0.040786
v -0.044294 -0.002558 -0.068514
v -0.041984 -0.017346 -0.064817
v 0.000070 0.000215 -0.072211
v 0.000070 -0.040453 -0.060657
v 0.041662 -0.017346 -0.064817
v 0.044435 -0.002558 -0.068514
v 0.081405 -0.012263 -0.040786
v 0.084640 -0.002558 -0.042172
v 0.118838 -0.014574 -0.000580
v 0.124846 -0.002558 -0.000580
v 0.130391 0.009457 -0.001043
v 0.087875 0.007147 -0.044021
v 0.046746 0.012230 -0.072211
v 0.000070 0.000215 -0.072211
v 0.000070 0.054746 -0.086999
v -0.047067 0.012230 -0.072211
v -0.087735 0.007147 -0.044021
v -0.130251 0.009457 -0.001043
v -0.047067 0.012230 0.072436
v -0.047067 0.012230 -0.000118
v -0.087735 0.007147 0.043784
v -0.087735 0.007147 -0.000118
v -0.130251 0.009457 0.001730
v -0.130251 0.009457 -0.001043
v -0.087735 0.007147 -0.044021
v -0.047067 0.012230 -0.072211
v 0.000070 0.054746 -0.086999
v 0.000070 0.054746 -0.000118
v 0.000070 0.054746 0.087225
v 0.084640 -0.002558 0.042398
v 0.087875 0.007147 0.043784
v 0.130391 0.009457 0.001730
v 0.124846 -0.002558 0.001730
v 0.118838 -0.014574 0.001730
v 0.081405 -0.012263 0.041011
v -0.081265 -0.012263 0.041011
v -0.084500 -0.002558 0.042398
v -0.118698 -0.014574 0.001730
v -0.124705 -0.002558 0.001730
v -0.130251 0.009457 0.001730
v -0.087735 0.007147 0.043784
v -0.047067 0.012230 0.072436
v 0.046746 0.012230 0.072436
v 0.000070 0.054746 0.087225
v 0.000070 0.000215 0.071974
v -0.044294 -0.002558 0.068739
v -0.041984 -0.017346 0.064580
v 0.000070 0.000215 0.071974
v 0.000070 -0.040453 0.060883
v 0.041662 -0.017346 0.064580
v 0.044435 -0.002558 0.068739
v 0.012548 -0.000710 -0.014906
v 0.012548 0.038572 -0.014906
v 0.048594 -0.001172 -0.000118
v 0.049056 0.041344 -0.000118
v -0.012407 -0.000710 -0.014906
v -0.012407 0.038572 -0.014906
v -0.000392 -0.000710 -0.009823
v -0.000392 0.039496 -0.009823
v -0.000392 0.039496 -0.009823
v 0.012548 0.038572 -0.014906
v -0.000392 -0.000710 -0.009823
v 0.012548 -0.000710 -0.014906
v -0.000392 0.116210 -0.009823
v 0.012548 0.112975 -0.014444
v -0.000392 0.077391 -0.009823
v 0.036579 0.075542 -0.014906
v -0.000392 0.039496 -0.009823
v -0.000392 0.077391 -0.009823
v 0.012548 0.038572 -0.014906
v 0.036579 0.075542 -0.014906
v -0.000392 0.039496 -0.009823
v -0.012407 0.038572 -0.014906
v -0.000392 0.077391 -0.009823
v -0.036438 0.075542 -0.014906
v -0.012407 0.112975 -0.014444
v -0.000392 0.116210 -0.009823
v -0.012407 0.169817 -0.014444
v -0.000392 0.175362 -0.009823
v -0.011945 0.346351 -0.013982
v -0.011945 0.405966 -0.013982
v -0.000392 0.357442 -0.009361
v -0.000392 0.419368 -0.009361
v -0.000392 0.419368 -0.009361
v 0.011624 0.406428 -0.013982
v -0.000392 0.357442 -0.009361
v 0.011624 0.346351 -0.013982
v -0.011945 0.228045 -0.014444
v -0.011945 0.286736 -0.013982
v -0.000392 0.235439 -0.009361
v -0.000392 0.295979 -0.009361
v -0.000392 0.295979 -0.009361
v 0.012086 0.286736 -0.013982
v -0.000392 0.235439 -0.009361
v 0.012086 0.228045 -0.014444
v -0.011945 0.286736 -0.013982
v -0.011945 0.346351 -0.013982
v -0.000392 0.295979 -0.009361
v -0.000392 0.357442 -0.009361
v -0.000392 0.357442 -0.009361
v 0.011624 0.346351 -0.013982
v -0.000392 0.295979 -0.009361
v 0.012086 0.286736 -0.013982
v -0.012407 0.169817 -0.014444
v -0.011945 0.228045 -0.014444
v -0.000392 0.175362 -0.009823
v -0.000392 0.235439 -0.009361
v -0.000392 0.235439 -0.009361
v 0.012086 0.228045 -0.014444
v -0.000392 0.175362 -0.009823
v 0.012548 0.112975 -0.014444
v -0.000392 0.116210 -0.009823
v 0.012086 0.169817 -0.014444
v -0.000392 0.419368 -0.009361
v -0.011945 0.405966 -0.013982
v 0.000070 0.480831 -0.012596
v 0.011624 0.406428 -0.013982
v -0.000392 0.419368 -0.009361
v 0.000070 0.480831 -0.012596
v 0.000070 0.480831 -0.012596
v 0.000532 0.634259 -0.000118
v 0.044435 0.512256 -0.000118
v 0.000070 0.480831 -0.012596
v -0.044294 0.511794 -0.000118
v 0.000532 0.634259 -0.000118
v 0.011624 0.406428 -0.013982
v 0.000070 0.480831 -0.012596
v 0.044897 0.446171 -0.000118
v 0.044435 0.512256 -0.000118
v -0.012407 0.038572 -0.014906
v -0.048916 0.041344 -0.000118
v -0.036438 0.075542 -0.014906
v -0.141804 0.082012 -0.000118
v 0.012548 0.038572 -0.014906
v 0.036579 0.075542 -0.014906
v 0.049056 0.041344 -0.000118
v 0.141945 0.082012 -0.000118
v -0.047529 0.185991 -0.000118
v -0.012407 0.169817 -0.014444
v -0.048454 0.123142 -0.000118
v -0.012407 0.112975 -0.014444
v -0.036438 0.075542 -0.014906
v -0.141804 0.082012 -0.000118
v -0.045219 0.445709 -0.000118
v -0.011945 0.405966 -0.013982
v -0.045681 0.379624 -0.000118
v -0.011945 0.346351 -0.013982
v 0.141945 0.082012 -0.000118
v 0.036579 0.075542 -0.014906
v 0.048132 0.123142 -0.000118
v 0.012548 0.112975 -0.014444
v 0.012086 0.286736 -0.013982
v 0.011624 0.346351 -0.013982
v 0.046283 0.314926 -0.000118
v 0.045821 0.380549 -0.000118
v -0.046605 0.314464 -0.000118
v -0.011945 0.286736 -0.013982
v -0.047067 0.249766 -0.000118
v -0.011945 0.228045 -0.014444
v -0.012407 -0.000710 -0.014906
v -0.048454 -0.001172 -0.000118
v -0.012407 0.038572 -0.014906
v -0.048916 0.041344 -0.000118
v -0.045681 0.379624 -0.000118
v -0.011945 0.346351 -0.013982
v -0.046605 0.314464 -0.000118
v -0.011945 0.286736 -0.013982
v 0.011624 0.346351 -0.013982
v 0.011624 0.406428 -0.013982
v 0.045821 0.380549 -0.000118
v 0.044897 0.446171 -0.000118
v -0.047067 0.249766 -0.000118
v -0.011945 0.228045 -0.014444
v -0.047529 0.185991 -0.000118
v -0.012407 0.169817 -0.014444
v 0.012086 0.228045 -0.014444
v 0.012086 0.286736 -0.013982
v 0.047208 0.250228 -0.000118
v 0.046283 0.314926 -0.000118
v 0.012548 0.112975 -0.014444
v 0.012086 0.169817 -0.014444
v 0.048132 0.123142 -0.000118
v 0.047670 0.185991 -0.000118
v 0.012086 0.228045 -0.014444
v 0.047208 0.250228 -0.000118
v -0.044294 0.511794 -0.000118
v 0.000070 0.480831 -0.012596
v -0.045219 0.445709 -0.000118
v -0.011945 0.405966 -0.013982
v 0.012548 -0.000710 0.015132
v 0.048594 -0.001172 -0.000118
v 0.012548 0.038572 0.014670
v 0.049056 0.041344 -0.000118
v -0.000392 0.039496 0.010049
v -0.012407 0.038572 0.014670
v -0.000392 -0.000710 0.010049
v -0.012407 -0.000710 0.015132
v -0.000392 0.039496 0.010049
v -0.000392 -0.000710 0.010049
v 0.012548 0.038572 0.014670
v 0.012548 -0.000710 0.015132
v -0.000392 0.116210 0.009587
v -0.000392 0.077391 0.010049
v 0.012548 0.112975 0.014670
v 0.036579 0.075542 0.014670
v 0.036579 0.075542 0.014670
v -0.000392 0.077391 0.010049
v 0.012548 0.038572 0.014670
v -0.000392 0.039496 0.010049
v -0.000392 0.175362 0.009587
v -0.012407 0.169817 0.014670
v -0.000392 0.116210 0.009587
v -0.000392 0.039496 0.010049
v -0.000392 0.077391 0.010049
v -0.012407 0.038572 0.014670
v -0.036438 0.075542 0.014670
v -0.012407 0.112975 0.014670
v -0.000392 0.419368 0.009124
v -0.011945 0.405966 0.013746
v -0.000392 0.357442 0.009124
v -0.011945 0.346351 0.013746
v -0.000392 0.419368 0.009124
v -0.000392 0.357442 0.009124
v 0.011624 0.406428 0.013746
v 0.011624 0.346351 0.013746
v -0.000392 0.295979 0.009587
v -0.011945 0.286736 0.014208
v -0.000392 0.235439 0.009587
v -0.011945 0.228045 0.014208
v -0.000392 0.295979 0.009587
v -0.000392 0.235439 0.009587
v 0.012086 0.286736 0.014208
v 0.012086 0.228045 0.014208
v -0.000392 0.357442 0.009124
v -0.011945 0.346351 0.013746
v -0.000392 0.295979 0.009587
v -0.011945 0.286736 0.014208
v -0.000392 0.357442 0.009124
v -0.000392 0.295979 0.009587
v 0.011624 0.346351 0.013746
v 0.012086 0.286736 0.014208
v -0.000392 0.235439 0.009587
v -0.011945 0.228045 0.014208
v -0.000392 0.175362 0.009587
v -0.012407 0.169817 0.014670
v 0.012548 0.112975 0.014670
v 0.012086 0.169817 0.014670
v -0.000392 0.116210 0.009587
v -0.000392 0.175362 0.009587
v 0.012086 0.228045 0.014208
v -0.000392 0.235439 0.009587
v -0.000392 0.419368 0.009124
v 0.000070 0.480831 0.012821
v -0.011945 0.405966 0.013746
v 0.011624 0.406428 0.013746
v 0.000070 0.480831 0.012821
v -0.000392 0.419368 0.009124
v 0.000070 0.480831 0.012821
v 0.044435 0.512256 -0.000118
v 0.000532 0.634259 -0.000118
v 0.000070 0.480831 0.012821
v 0.000532 0.634259 -0.000118
v -0.044294 0.511794 -0.000118
v 0.044435 0.512256 -0.000118
v 0.000070 0.480831 0.012821
v 0.044897 0.446171 -0.000118
v 0.011624 0.406428 0.013746
v -0.141804 0.082012 -0.000118
v -0.048916 0.041344 -0.000118
v -0.036438 0.075542 0.014670
v -0.012407 0.038572 0.014670
v 0.012548 0.038572 0.014670
v 0.049056 0.041344 -0.000118
v 0.036579 0.075542 0.014670
v 0.141945 0.082012 -0.000118
v -0.141804 0.082012 -0.000118
v -0.036438 0.075542 0.014670
v -0.048454 0.123142 -0.000118
v -0.047529 0.185991 -0.000118
v -0.012407 0.169817 0.014670
v -0.012407 0.112975 0.014670
v -0.045219 0.445709 -0.000118
v -0.045681 0.379624 -0.000118
v -0.011945 0.405966 0.013746
v -0.011945 0.346351 0.013746
v 0.012548 0.112975 0.014670
v 0.036579 0.075542 0.014670
v 0.048132 0.123142 -0.000118
v 0.141945 0.082012 -0.000118
v 0.045821 0.380549 -0.000118
v 0.011624 0.346351 0.013746
v 0.046283 0.314926 -0.000118
v 0.012086 0.286736 0.014208
v -0.046605 0.314464 -0.000118
v -0.047067 0.249766 -0.000118
v -0.011945 0.286736 0.014208
v -0.011945 0.228045 0.014208
v -0.048916 0.041344 -0.000118
v -0.048454 -0.001172 -0.000118
v -0.012407 0.038572 0.014670
v -0.012407 -0.000710 0.015132
v -0.045681 0.379624 -0.000118
v -0.046605 0.314464 -0.000118
v -0.011945 0.346351 0.013746
v -0.011945 0.286736 0.014208
v 0.044897 0.446171 -0.000118
v 0.011624 0.406428 0.013746
v 0.045821 0.380549 -0.000118
v 0.011624 0.346351 0.013746
v -0.047067 0.249766 -0.000118
v -0.047529 0.185991 -0.000118
v -0.011945 0.228045 0.014208
v -0.012407 0.169817 0.014670
v 0.046283 0.314926 -0.000118
v 0.012086 0.286736 0.014208
v 0.047208 0.250228 -0.000118
v 0.012086 0.228045 0.014208
v 0.047208 0.250228 -0.000118
v 0.012086 0.228045 0.014208
v 0.047670 0.185991 -0.000118
v 0.012548 0.112975 0.014670
v 0.048132 0.123142 -0.000118
v 0.012086 0.169817 0.014670
v -0.044294 0.511794 -0.000118
v -0.045219 0.445709 -0.000118
v 0.000070 0.480831 0.012821
v -0.011945 0.405966 0.013746
vn 0.9966 0.0823 -0.0000
vn 0.9925 0.1221 -0.0000
vn 0.6373 0.0338 0.7699
vn 0.6529 0.0281 0.7570
vn -0.0000 -0.0281 0.9996
vn -0.0000 -0.0644 0.9979
vn -0.6529 0.0281 0.7570
vn -0.6373 0.0338 0.7698
vn -0.9925 0.1222 -0.0000
vn -0.9966 0.0823 -0.0000
vn -0.6373 0.0338 -0.7698
vn -0.6528 0.0282 -0.7570
vn -0.0000 -0.0282 -0.9996
vn -0.0000 -0.0645 -0.9979
vn 0.6528 0.0282 -0.7570
vn 0.6373 0.0338 -0.7698
vn 0.6012 -0.0223 -0.7988
vn 0.9998 -0.0200 -0.0000
vn 0.6012 -0.0223 0.7988
vn -0.0000 -0.0222 0.9998
vn -0.6012 -0.0223 0.7988
vn -0.9998 -0.0200 -0.0000
vn -0.6012 -0.0223 -0.7988
vn -0.0000 -0.0220 -0.9998
vn 0.6005 -0.0870 -0.7949
vn 0.9928 -0.1197 -0.0000
vn 0.6005 -0.0870 0.7949
vn -0.0000 -0.0491 0.9988
vn -0.6005 -0.0870 0.7949
vn -0.9928 -0.1197 -0.0000
vn -0.6005 -0.0870 -0.7949
vn -0.0000 -0.0488 -0.9988
vn -0.0000 -0.0644 -0.9979
vn 0.6200 -0.1475 -0.7706
vn 0.9779 -0.2090 -0.0000
vn 0.6201 -0.1475 0.7706
vn -0.0000 -0.0645 0.9979
vn -0.6201 -0.1475 0.7706
vn -0.9779 -0.2091 -0.0000
vn -0.6200 -0.1475 -0.7706
vn -0.6438 -0.1414 -0.7520
vn -0.0000 -0.0471 -0.9989
vn 0.6437 -0.1414 -0.7521
vn 0.9750 -0.2224 -0.0000
vn 0.6438 -0.1414 0.7520
vn -0.0000 -0.0471 0.9989
vn -0.6438 -0.1414 0.7520
vn -0.9750 -0.2224 -0.0000
vn -0.3796 -0.2771 0.8827
vn -0.3567 -0.3475 0.8672
vn -0.3538 -0.3755 0.8566
vn -0.3321 -0.4618 0.8224
vn -0.3350 -0.4913 0.8040
vn -0.3233 -0.5249 0.7874
vn -0.3341 -0.5235 0.7838
vn -0.3341 -0.5236 -0.7838
vn -0.3233 -0.5249 -0.7874
vn -0.3350 -0.4913 -0.8040
vn -0.3321 -0.4618 -0.8224
vn -0.3538 -0.3756 -0.8566
vn -0.3567 -0.3475 -0.8672
vn -0.3796 -0.2772 -0.8827
vn 0.3796 -0.2772 -0.8827
vn 0.3567 -0.3475 -0.8672
vn 0.3538 -0.3756 -0.8566
vn 0.3321 -0.4618 -0.8224
vn 0.3350 -0.4913 -0.8040
vn 0.3233 -0.5249 -0.7874
vn 0.3341 -0.5236 -0.7838
vn -0.2641 0.3287 0.9068
vn -0.2790 0.3142 0.9074
vn -0.2374 0.3887 0.8903
vn -0.1948 0.4824 0.8540
vn -0.1271 0.5765 0.8071
vn -0.1117 0.5906 0.7992
vn -0.0000 0.6122 0.7907
vn 0.1116 0.5906 0.7992
vn 0.1271 0.5765 0.8071
vn 0.1948 0.4824 0.8540
vn 0.2374 0.3887 0.8903
vn 0.2641 0.3287 0.9068
vn 0.2790 0.3142 0.9074
vn -0.2641 0.3287 -0.9068
vn -0.2374 0.3888 -0.8902
vn -0.2790 0.3142 -0.9074
vn -0.1948 0.4824 -0.8540
vn -0.1271 0.5765 -0.8071
vn -0.1117 0.5906 -0.7992
vn -0.0000 0.6122 -0.7907
vn 0.1117 0.5906 -0.7992
vn 0.2641 0.3287 -0.9068
vn 0.2790 0.3142 -0.9074
vn 0.2374 0.3888 -0.8902
vn 0.1948 0.4824 -0.8540
vn 0.1271 0.5765 -0.8071
vn -0.0000 -0.0000 -1.0000
vn -0.0000 -0.0000 1.0000
vn -0.5377 -0.8431 -0.0000
vn -0.5938 -0.8046 -0.0000
vn -0.8068 -0.5909 -0.0000
vn -0.7329 -0.6804 -0.0000
vn 0.3341 -0.5236 0.7838
vn 0.3233 -0.5249 0.7874
vn 0.3350 -0.4913 0.8040
vn 0.3321 -0.4618 0.8224
vn 0.3538 -0.3755 0.8566
vn 0.3567 -0.3475 0.8672
vn 0.3796 -0.2771 0.8827
vn 0.8068 -0.5909 -0.0000
vn 0.7329 -0.6804 -0.0000
vn 0.7329 -0.6803 -0.0000
vn 0.5938 -0.8046 -0.0000
vn 0.5377 -0.8431 -0.0000
vn 0.6304 0.7763 -0.0000
vn 0.4493 0.8934 -0.0000
vn 0.1904 0.9817 -0.0000
vn -0.6304 0.7763 -0.0000
vn -0.4493 0.8934 -0.0000
vn -0.1904 0.9817 -0.0000
vn -0.0000 1.0000 -0.0000
vn 0.9011 -0.4336 -0.0000
vn 0.9014 -0.4330 -0.0000
vn 0.9012 -0.4335 -0.0000
vn 0.6717 0.7408 -0.0000
vn 0.4999 0.8661 -0.0000
vn 0.4148 0.9099 -0.0000
vn 0.0711 0.9975 -0.0000
vn 0.0323 0.9995 -0.0000
vn -0.0536 0.9986 -0.0000
vn -0.0535 0.9986 -0.0000
vn -0.9011 -0.4336 -0.0000
vn -0.9013 -0.4332 -0.0000
vn -0.9012 -0.4335 -0.0000
vn 0.0622 -0.9981 -0.0000
vn -0.0323 -0.9995 -0.0000
vn -0.0782 -0.9969 -0.0000
vn -0.3140 -0.9494 -0.0000
vn -0.3470 -0.9379 -0.0000
vn -0.0000 -1.0000 -0.0000
vn -0.0001 -1.0000 -0.0000
vn 0.3140 -0.9494 -0.0000
vn 0.3470 -0.9379 -0.0000
vn 0.0778 -0.9970 -0.0000
vn 0.0325 -0.9995 -0.0000
vn -0.0622 -0.9981 -0.0000
vn -0.0623 -0.9981 -0.0000
vn 0.0780 -0.9970 -0.0000
vn -0.0779 -0.9970 -0.0000
vn 0.0623 -0.9981 -0.0000
vn -0.6807 -0.3290 -0.6546
vn -0.6046 -0.3169 -0.7307
vn -0.6806 -0.3290 -0.6546
vn -0.5969 -0.3129 -0.7388
vn -0.2991 -0.2903 -0.9090
vn -0.2485 -0.2856 -0.9255
vn -0.0000 -0.2646 -0.9644
vn 0.2485 -0.2857 -0.9255
vn 0.2991 -0.2903 -0.9090
vn 0.5969 -0.3129 -0.7388
vn 0.6046 -0.3169 -0.7307
vn 0.6806 -0.3290 -0.6546
vn 0.6807 -0.3289 -0.6546
vn 0.6081 -0.3170 -0.7278
vn 0.2523 -0.2896 -0.9233
vn -0.0000 -0.2645 -0.9644
vn -0.2523 -0.2896 -0.9233
vn -0.6081 -0.3170 -0.7278
vn -0.6807 -0.3289 -0.6546
vn -0.4999 0.8661 -0.0000
vn -0.4148 0.9099 -0.0000
vn -0.0711 0.9975 -0.0000
vn -0.0323 0.9995 -0.0000
vn 0.0535 0.9986 -0.0000
vn 0.0536 0.9986 -0.0000
vn -0.4998 0.8662 -0.0000
vn -0.6717 0.7408 -0.0000
vn 0.2523 -0.2896 0.9233
vn 0.6012 -0.3167 0.7337
vn 0.6046 -0.3169 0.7307
vn 0.6742 -0.3290 0.6612
vn 0.5933 -0.3128 0.7417
vn -0.5933 -0.3128 0.7417
vn -0.6012 -0.3167 0.7337
vn -0.6742 -0.3290 0.6612
vn -0.6046 -0.3169 0.7307
vn -0.2523 -0.2896 0.9233
vn -0.0000 -0.2646 0.9644
vn -0.2991 -0.2903 0.9090
vn -0.2485 -0.2857 0.9255
vn -0.0000 -0.2645 0.9644
vn 0.2485 -0.2857 0.9255
vn 0.2991 -0.2903 0.9090
vn 0.3837 -0.0000 -0.9234
vn 0.3815 -0.0026 -0.9244
vn 0.3793 -0.0051 -0.9252
vn 0.3784 0.0026 -0.9256
vn 0.3177 0.0227 -0.9479
vn 0.3762 0.0051 -0.9265
vn 0.3723 0.0025 -0.9281
vn -0.3631 0.0025 -0.9318
vn -0.3086 0.0226 -0.9509
vn -0.3692 0.0025 -0.9294
vn -0.3701 0.0051 -0.9290
vn -0.3630 0.0025 -0.9318
vn -0.3079 -0.0200 -0.9512
vn -0.1852 -0.0023 -0.9827
vn -0.1325 0.0044 -0.9912
vn -0.3630 0.0026 -0.9318
vn -0.1855 -0.0023 -0.9826
vn 0.1882 -0.0023 -0.9821
vn 0.1352 0.0067 -0.9908
vn 0.3169 -0.0201 -0.9482
vn 0.3714 -0.0000 -0.9285
vn 0.3811 -0.0103 -0.9245
vn 0.4135 -0.0400 -0.9096
vn -0.4038 -0.0398 -0.9140
vn -0.3749 -0.0103 -0.9270
vn -0.3631 0.0026 -0.9318
vn 0.4248 -0.0541 -0.9037
vn -0.4150 -0.0539 -0.9082
vn 0.2218 0.0797 -0.9718
vn -0.2223 0.0824 -0.9715
vn 0.3598 0.0206 -0.9328
vn 0.2914 0.0249 -0.9563
vn 0.3199 0.0305 -0.9470
vn 0.2738 0.0024 -0.9618
vn -0.3831 -0.2436 -0.8910
vn -0.2541 -0.3033 -0.9184
vn -0.1503 -0.3450 -0.9265
vn 0.3832 -0.2435 -0.8910
vn 0.2571 -0.3004 -0.9185
vn 0.2541 -0.3032 -0.9184
vn 0.1533 -0.3457 -0.9257
vn -0.3784 0.0025 -0.9256
vn -0.3784 0.0026 -0.9256
vn -0.2816 0.1394 -0.9493
vn -0.3501 0.1058 -0.9307
vn -0.2018 0.2427 -0.9489
vn -0.1182 0.2679 -0.9562
vn -0.3199 0.0305 -0.9470
vn -0.3620 0.0180 -0.9320
vn 0.1180 0.2649 -0.9570
vn 0.1990 0.2454 -0.9488
vn 0.2816 0.1395 -0.9494
vn 0.3500 0.1058 -0.9307
vn -0.3837 -0.0001 -0.9234
vn -0.3815 -0.0026 -0.9243
vn -0.3815 -0.0026 -0.9244
vn -0.3785 -0.0025 -0.9256
vn 0.3762 0.0052 -0.9265
vn -0.3785 0.0026 -0.9256
vn 0.3501 0.1058 -0.9307
vn 0.2816 0.1394 -0.9493
vn -0.2738 0.0024 -0.9618
vn -0.2914 0.0249 -0.9563
vn 0.3837 -0.0000 0.9235
vn 0.3815 -0.0026 0.9244
vn 0.3815 -0.0025 0.9244
vn 0.3793 -0.0051 0.9252
vn 0.3722 0.0025 0.9281
vn 0.3177 0.0227 0.9479
vn 0.3762 0.0051 0.9265
vn 0.3784 0.0026 0.9256
vn -0.3630 0.0025 0.9318
vn -0.3692 0.0025 0.9293
vn -0.3086 0.0226 0.9509
vn -0.3701 0.0051 0.9290
vn -0.3631 0.0026 0.9318
vn -0.1855 -0.0023 0.9826
vn -0.3079 -0.0200 0.9512
vn -0.1324 0.0044 0.9912
vn 0.3714 -0.0000 0.9285
vn 0.1882 -0.0023 0.9821
vn 0.3176 0.0227 0.9479
vn 0.1352 0.0066 0.9908
vn 0.3169 -0.0201 0.9482
vn 0.4134 -0.0400 0.9096
vn 0.3811 -0.0103 0.9245
vn -0.4038 -0.0398 0.9140
vn -0.3749 -0.0103 0.9270
vn -0.3631 0.0025 0.9318
vn -0.3630 0.0026 0.9318
vn 0.4135 -0.0400 0.9096
vn 0.4248 -0.0541 0.9037
vn -0.4150 -0.0539 0.9082
vn 0.2218 0.0797 0.9718
vn -0.2223 0.0824 0.9715
vn 0.2738 0.0024 0.9618
vn 0.2914 0.0249 0.9563
vn 0.3199 0.0305 0.9470
vn 0.3598 0.0206 0.9328
vn -0.1503 -0.3450 0.9265
vn -0.2541 -0.3033 0.9184
vn -0.3831 -0.2436 0.8910
vn 0.3831 -0.2436 0.8910
vn 0.2541 -0.3032 0.9184
vn 0.2571 -0.3004 0.9185
vn 0.1533 -0.3457 0.9257
vn -0.1182 0.2679 0.9562
vn -0.2018 0.2426 0.9489
vn -0.2816 0.1395 0.9493
vn -0.3784 0.0026 0.9256
vn -0.3501 0.1058 0.9307
vn -0.3199 0.0305 0.9470
vn -0.3620 0.0180 0.9320
vn -0.3784 0.0025 0.9256
vn 0.3500 0.1058 0.9307
vn 0.1990 0.2454 0.9488
vn 0.2816 0.1395 0.9493
vn 0.1180 0.2648 0.9571
vn -0.3785 0.0026 0.9256
vn -0.3785 -0.0025 0.9256
vn -0.3815 -0.0026 0.9244
vn -0.3837 -0.0000 0.9235
vn 0.3762 0.0052 0.9265
vn 0.3501 0.1058 0.9307
vn 0.2816 0.1394 0.9493
vn 0.3785 0.0026 0.9256
vn -0.2738 0.0024 0.9618
vn -0.2914 0.0249 0.9563
vt 0.209571 0.442537
vt -0.036583 0.624350
vt -0.307845 0.635111
vt 0.481282 0.696762
vt 0.317852 0.698331
vt 0.609515 0.881265
vt 0.569386 0.881265
vt 0.610187 0.881265
vt 0.569834 0.881265
vt 0.609290 0.881265
vt 0.568041 0.881265
vt 0.484868 0.881265
vt 0.488904 0.881265
vt 0.526342 0.881265
vt 0.529033 0.881265
vt 0.428598 0.881265
vt 0.422545 0.881265
vt 0.247458 0.881265
vt 0.187153 0.881265
vt 0.235352 0.881265
vt 0.173029 0.881265
vt 0.186928 0.881265
vt 0.368293 0.881265
vt 0.307763 0.881265
vt 0.360222 0.881265
vt 0.297675 0.881265
vt 0.368069 0.881265
vt 0.428374 0.881265
vt 0.126623 0.881265
vt 0.043227 0.876109
vt 0.570058 0.881265
vt 0.529705 0.881265
vt 0.529481 0.881265
vt 0.429047 0.881265
vt 0.489576 0.881265
vt 0.187825 0.881265
vt 0.248131 0.881265
vt 0.489352 0.881265
vt 0.307988 0.881265
vt 0.308436 0.881265
vt 0.368741 0.881265
vt 0.428823 0.881265
vt 0.127296 0.881265
vt 0.126847 0.881265
s 1
usemtl s
f 1/1/1 2/1/2 3/1/3
f 2/1/2 4/1/4 3/1/3
f 3/1/3 4/1/4 5/1/5
f 4/1/4 6/1/6 5/1/5
f 6/1/6 7/1/7 5/1/5
f 5/1/5 7/1/7 8/1/8
f 7/1/7 9/1/9 8/1/8
f 8/1/8 9/1/9 10/1/10
f 10/1/10 9/1/9 11/1/11
f 9/1/9 12/1/12 11/1/11
f 11/1/11 12/1/12 13/1/13
f 12/1/12 14/1/14 13/1/13
f 14/1/14 15/1/15 13/1/13
f 13/1/13 15/1/15 16/1/16
f 15/1/15 2/1/2 16/1/16
f 2/1/2 1/1/1 16/1/16
f 16/1/16 1/1/1 17/1/17
f 17/1/17 1/1/1 18/1/18
f 18/1/18 1/1/1 19/1/19
f 1/1/1 3/1/3 19/1/19
f 19/1/19 3/1/3 20/1/20
f 3/1/3 5/1/5 20/1/20
f 5/1/5 8/1/8 20/1/20
f 20/1/20 8/1/8 21/1/21
f 8/1/8 10/1/10 21/1/21
f 21/1/21 10/1/10 22/1/22
f 22/1/22 10/1/10 23/1/23
f 10/1/10 11/1/11 23/1/23
f 23/1/23 11/1/11 24/1/24
f 11/1/11 13/1/13 24/1/24
f 13/1/13 16/1/16 24/1/24
f 16/1/16 17/1/17 24/1/24
f 24/1/24 17/1/17 25/1/25
f 25/1/25 17/1/17 26/1/26
f 17/1/17 18/1/18 26/1/26
f 18/1/18 19/1/19 26/1/26
f 26/1/26 19/1/19 27/1/27
f 19/1/19 20/1/20 27/1/27
f 27/1/27 20/1/20 28/1/28
f 28/1/28 20/1/20 29/1/29
f 20/1/20 21/1/21 29/1/29
f 29/1/29 21/1/21 30/1/30
f 21/1/21 22/1/22 30/1/30
f 22/1/22 23/1/23 30/1/30
f 30/1/30 23/1/23 31/1/31
f 23/1/23 24/1/24 31/1/31
f 31/1/31 24/1/24 32/1/32
f 24/1/24 25/1/25 32/1/32
f 33/1/33 32/1/32 34/1/34
f 32/1/32 25/1/25 34/1/34
f 34/1/34 25/1/25 35/1/35
f 25/1/25 26/1/26 35/1/35
f 26/1/26 27/1/27 35/1/35
f 35/1/35 27/1/27 36/1/36
f 27/1/27 28/1/28 36/1/36
f 36/1/36 28/1/28 37/1/37
f 37/1/37 28/1/28 38/1/38
f 28/1/28 29/1/29 38/1/38
f 38/1/38 29/1/29 39/1/39
f 29/1/29 30/1/30 39/1/39
f 30/1/30 31/1/31 39/1/39
f 39/1/39 31/1/31 40/1/40
f 31/1/31 32/1/32 40/1/40
f 32/1/32 33/1/33 40/1/40
f 40/1/40 33/1/33 41/1/41
f 41/1/41 33/1/33 42/1/42
f 42/1/42 33/1/33 43/1/43
f 33/1/33 34/1/34 43/1/43
f 43/1/43 34/1/34 44/1/44
f 34/1/34 35/1/35 44/1/44
f 35/1/35 36/1/36 44/1/44
f 44/1/44 36/1/36 45/1/45
f 36/1/36 37/1/37 45/1/45
f 45/1/45 37/1/37 46/1/46
f 46/1/46 37/1/37 47/1/47
f 37/1/37 38/1/38 47/1/47
f 47/1/47 38/1/38 48/1/48
f 38/1/38 39/1/39 48/1/48
f 39/1/39 40/1/40 48/1/48
f 40/1/40 41/1/41 48/1/48
f 49/2/49 50/2/50 51/2/51
f 50/2/50 52/2/52 51/2/51
f 51/2/51 52/2/52 53/2/53
f 52/2/52 54/2/54 53/2/53
f 53/2/53 54/2/54 55/2/55
f 56/2/56 57/2/57 58/2/58
f 57/2/57 59/2/59 58/2/58
f 58/2/58 59/2/59 60/2/60
f 59/2/59 61/2/61 60/2/60
f 61/2/61 62/2/62 60/2/60
f 63/2/63 64/2/64 65/2/65
f 64/2/64 66/2/66 65/2/65
f 65/2/65 66/2/66 67/2/67
f 66/2/66 68/2/68 67/2/67
f 67/2/67 68/2/68 69/2/69
f 70/2/70 71/2/71 72/2/72
f 71/2/71 73/2/73 72/2/72
f 72/2/72 73/2/73 74/2/74
f 73/2/73 75/2/75 74/2/74
f 74/2/74 75/2/75 76/2/76
f 75/2/75 77/2/76 76/2/76
f 77/2/76 78/2/77 76/2/76
f 76/2/76 78/2/77 79/2/78
f 78/2/77 80/2/79 79/2/78
f 79/2/78 80/2/79 81/2/80
f 82/2/81 81/2/80 83/2/82
f 81/2/80 80/2/79 83/2/82
f 84/2/83 85/2/84 86/2/85
f 86/2/85 85/2/84 87/2/86
f 85/2/84 88/2/87 87/2/86
f 87/2/86 88/2/87 89/2/88
f 88/2/87 90/2/89 89/2/88
f 89/2/88 90/2/89 91/2/89
f 91/2/89 90/2/89 92/2/90
f 93/2/91 94/2/92 95/2/93
f 94/2/92 96/2/94 95/2/93
f 95/2/93 96/2/94 97/2/95
f 96/2/94 92/2/90 97/2/95
f 92/2/90 90/2/89 97/2/95
s 0
f 98/3/96 99/3/96 100/3/96
f 100/3/96 99/3/96 101/3/96
f 101/3/96 99/3/96 102/3/96
f 99/3/96 103/3/96 102/3/96
f 103/3/96 104/3/96 102/3/96
f 102/3/96 104/3/96 105/3/96
f 105/3/96 104/3/96 106/3/96
f 104/3/96 107/3/96 106/3/96
f 108/3/97 109/3/97 110/3/97
f 110/3/97 109/3/97 111/3/97
f 111/3/97 109/3/97 112/3/97
f 113/3/97 114/3/97 115/3/97
f 114/3/97 116/3/97 115/3/97
f 116/3/97 112/3/97 115/3/97
f 115/3/97 112/3/97 117/3/97
f 112/3/97 109/3/97 117/3/97
s 1
f 118/2/98 119/2/98 120/2/99
f 121/2/100 122/2/101 123/2/100
f 123/2/100 122/2/101 124/2/101
f 124/2/101 122/2/101 125/2/99
f 122/2/101 120/2/99 125/2/99
f 120/2/99 119/2/98 125/2/99
f 126/2/102 127/2/103 128/2/104
f 127/2/103 129/2/105 128/2/104
f 128/2/104 129/2/105 130/2/106
f 129/2/105 131/2/107 130/2/106
f 131/2/107 132/2/108 130/2/106
f 133/2/109 134/2/110 135/2/109
f 135/2/109 134/2/110 136/2/111
f 136/2/111 134/2/110 137/2/112
f 134/2/110 138/2/112 137/2/112
f 137/2/112 138/2/112 139/2/113
f 139/2/113 138/2/112 140/2/113
f 141/2/114 142/2/115 143/2/114
f 143/2/114 142/2/115 144/2/115
f 142/2/115 145/2/116 144/2/115
f 144/2/115 145/2/116 146/2/116
f 147/2/117 148/2/118 149/2/117
f 149/2/117 148/2/118 150/2/118
f 148/2/118 151/2/119 150/2/118
f 150/2/118 151/2/119 152/2/119
f 151/2/119 153/2/120 152/2/119
f 152/2/119 153/2/120 154/2/120
f 153/2/120 146/2/116 154/2/120
f 146/2/116 145/2/116 154/2/120
f 155/4/121 156/4/122 157/4/121
f 157/4/121 156/4/122 158/4/123
f 156/4/122 159/4/121 158/4/123
f 158/4/123 159/4/121 160/4/121
f 161/5/124 162/5/124 163/5/125
f 162/5/124 164/5/126 163/5/125
f 163/5/125 164/5/126 165/5/127
f 164/5/126 166/5/128 165/5/127
f 165/5/127 166/5/128 167/5/129
f 167/5/129 166/5/128 168/5/130
f 168/5/130 166/5/128 169/5/127
f 166/5/128 164/5/126 169/5/127
f 169/5/127 164/5/126 170/5/125
f 164/5/126 162/5/124 170/5/125
f 170/5/125 162/5/124 171/5/124
f 172/4/131 173/4/131 174/4/132
f 175/4/131 176/4/131 177/4/133
f 176/4/131 174/4/132 177/4/133
f 174/4/132 173/4/131 177/4/133
f 178/5/134 179/5/135 180/5/136
f 179/5/135 181/5/137 180/5/136
f 180/5/136 181/5/137 182/5/138
f 182/5/138 181/5/137 183/5/139
f 181/5/137 184/5/140 183/5/139
f 184/5/140 185/5/141 183/5/139
f 183/5/139 185/5/141 186/5/142
f 186/5/142 185/5/141 187/5/143
f 185/5/141 188/5/144 187/5/143
f 187/5/143 188/5/144 189/5/145
f 189/5/145 188/5/144 190/5/146
f 190/5/146 188/5/144 191/5/147
f 188/5/144 185/5/141 191/5/147
f 191/5/147 185/5/141 192/5/142
f 192/5/142 185/5/141 193/5/139
f 185/5/141 184/5/140 193/5/139
f 184/5/140 181/5/137 193/5/139
f 193/5/139 181/5/137 194/5/138
f 194/5/138 181/5/137 195/5/148
f 181/5/137 179/5/135 195/5/148
f 195/5/148 179/5/135 196/5/149
f 179/5/135 178/5/134 196/5/149
f 197/4/150 198/4/151 199/4/152
f 199/4/152 198/4/151 200/4/153
f 198/4/151 201/4/154 200/4/153
f 200/4/153 201/4/154 202/4/155
f 201/4/154 203/4/156 202/4/155
f 202/4/155 203/4/156 204/4/156
f 204/4/156 203/4/156 205/4/157
f 203/4/156 206/4/158 205/4/157
f 205/4/157 206/4/158 207/4/159
f 206/4/158 208/4/160 207/4/159
f 207/4/159 208/4/160 209/4/161
f 209/4/161 208/4/160 210/4/162
f 211/4/162 210/4/162 212/4/163
f 210/4/162 208/4/160 212/4/163
f 212/4/163 208/4/160 213/4/164
f 208/4/160 206/4/158 213/4/164
f 206/4/158 214/4/156 213/4/164
f 213/4/164 214/4/156 215/4/165
f 215/4/165 214/4/156 216/4/166
f 214/4/156 201/4/154 216/4/166
f 201/4/154 198/4/151 216/4/166
f 216/4/166 198/4/151 217/4/167
f 198/4/151 197/4/150 217/4/167
f 217/4/167 197/4/150 218/4/168
f 219/5/169 220/5/170 221/5/171
f 220/5/170 222/5/172 221/5/171
f 221/5/171 222/5/172 223/5/173
f 223/5/173 222/5/172 224/5/174
f 224/5/174 222/5/172 225/5/171
f 222/5/172 220/5/170 225/5/171
f 225/5/171 220/5/170 226/5/175
f 227/5/176 226/5/175 228/5/176
f 226/5/175 220/5/170 228/5/176
f 220/5/170 219/5/169 228/5/176
f 228/5/176 219/5/169 229/5/176
f 243/4/177 230/4/178 231/4/179
f 232/4/180 231/4/179 233/4/180
f 231/4/179 230/4/178 233/4/180
f 233/4/180 230/4/178 234/4/180
f 234/4/180 230/4/178 235/4/181
f 236/4/182 237/4/183 238/4/184
f 238/4/184 237/4/183 239/4/184
f 240/4/184 239/4/184 241/4/185
f 239/4/184 237/4/183 241/4/185
f 241/4/185 237/4/183 242/4/186
f 243/4/177 244/4/187 245/4/187
f 244/4/187 242/4/186 245/4/187
f 245/4/187 242/4/186 246/4/188
f 242/4/186 237/4/183 246/4/188
f 237/4/183 236/4/182 246/4/188
f 236/4/182 247/4/189 246/4/188
f 246/4/188 247/4/189 248/4/190
f 247/4/189 249/4/190 248/4/190
f 249/4/190 250/4/191 248/4/190
f 248/4/190 250/4/191 251/4/192
f 250/4/191 235/4/181 251/4/192
f 235/4/181 230/4/178 251/4/192
f 230/4/178 243/4/177 251/4/192
f 243/4/177 245/4/187 251/4/192
f 252/6/193 253/7/194 254/8/194
f 254/8/194 253/7/194 255/9/195
f 256/6/196 257/7/197 258/10/198
f 258/10/198 257/7/197 259/11/199
f 260/11/200 261/7/201 262/10/202
f 262/10/202 261/7/201 263/6/203
f 264/12/204 265/13/205 266/14/206
f 266/14/206 265/13/205 267/15/207
f 268/11/208 269/14/209 270/7/201
f 270/7/201 269/14/209 271/15/207
f 272/11/199 273/7/197 274/14/210
f 273/7/197 275/15/211 274/14/210
f 275/15/211 276/13/212 274/14/210
f 274/14/210 276/13/212 277/12/213
f 276/13/212 278/16/213 277/12/213
f 277/12/213 278/16/213 279/17/213
f 280/18/213 281/19/214 282/20/213
f 282/20/213 281/19/214 283/21/215
f 284/21/216 285/22/217 286/20/218
f 286/20/218 285/22/217 287/18/204
f 288/23/213 289/24/213 290/25/213
s 0
f 290/25/213 289/24/213 291/26/213
s 1
f 292/26/204 293/24/200 294/25/200
f 294/25/200 293/24/200 295/27/200
s 0
f 296/24/213 297/18/213 298/26/213
f 298/26/213 297/18/213 299/20/213
s 1
f 300/20/218 301/18/204 302/26/204
f 302/26/204 301/18/204 303/24/200
f 304/16/213 305/23/213 306/17/213
f 306/17/213 305/23/213 307/25/213
f 308/25/204 309/27/204 310/17/200
f 311/13/205 312/12/204 313/28/200
f 312/12/204 310/17/200 313/28/200
f 310/17/200 309/27/204 313/28/200
f 314/21/215 315/19/214 316/29/219
f 317/22/217 318/21/216 319/29/220
f 320/30/221 321/30/221 322/30/221
f 323/30/222 324/30/222 325/30/222
f 326/22/223 327/29/224 328/22/225
f 328/22/225 327/29/224 329/29/226
f 330/7/227 331/31/228 332/15/228
f 332/15/228 331/31/228 333/32/229
f 334/7/230 335/15/231 336/9/232
f 336/9/232 335/15/231 337/33/233
f 338/34/234 339/16/235 340/35/236
f 339/16/235 341/13/237 340/35/236
f 341/13/237 342/15/238 340/35/236
f 340/35/236 342/15/238 343/32/239
f 344/36/240 345/19/241 346/37/235
f 346/37/235 345/19/241 347/18/234
f 348/33/242 349/15/243 350/38/244
f 350/38/244 349/15/243 351/13/245
f 352/24/198 353/18/198 354/39/198
f 354/39/198 353/18/198 355/18/198
f 356/40/235 357/24/235 358/41/235
f 358/41/235 357/24/235 359/23/235
f 360/6/246 361/8/247 362/7/248
f 362/7/248 361/8/247 363/31/249
f 364/37/235 365/18/235 366/40/235
f 366/40/235 365/18/235 367/24/235
f 368/18/198 369/22/223 370/18/250
f 370/18/250 369/22/223 371/22/225
f 372/41/251 373/23/235 374/34/235
f 374/34/235 373/23/235 375/16/235
f 376/27/198 377/24/198 378/23/198
f 378/23/198 377/24/198 379/39/198
f 380/13/252 381/28/196 382/38/253
f 382/38/253 381/28/196 383/42/198
f 381/28/196 384/27/198 383/42/198
f 383/42/198 384/27/198 385/23/198
f 386/43/254 387/44/255 388/36/240
f 388/36/240 387/44/255 389/19/241
f 390/6/256 391/8/257 392/7/258
f 392/7/258 391/8/257 393/9/259
f 394/11/260 395/7/261 396/10/262
f 396/10/262 395/7/261 397/6/263
f 398/11/264 399/10/265 400/7/266
f 400/7/266 399/10/265 401/6/267
f 402/12/268 403/14/269 404/13/270
f 404/13/270 403/14/269 405/15/271
f 406/15/271 407/14/269 408/7/266
f 408/7/266 407/14/269 409/11/264
f 410/17/272 411/16/272 412/12/272
f 413/11/260 414/14/273 415/7/274
f 415/7/274 414/14/273 416/15/275
f 416/15/275 414/14/273 417/13/276
f 414/14/273 412/12/272 417/13/276
f 412/12/272 411/16/272 417/13/276
f 418/21/277 419/19/278 420/20/272
f 420/20/272 419/19/278 421/18/272
f 422/21/279 423/20/264 424/22/280
f 424/22/280 423/20/264 425/18/268
s 0
f 426/26/272 427/24/272 428/25/272
f 428/25/272 427/24/272 429/23/272
s 1
f 430/26/264 431/25/264 432/24/264
f 432/24/264 431/25/264 433/27/264
f 434/20/272 435/18/272 436/26/272
f 436/26/272 435/18/272 437/24/272
f 438/20/281 439/26/281 440/18/264
f 440/18/264 439/26/281 441/24/264
s 0
f 442/25/272 443/23/272 444/17/272
s 1
f 444/17/272 443/23/272 445/16/272
f 446/13/270 447/28/281 448/12/282
f 448/12/282 447/28/281 449/17/281
f 447/28/281 450/27/281 449/17/281
f 449/17/281 450/27/281 451/25/264
f 452/21/283 453/29/284 454/19/278
f 455/22/280 456/29/285 457/21/279
f 458/30/286 459/30/286 460/30/286
f 461/30/287 462/30/287 463/30/287
f 464/29/288 465/29/289 466/22/290
f 466/22/290 465/29/289 467/22/291
f 468/32/292 469/31/293 470/15/293
f 470/15/293 469/31/293 471/7/294
f 472/7/295 473/9/296 474/15/297
f 474/15/297 473/9/296 475/33/298
f 476/32/299 477/15/300 478/35/301
f 479/34/302 478/35/301 480/16/302
f 480/16/302 478/35/301 481/13/303
f 478/35/301 477/15/300 481/13/303
f 482/36/304 483/37/302 484/19/305
f 484/19/305 483/37/302 485/18/306
f 486/13/307 487/15/308 488/38/309
f 488/38/309 487/15/308 489/33/310
f 490/18/262 491/18/262 492/39/262
f 492/39/262 491/18/262 493/24/262
f 494/40/311 495/41/302 496/24/302
f 496/24/302 495/41/302 497/23/302
f 498/31/312 499/8/313 500/7/313
f 500/7/313 499/8/313 501/6/314
f 502/37/302 503/40/302 504/18/302
f 504/18/302 503/40/302 505/24/302
f 506/22/290 507/22/291 508/18/315
f 508/18/315 507/22/291 509/18/262
f 510/41/311 511/34/302 512/23/302
f 512/23/302 511/34/302 513/16/306
f 514/39/262 515/24/262 516/23/262
f 516/23/262 515/24/262 517/27/262
f 518/23/262 519/27/262 520/42/262
f 521/13/316 522/38/317 523/28/318
f 522/38/317 520/42/262 523/28/318
f 520/42/262 519/27/262 523/28/318
f 524/43/319 525/36/304 526/44/320
f 526/44/320 525/36/304 527/19/305
