# Blender 5.0.0
# www.blender.org
mtllib swordInFloor.mtl
o Sword
v -0.003142 0.589491 -0.060477
v 0.005411 0.444140 -0.006278
v -0.087789 0.588339 -0.045629
v -0.040670 0.442844 -0.000890
v -0.122852 0.594675 -0.012047
v -0.081658 0.446848 0.024669
v -0.087789 0.604788 0.020598
v -0.040670 0.455268 0.049132
v -0.003142 0.612753 0.033181
v 0.005411 0.458934 0.053288
v 0.081506 0.613904 0.018333
v 0.051491 0.460231 0.047899
v 0.116568 0.607568 -0.015249
v 0.092479 0.456226 0.022340
v 0.081506 0.597456 -0.047893
v 0.051491 0.447807 -0.002122
v 0.056848 -0.451060 0.235265
v 0.038753 -0.451569 0.237381
v 0.022657 -0.449996 0.247418
v 0.038753 -0.446690 0.257024
v 0.056848 -0.445250 0.258656
v 0.074944 -0.444741 0.256540
v 0.091039 -0.446314 0.246503
v 0.074944 -0.449620 0.236897
v 0.058496 -0.479140 0.245416
v 0.047194 -0.479402 0.246962
v 0.033052 -0.478348 0.254460
v 0.047194 -0.475771 0.261579
v 0.058496 -0.474816 0.262823
v 0.069798 -0.474554 0.261277
v 0.083940 -0.475608 0.253779
v 0.069798 -0.478185 0.246659
v -0.003142 0.594931 -0.038575
v -0.021275 0.595768 -0.031031
v -0.028786 0.599741 -0.013305
v -0.021275 0.604523 0.004221
v -0.003142 0.607313 0.011279
v 0.014992 0.606476 0.003736
v 0.022503 0.602503 -0.013991
v 0.014992 0.597721 -0.031516
v -0.004110 0.611867 -0.042781
v -0.022243 0.612704 -0.035238
v -0.029755 0.616677 -0.017511
v -0.022243 0.621460 0.000014
v -0.004110 0.624249 0.007073
v 0.014024 0.623413 -0.000471
v 0.021535 0.619439 -0.018197
v 0.014024 0.614657 -0.035723
v -0.004241 0.615887 -0.036383
v -0.017306 0.616490 -0.030948
v -0.022718 0.619352 -0.018176
v -0.017306 0.622798 -0.005548
v -0.004241 0.624808 -0.000462
v 0.008825 0.624205 -0.005898
v 0.014237 0.621342 -0.018670
v 0.008825 0.617897 -0.031297
v -0.019742 0.887014 -0.103723
v -0.032807 0.887617 -0.098288
v -0.038219 0.890480 -0.085515
v -0.032807 0.893926 -0.072888
v -0.019742 0.895936 -0.067802
v -0.006676 0.895333 -0.073237
v -0.001264 0.892470 -0.086010
v -0.006676 0.889024 -0.098637
v -0.020133 0.893226 -0.107931
v -0.035024 0.893913 -0.101736
v -0.041193 0.897176 -0.087179
v -0.035024 0.901103 -0.072786
v -0.020133 0.903395 -0.066990
v -0.005241 0.902707 -0.073185
v 0.000927 0.899444 -0.087742
v -0.005241 0.895517 -0.102134
v -0.021826 0.922846 -0.115287
v -0.036718 0.923533 -0.109093
v -0.042886 0.926796 -0.094535
v -0.036718 0.930724 -0.080143
v -0.021826 0.933015 -0.074346
v -0.006934 0.932328 -0.080541
v -0.000766 0.929065 -0.095099
v -0.006934 0.925137 -0.109491
v -0.022191 0.929669 -0.115087
v -0.035784 0.930297 -0.109432
v -0.041414 0.933275 -0.096144
v -0.035784 0.936860 -0.083007
v -0.022191 0.938951 -0.077716
v -0.008598 0.938324 -0.083371
v -0.002967 0.935345 -0.096659
v -0.008598 0.931761 -0.109796
v -0.022477 0.936357 -0.109589
v -0.031165 0.936758 -0.105975
v -0.034764 0.938661 -0.097482
v -0.031165 0.940952 -0.089086
v -0.022477 0.942289 -0.085704
v -0.013790 0.941888 -0.089318
v -0.010191 0.939984 -0.097811
v -0.013790 0.937693 -0.106207
v -0.000769 0.548870 -0.046627
v -0.079013 0.547805 -0.032902
v -0.111423 0.553662 -0.001860
v -0.079013 0.563010 0.028315
v -0.000769 0.570372 0.039946
v 0.077475 0.571437 0.026222
v 0.109885 0.565580 -0.004820
v 0.077475 0.556232 -0.034995
v -0.083401 0.568072 -0.039265
v -0.117137 0.574169 -0.006953
v -0.083401 0.583899 0.024456
v -0.001955 0.591562 0.036564
v 0.079491 0.592671 0.022277
v 0.113227 0.586574 -0.010034
v 0.079491 0.576844 -0.041444
v -0.001955 0.569180 -0.053552
v 0.044699 -0.500258 0.259902
v 0.059780 -0.497921 0.265843
v 0.074863 -0.498634 0.259498
v 0.059780 -0.500972 0.253557
v 0.060735 -0.516148 0.263848
vn -0.1359 -0.3488 -0.9273
vn -0.5953 -0.3862 -0.7046
vn -0.5953 -0.0117 0.8034
vn -0.1359 0.1255 0.9827
vn 0.1478 0.1408 0.9789
vn 0.6143 0.0535 0.7873
vn -0.5289 -0.2620 -0.8072
vn 0.6143 -0.3211 -0.7208
vn 0.1478 -0.3336 -0.9311
vn -0.0554 0.9690 -0.2407
vn -0.1069 0.1282 0.9860
vn -0.1176 0.1228 0.9854
vn -0.1128 0.1252 0.9857
vn 0.1069 0.2260 0.9682
vn 0.1069 -0.2533 -0.9615
vn -0.1047 -0.2647 -0.9586
vn -0.5289 0.1461 0.8360
vn 0.5323 0.2033 0.8218
vn -0.1047 0.2146 0.9711
vn 0.5323 -0.2049 -0.8214
vn -0.4049 -0.0214 0.9141
vn -0.4865 -0.3938 -0.7799
vn 0.5050 -0.3404 -0.7932
vn 0.1188 0.1404 0.9829
vn 0.1249 0.1380 0.9825
vn 0.1299 0.1361 0.9821
vn -0.4865 0.0168 0.8735
vn -0.1069 -0.3480 -0.9314
vn -0.1128 -0.3505 -0.9298
vn -0.1176 -0.3525 -0.9284
vn 0.1188 -0.3358 -0.9344
vn 0.1299 -0.3392 -0.9317
vn 0.1249 -0.3377 -0.9329
vn 0.5050 0.0702 0.8603
vn 0.3821 0.2433 0.8915
vn 0.2573 0.8986 -0.3555
vn -0.9225 0.0426 0.3837
vn -0.3821 -0.2433 -0.8915
vn 0.3821 -0.2021 -0.9017
vn 0.9225 0.1419 0.3591
vn -0.3821 0.2021 0.9017
vn -0.9225 -0.1419 -0.3591
vn 0.9225 -0.0426 -0.3837
vn 0.0760 0.9945 0.0724
vn -0.3617 0.9271 -0.0980
vn -0.1804 0.8312 -0.5259
vn 0.0760 0.8450 -0.5293
vn 0.2574 0.9605 -0.1062
vn -0.1804 0.9807 0.0759
vn -0.3617 0.8652 -0.3472
vn -0.3441 -0.5413 -0.7672
vn 0.3797 -0.5023 -0.7769
vn 0.8915 -0.1765 0.4173
vn -0.3441 -0.1195 0.9313
vn -0.8559 -0.4453 -0.2629
vn 0.8915 -0.3512 -0.2862
vn 0.3797 -0.0805 0.9216
vn -0.8559 -0.2706 0.4407
vn -0.9070 0.1048 -0.4078
vn 0.1966 0.6277 -0.7532
vn 0.8793 0.2010 -0.4317
vn 0.3561 0.4777 0.8031
vn -0.9070 0.2834 0.3114
vn -0.3838 0.0066 -0.9234
vn 0.3561 0.0465 -0.9333
vn 0.8793 0.3796 0.2875
vn -0.3838 0.4379 0.8130
vn 0.5357 0.8436 0.0379
vn -0.2829 0.8813 0.3784
vn -0.6220 0.6655 -0.4127
vn 0.5357 0.7278 -0.4282
vn 0.1966 0.9072 0.3720
vn -0.6220 0.7812 0.0534
vn -0.2829 0.6019 -0.7468
vn 0.1682 -0.3093 -0.9360
vn 0.6964 -0.2754 -0.6627
vn 0.6964 0.0666 0.7145
vn 0.1682 0.1646 0.9719
vn -0.1590 0.1469 0.9763
vn -0.6802 -0.0075 0.7330
vn -0.6802 -0.3496 -0.6443
vn -0.1590 -0.3269 -0.9316
vn -0.1187 -0.3530 -0.9280
vn 0.1312 -0.3396 -0.9314
vn 0.4291 0.0235 0.9029
vn -0.1187 0.1222 0.9854
vn -0.4049 -0.4466 -0.7979
vn 0.4291 -0.4017 -0.8090
vn 0.1312 0.1356 0.9820
vn 0.3832 -0.5017 -0.7755
vn -0.3477 -0.5411 -0.7657
vn 0.3832 -0.0806 0.9201
vn -0.3477 -0.1200 0.9299
vt 1.000000 0.638720
vt 1.000000 1.000000
vt 0.875000 1.000000
vt 0.875000 0.638720
vt 0.750000 1.000000
vt 0.750000 0.638720
vt 0.625000 1.000000
vt 0.625000 0.638720
vt 0.500000 1.000000
vt 0.500000 0.638720
vt 0.375000 1.000000
vt 0.375000 0.638720
vt 0.250000 1.000000
vt 0.250000 0.638720
vt 0.125000 1.000000
vt 0.125000 0.638720
vt 0.000000 1.000000
vt 0.000000 0.638719
vt 0.375000 0.500000
vt 0.250000 0.500000
vt 0.500000 0.500000
vt 0.625000 0.500000
vt 0.125000 0.500000
vt 0.875000 0.500000
vt 0.750000 0.500000
vt 0.000000 0.500000
vt 1.000000 0.500000
vt 0.750000 0.490000
vt 0.919706 0.419706
vt 0.990000 0.250000
vt 0.919706 0.080294
vt 0.750000 0.010000
vt 0.580294 0.080294
vt 0.510000 0.250000
vt 0.580294 0.419706
vt 0.125000 0.569360
vt 0.000000 0.569360
vt 0.250000 0.569360
vt 0.375000 0.569360
vt 0.500000 0.569360
vt 0.625000 0.569360
vt 0.750000 0.569360
vt 0.875000 0.569360
vt 1.000000 0.569360
s 1
g Sword_Material.001
usemtl Material.001
f 37/21/35 38/19/35 46/19/35 45/21/35
f 47/20/36 48/23/36 56/23/36 55/20/36
f 35/25/37 36/22/37 44/22/37 43/25/37
f 33/27/38 34/24/38 42/24/38 41/27/38
f 40/23/39 33/26/39 41/26/39 48/23/39
f 38/19/40 39/20/40 47/20/40 46/19/40
f 36/22/41 37/21/41 45/21/41 44/22/41
f 34/24/42 35/25/42 43/25/42 42/24/42
f 39/20/43 40/23/43 48/23/43 47/20/43
f 45/21/44 46/19/44 54/19/44 53/21/44
f 43/25/45 44/22/45 52/22/45 51/25/45
f 41/27/46 42/24/46 50/24/46 49/27/46
f 48/23/47 41/26/47 49/26/47 56/23/47
f 46/19/48 47/20/48 55/20/48 54/19/48
f 44/22/49 45/21/49 53/21/49 52/22/49
f 42/24/50 43/25/50 51/25/50 50/24/50
f 57/27/51 58/24/51 66/24/51 65/27/51
f 71/20/43 72/23/43 80/23/43 79/20/43
f 64/23/52 57/26/52 65/26/52 72/23/52
f 62/19/53 63/20/53 71/20/53 70/19/53
f 60/22/54 61/21/54 69/21/54 68/22/54
f 58/24/55 59/25/55 67/25/55 66/24/55
f 63/20/56 64/23/56 72/23/56 71/20/56
f 61/21/57 62/19/57 70/19/57 69/21/57
f 59/25/58 60/22/58 68/22/58 67/25/58
f 74/24/59 75/25/59 83/25/59 82/24/59
f 69/21/35 70/19/35 78/19/35 77/21/35
f 67/25/37 68/22/37 76/22/37 75/25/37
f 65/27/38 66/24/38 74/24/38 73/27/38
f 72/23/39 65/26/39 73/26/39 80/23/39
f 70/19/40 71/20/40 79/20/40 78/19/40
f 68/22/41 69/21/41 77/21/41 76/22/41
f 66/24/42 67/25/42 75/25/42 74/24/42
f 88/23/60 81/26/60 89/26/60 96/23/60
f 79/20/61 80/23/61 88/23/61 87/20/61
f 77/21/62 78/19/62 86/19/62 85/21/62
f 75/25/63 76/22/63 84/22/63 83/25/63
f 73/27/64 74/24/64 82/24/64 81/27/64
f 80/23/65 73/26/65 81/26/65 88/23/65
f 78/19/66 79/20/66 87/20/66 86/19/66
f 76/22/67 77/21/67 85/21/67 84/22/67
f 89/28/10 90/29/10 91/30/10 92/31/10 93/32/10 94/33/10 95/34/10 96/35/10
f 86/19/68 87/20/68 95/20/68 94/19/68
f 84/22/69 85/21/69 93/21/69 92/22/69
f 82/24/70 83/25/70 91/25/70 90/24/70
f 87/20/71 88/23/71 96/23/71 95/20/71
f 85/21/72 86/19/72 94/19/72 93/21/72
f 83/25/73 84/22/73 92/22/73 91/25/73
f 81/27/74 82/24/74 90/24/74 89/27/74
f 111/36/75 104/16/75 97/18/75 112/37/75
f 110/38/76 103/14/76 104/16/76 111/36/76
f 109/39/77 102/12/77 103/14/77 110/38/77
f 108/40/78 101/10/78 102/12/78 109/39/78
f 107/41/79 100/8/79 101/10/79 108/40/79
f 106/42/80 99/6/80 100/8/80 107/41/80
f 105/43/81 98/4/81 99/6/81 106/42/81
f 112/44/82 97/1/82 98/4/82 105/43/82
f 1/27/82 112/44/82 105/43/82 3/24/82
f 3/24/81 105/43/81 106/42/81 5/25/81
f 5/25/80 106/42/80 107/41/80 7/22/80
f 7/22/79 107/41/79 108/40/79 9/21/79
f 9/21/78 108/40/78 109/39/78 11/19/78
f 11/19/77 109/39/77 110/38/77 13/20/77
f 13/20/76 110/38/76 111/36/76 15/23/76
f 15/23/75 111/36/75 112/37/75 1/26/75
g Sword_Material.002
usemtl Material.002
f 11/19/10 13/20/10 39/20/10 38/19/10
f 7/22/10 9/21/10 37/21/10 36/22/10
f 13/20/10 15/23/10 40/23/10 39/20/10
f 3/24/10 5/25/10 35/25/10 34/24/10
f 9/21/10 11/19/10 38/19/10 37/21/10
f 15/23/10 1/26/10 33/26/10 40/23/10
f 1/27/10 3/24/10 34/24/10 33/27/10
f 5/25/10 7/22/10 36/22/10 35/25/10
f 54/19/40 55/20/40 63/20/40 62/19/40
f 52/22/41 53/21/41 61/21/41 60/22/41
f 50/24/42 51/25/42 59/25/42 58/24/42
f 55/20/43 56/23/43 64/23/43 63/20/43
f 53/21/35 54/19/35 62/19/35 61/21/35
f 51/25/37 52/22/37 60/22/37 59/25/37
f 49/27/38 50/24/38 58/24/38 57/27/38
f 56/23/39 49/26/39 57/26/39 64/23/39
g Sword_Material.003
usemtl Material.003
f 98/4/2 4/3/2 6/5/2 99/6/2
f 99/6/3 6/5/3 8/7/3 100/8/3
f 102/12/6 12/11/6 14/13/6 103/14/6
f 6/5/7 4/3/7 18/3/7 19/5/7
f 103/14/8 14/13/8 16/15/8 104/16/8
f 8/7/17 6/5/17 19/5/17 20/7/17
f 14/13/18 12/11/18 22/11/18 23/13/18
f 16/15/20 14/13/20 23/13/20 24/15/20
f 28/7/21 27/5/21 113/5/21 114/7/21
f 19/5/22 18/3/22 26/3/22 27/5/22
f 24/15/23 23/13/23 31/13/23 32/15/23
f 20/7/27 19/5/27 27/5/27 28/7/27
f 23/13/34 22/11/34 30/11/34 31/13/34
f 31/13/85 30/11/85 114/11/85 115/13/85
f 27/5/87 26/3/87 116/3/87 113/5/87
f 32/15/88 31/13/88 115/13/88 116/15/88
f 116/15/90 115/13/90 117/15/90
f 113/5/91 116/3/91 117/5/91
f 115/13/92 114/11/92 117/13/92
f 114/7/93 113/5/93 117/7/93
g Sword_Material.004
usemtl Material.004
f 97/1/1 2/2/1 4/3/1 98/4/1
f 100/8/4 8/7/4 10/9/4 101/10/4
f 101/10/5 10/9/5 12/11/5 102/12/5
f 104/16/9 16/15/9 2/17/9 97/18/9
f 21/9/11 20/7/11 28/7/12 29/9/13
f 12/11/14 10/9/14 21/9/14 22/11/14
f 2/17/15 16/15/15 24/15/15 17/17/15
f 4/3/16 2/2/16 17/2/16 18/3/16
f 10/9/19 8/7/19 20/7/19 21/9/19
f 22/11/24 21/9/24 29/9/25 30/11/26
f 18/3/28 17/2/28 25/2/29 26/3/30
f 17/17/31 24/15/31 32/15/32 25/17/33
f 26/3/30 25/2/29 116/3/83
f 25/17/33 32/15/32 116/17/84
f 29/9/13 28/7/12 114/9/86
f 30/11/26 29/9/25 114/11/89
