# Blender 5.0.0
# www.blender.org
mtllib sword2.mtl
o Sword
v 0.000000 0.351974 -0.048252
v -0.000000 0.506340 -0.030688
v 0.084778 0.351974 -0.034119
v 0.046151 0.506340 -0.025771
v 0.119894 0.351974 0.000000
v 0.087202 0.506340 -0.000000
v 0.084778 0.351974 0.034119
v 0.046151 0.506340 0.025771
v -0.000000 0.351974 0.048252
v -0.000000 0.506340 0.030688
v -0.084778 0.351974 0.034119
v -0.046151 0.506340 0.025771
v -0.119894 0.351974 0.000000
v -0.087202 0.506340 -0.000000
v -0.084778 0.351974 -0.034119
v -0.046151 0.506340 -0.025771
v -0.000000 1.434793 -0.012051
v 0.018123 1.434793 -0.010120
v 0.034244 1.434793 -0.000000
v 0.018123 1.434793 0.010120
v -0.000000 1.434793 0.012051
v -0.018123 1.434793 0.010120
v -0.034244 1.434793 -0.000000
v -0.018123 1.434793 -0.010120
v -0.000000 1.464537 -0.008968
v 0.011320 1.464537 -0.007531
v 0.025483 1.464537 -0.000000
v 0.011320 1.464537 0.007531
v -0.000000 1.464537 0.008968
v -0.011320 1.464537 0.007531
v -0.025483 1.464537 -0.000000
v -0.011320 1.464537 -0.007531
v -0.000000 0.351973 -0.025684
v 0.018161 0.351973 -0.018161
v 0.025684 0.351973 0.000000
v 0.018161 0.351973 0.018161
v -0.000000 0.351973 0.025684
v -0.018161 0.351973 0.018161
v -0.025684 0.351973 0.000000
v -0.018161 0.351973 -0.018161
v -0.000000 0.334496 -0.025684
v 0.018161 0.334496 -0.018161
v 0.025684 0.334496 0.000000
v 0.018161 0.334496 0.018161
v -0.000000 0.334496 0.025684
v -0.018161 0.334496 0.018161
v -0.025684 0.334496 0.000000
v -0.018161 0.334496 -0.018161
v -0.000000 0.332133 -0.018506
v 0.013086 0.332133 -0.013086
v 0.018506 0.332133 0.000000
v 0.013086 0.332133 0.013086
v -0.000000 0.332133 0.018506
v -0.013086 0.332133 0.013086
v -0.018506 0.332133 0.000000
v -0.013086 0.332133 -0.013086
v 0.000000 0.052339 -0.018506
v 0.013086 0.052339 -0.013086
v 0.018506 0.052339 0.000000
v 0.013086 0.052339 0.013086
v 0.000000 0.052339 0.018506
v -0.013086 0.052339 0.013086
v -0.018506 0.052339 0.000000
v -0.013086 0.052339 -0.013086
v 0.000000 0.045285 -0.021092
v 0.014915 0.045285 -0.014915
v 0.021092 0.045285 0.000000
v 0.014915 0.045285 0.014915
v 0.000000 0.045285 0.021092
v -0.014915 0.045285 0.014915
v -0.021092 0.045285 0.000000
v -0.014915 0.045285 -0.014915
v 0.000000 0.014718 -0.021092
v 0.014915 0.014718 -0.014915
v 0.021092 0.014718 0.000000
v 0.014915 0.014718 0.014915
v 0.000000 0.014718 0.021093
v -0.014915 0.014718 0.014915
v -0.021092 0.014718 0.000000
v -0.014915 0.014718 -0.014915
v 0.000000 0.008134 -0.019253
v 0.013614 0.008134 -0.013614
v 0.019253 0.008134 0.000000
v 0.013614 0.008134 0.013614
v 0.000000 0.008134 0.019253
v -0.013614 0.008134 0.013614
v -0.019253 0.008134 0.000000
v -0.013614 0.008134 -0.013614
v 0.000000 0.002961 -0.012305
v 0.008701 0.002961 -0.008701
v 0.012305 0.002961 0.000000
v 0.008701 0.002961 0.008701
v 0.000000 0.002961 0.012305
v -0.008701 0.002961 0.008701
v -0.012305 0.002961 0.000000
v -0.008701 0.002961 -0.008701
v -0.000000 0.394801 -0.044602
v 0.078364 0.394801 -0.031538
v 0.110824 0.394801 0.000000
v 0.078364 0.394801 0.031538
v -0.000000 0.394801 0.044602
v -0.078364 0.394801 0.031538
v -0.110824 0.394801 0.000000
v -0.078365 0.394801 -0.031538
v 0.081571 0.373387 -0.032829
v 0.115359 0.373387 0.000000
v 0.081571 0.373387 0.032829
v -0.000000 0.373387 0.046427
v -0.081571 0.373387 0.032829
v -0.115359 0.373387 0.000000
v -0.081571 0.373387 -0.032829
v -0.000000 0.373387 -0.046427
v 0.015105 1.487723 -0.000000
v 0.000000 1.487723 0.006329
v -0.015105 1.487723 -0.000000
v 0.000000 1.487723 -0.006329
v 0.000000 1.504959 -0.000000
vn 0.1421 0.1073 -0.9840
vn 0.6057 0.1717 -0.7769
vn 0.6057 0.1717 0.7769
vn 0.1421 0.1073 0.9840
vn -0.1421 0.1073 0.9840
vn -0.6057 0.1717 0.7769
vn 0.5314 0.0303 -0.8466
vn -0.6057 0.1717 -0.7769
vn -0.1421 0.1073 -0.9840
vn -0.0000 -1.0000 -0.0000
vn 0.1130 0.1071 0.9878
vn 0.1239 0.1117 0.9860
vn 0.1190 0.1096 0.9868
vn -0.1059 0.0200 0.9942
vn -0.1059 0.0200 -0.9942
vn 0.1059 0.0200 -0.9942
vn 0.5314 0.0303 0.8466
vn -0.5314 0.0303 0.8466
vn 0.1059 0.0200 0.9942
vn -0.5314 0.0303 -0.8466
vn 0.4177 0.2183 0.8820
vn 0.4965 0.1670 -0.8518
vn -0.4965 0.1670 -0.8518
vn -0.1130 0.1071 0.9878
vn -0.1190 0.1096 0.9868
vn -0.1239 0.1117 0.9860
vn 0.4965 0.1670 0.8518
vn 0.1130 0.1071 -0.9878
vn 0.1190 0.1096 -0.9868
vn 0.1239 0.1117 -0.9860
vn -0.1130 0.1071 -0.9878
vn -0.1239 0.1117 -0.9860
vn -0.1190 0.1096 -0.9868
vn -0.4965 0.1670 0.8518
vn -0.3827 -0.0000 0.9239
vn -0.3100 -0.9420 -0.1284
vn 0.9239 -0.0000 0.3827
vn 0.3827 -0.0000 -0.9239
vn -0.3827 -0.0000 -0.9239
vn -0.9239 -0.0000 0.3827
vn 0.3827 -0.0000 0.9239
vn 0.9239 -0.0000 -0.3827
vn -0.9239 -0.0000 -0.3827
vn -0.1284 -0.9420 0.3100
vn 0.3100 -0.9420 0.1284
vn 0.1284 -0.9420 -0.3100
vn -0.1284 -0.9420 -0.3100
vn -0.3100 -0.9420 0.1284
vn 0.1284 -0.9420 0.3100
vn 0.3100 -0.9420 -0.1284
vn 0.3625 0.3209 -0.8750
vn -0.3625 0.3209 -0.8750
vn -0.8750 0.3209 0.3625
vn 0.3624 0.3209 0.8750
vn 0.8750 0.3209 -0.3624
vn -0.8750 0.3209 -0.3625
vn -0.3624 0.3209 0.8750
vn 0.8750 0.3209 0.3625
vn 0.8946 -0.2499 -0.3705
vn -0.2401 -0.7786 -0.5797
vn -0.8946 -0.2499 -0.3705
vn -0.3705 -0.2499 0.8946
vn 0.8946 -0.2499 0.3705
vn 0.3705 -0.2499 -0.8946
vn -0.3705 -0.2499 -0.8946
vn -0.8946 -0.2499 0.3705
vn 0.3705 -0.2499 0.8946
vn -0.5797 -0.7786 0.2401
vn 0.2401 -0.7786 0.5797
vn 0.5797 -0.7786 -0.2401
vn -0.5797 -0.7786 -0.2401
vn -0.2401 -0.7786 0.5797
vn 0.5797 -0.7786 0.2401
vn 0.2401 -0.7786 -0.5797
vn -0.1639 0.0838 -0.9829
vn -0.6894 0.1460 -0.7095
vn -0.6894 0.1460 0.7095
vn -0.1639 0.0838 0.9829
vn 0.1639 0.0838 0.9829
vn 0.6894 0.1460 0.7095
vn 0.6894 0.1460 -0.7095
vn 0.1639 0.0838 -0.9829
vn 0.1251 0.1122 -0.9858
vn -0.1251 0.1122 -0.9858
vn -0.4177 0.2183 0.8820
vn 0.1251 0.1122 0.9858
vn 0.4177 0.2183 -0.8820
vn -0.4177 0.2183 -0.8820
vn -0.1251 0.1122 0.9858
vn -0.3660 0.3208 -0.8736
vn 0.3660 0.3208 -0.8736
vn -0.3660 0.3208 0.8736
vn 0.3660 0.3208 0.8736
vt 1.000000 0.638720
vt 1.000000 1.000000
vt 0.875000 1.000000
vt 0.875000 0.638720
vt 0.750000 1.000000
vt 0.750000 0.638720
vt 0.625000 1.000000
vt 0.625000 0.638720
vt 0.500000 1.000000
vt 0.500000 0.638720
vt 0.375000 1.000000
vt 0.375000 0.638720
vt 0.250000 1.000000
vt 0.250000 0.638720
vt 0.125000 1.000000
vt 0.125000 0.638720
vt 0.000000 1.000000
vt 0.000000 0.638719
vt 0.375000 0.500000
vt 0.250000 0.500000
vt 0.500000 0.500000
vt 0.625000 0.500000
vt 0.125000 0.500000
vt 0.875000 0.500000
vt 0.750000 0.500000
vt 0.000000 0.500000
vt 1.000000 0.500000
vt 0.750000 0.490000
vt 0.919706 0.419706
vt 0.990000 0.250000
vt 0.919706 0.080294
vt 0.750000 0.010000
vt 0.580294 0.080294
vt 0.510000 0.250000
vt 0.580294 0.419706
vt 0.125000 0.569360
vt 0.000000 0.569360
vt 0.250000 0.569360
vt 0.375000 0.569360
vt 0.500000 0.569360
vt 0.625000 0.569360
vt 0.750000 0.569360
vt 0.875000 0.569360
vt 1.000000 0.569360
s 1
g Sword_Material.001
usemtl Material.001
f 37/21/35 38/19/35 46/19/35 45/21/35
f 47/20/36 48/23/36 56/23/36 55/20/36
f 35/25/37 36/22/37 44/22/37 43/25/37
f 33/27/38 34/24/38 42/24/38 41/27/38
f 40/23/39 33/26/39 41/26/39 48/23/39
f 38/19/40 39/20/40 47/20/40 46/19/40
f 36/22/41 37/21/41 45/21/41 44/22/41
f 34/24/42 35/25/42 43/25/42 42/24/42
f 39/20/43 40/23/43 48/23/43 47/20/43
f 45/21/44 46/19/44 54/19/44 53/21/44
f 43/25/45 44/22/45 52/22/45 51/25/45
f 41/27/46 42/24/46 50/24/46 49/27/46
f 48/23/47 41/26/47 49/26/47 56/23/47
f 46/19/48 47/20/48 55/20/48 54/19/48
f 44/22/49 45/21/49 53/21/49 52/22/49
f 42/24/50 43/25/50 51/25/50 50/24/50
f 57/27/51 58/24/51 66/24/51 65/27/51
f 71/20/43 72/23/43 80/23/43 79/20/43
f 64/23/52 57/26/52 65/26/52 72/23/52
f 62/19/53 63/20/53 71/20/53 70/19/53
f 60/22/54 61/21/54 69/21/54 68/22/54
f 58/24/55 59/25/55 67/25/55 66/24/55
f 63/20/56 64/23/56 72/23/56 71/20/56
f 61/21/57 62/19/57 70/19/57 69/21/57
f 59/25/58 60/22/58 68/22/58 67/25/58
f 74/24/59 75/25/59 83/25/59 82/24/59
f 69/21/35 70/19/35 78/19/35 77/21/35
f 67/25/37 68/22/37 76/22/37 75/25/37
f 65/27/38 66/24/38 74/24/38 73/27/38
f 72/23/39 65/26/39 73/26/39 80/23/39
f 70/19/40 71/20/40 79/20/40 78/19/40
f 68/22/41 69/21/41 77/21/41 76/22/41
f 66/24/42 67/25/42 75/25/42 74/24/42
f 88/23/60 81/26/60 89/26/60 96/23/60
f 79/20/61 80/23/61 88/23/61 87/20/61
f 77/21/62 78/19/62 86/19/62 85/21/62
f 75/25/63 76/22/63 84/22/63 83/25/63
f 73/27/64 74/24/64 82/24/64 81/27/64
f 80/23/65 73/26/65 81/26/65 88/23/65
f 78/19/66 79/20/66 87/20/66 86/19/66
f 76/22/67 77/21/67 85/21/67 84/22/67
f 89/28/10 90/29/10 91/30/10 92/31/10 93/32/10 94/33/10 95/34/10 96/35/10
f 86/19/68 87/20/68 95/20/68 94/19/68
f 84/22/69 85/21/69 93/21/69 92/22/69
f 82/24/70 83/25/70 91/25/70 90/24/70
f 87/20/71 88/23/71 96/23/71 95/20/71
f 85/21/72 86/19/72 94/19/72 93/21/72
f 83/25/73 84/22/73 92/22/73 91/25/73
f 81/27/74 82/24/74 90/24/74 89/27/74
f 111/36/75 104/16/75 97/18/75 112/37/75
f 110/38/76 103/14/76 104/16/76 111/36/76
f 109/39/77 102/12/77 103/14/77 110/38/77
f 108/40/78 101/10/78 102/12/78 109/39/78
f 107/41/79 100/8/79 101/10/79 108/40/79
f 106/42/80 99/6/80 100/8/80 107/41/80
f 105/43/81 98/4/81 99/6/81 106/42/81
f 112/44/82 97/1/82 98/4/82 105/43/82
f 1/27/82 112/44/82 105/43/82 3/24/82
f 3/24/81 105/43/81 106/42/81 5/25/81
f 5/25/80 106/42/80 107/41/80 7/22/80
f 7/22/79 107/41/79 108/40/79 9/21/79
f 9/21/78 108/40/78 109/39/78 11/19/78
f 11/19/77 109/39/77 110/38/77 13/20/77
f 13/20/76 110/38/76 111/36/76 15/23/76
f 15/23/75 111/36/75 112/37/75 1/26/75
g Sword_Material.002
usemtl Material.002
f 11/19/10 13/20/10 39/20/10 38/19/10
f 7/22/10 9/21/10 37/21/10 36/22/10
f 13/20/10 15/23/10 40/23/10 39/20/10
f 3/24/10 5/25/10 35/25/10 34/24/10
f 9/21/10 11/19/10 38/19/10 37/21/10
f 15/23/10 1/26/10 33/26/10 40/23/10
f 1/27/10 3/24/10 34/24/10 33/27/10
f 5/25/10 7/22/10 36/22/10 35/25/10
f 54/19/40 55/20/40 63/20/40 62/19/40
f 52/22/41 53/21/41 61/21/41 60/22/41
f 50/24/42 51/25/42 59/25/42 58/24/42
f 55/20/43 56/23/43 64/23/43 63/20/43
f 53/21/35 54/19/35 62/19/35 61/21/35
f 51/25/37 52/22/37 60/22/37 59/25/37
f 49/27/38 50/24/38 58/24/38 57/27/38
f 56/23/39 49/26/39 57/26/39 64/23/39
g Sword_Material.003
usemtl Material.003
f 98/4/2 4/3/2 6/5/2 99/6/2
f 99/6/3 6/5/3 8/7/3 100/8/3
f 102/12/6 12/11/6 14/13/6 103/14/6
f 6/5/7 4/3/7 18/3/7 19/5/7
f 103/14/8 14/13/8 16/15/8 104/16/8
f 8/7/17 6/5/17 19/5/17 20/7/17
f 14/13/18 12/11/18 22/11/18 23/13/18
f 16/15/20 14/13/20 23/13/20 24/15/20
f 28/7/21 27/5/21 113/5/21 114/7/21
f 19/5/22 18/3/22 26/3/22 27/5/22
f 24/15/23 23/13/23 31/13/23 32/15/23
f 20/7/27 19/5/27 27/5/27 28/7/27
f 23/13/34 22/11/34 30/11/34 31/13/34
f 31/13/85 30/11/85 114/11/85 115/13/85
f 27/5/87 26/3/87 116/3/87 113/5/87
f 32/15/88 31/13/88 115/13/88 116/15/88
f 116/15/90 115/13/90 117/15/90
f 113/5/91 116/3/91 117/5/91
f 115/13/92 114/11/92 117/13/92
f 114/7/93 113/5/93 117/7/93
g Sword_Material.004
usemtl Material.004
f 97/1/1 2/2/1 4/3/1 98/4/1
f 100/8/4 8/7/4 10/9/4 101/10/4
f 101/10/5 10/9/5 12/11/5 102/12/5
f 104/16/9 16/15/9 2/17/9 97/18/9
f 21/9/11 20/7/11 28/7/12 29/9/13
f 12/11/14 10/9/14 21/9/14 22/11/14
f 2/17/15 16/15/15 24/15/15 17/17/15
f 4/3/16 2/2/16 17/2/16 18/3/16
f 10/9/19 8/7/19 20/7/19 21/9/19
f 22/11/24 21/9/24 29/9/25 30/11/26
f 18/3/28 17/2/28 25/2/29 26/3/30
f 17/17/31 24/15/31 32/15/32 25/17/33
f 26/3/30 25/2/29 116/3/83
f 25/17/33 32/15/32 116/17/84
f 29/9/13 28/7/12 114/9/86
f 30/11/26 29/9/25 114/11/89
