# Blender 5.0.0
# www.blender.org
mtllib wall.mtl
o pillar_with_wall_C
v -0.277767 0.007752 0.920767
v 0.258076 0.007998 1.462079
v 0.203391 -1.016142 1.395945
v -0.207236 -1.015636 0.974395
v -0.276048 -0.961555 0.917309
v -0.251863 -0.400207 0.945132
v 0.263291 -0.350602 1.458931
v 0.263077 -0.458106 1.460556
v 0.233991 -0.400277 1.434072
v 0.341649 -1.338928 1.528146
v -0.350211 -1.339154 0.843273
v -0.400105 -1.492675 0.787246
v 0.395635 -1.492675 1.582986
v -0.278371 -0.299572 1.409248
v -0.278162 0.007237 1.408813
v -0.278826 0.007371 0.972840
v -0.276304 -0.300056 0.971418
v 0.260091 -0.302062 0.972578
v 0.259492 0.005341 0.972469
v 0.261772 0.007938 1.410847
v 0.263698 -0.298097 1.406526
v 0.208109 -0.298573 1.458796
v 0.212440 0.007938 1.462612
v -0.224873 0.003909 1.457509
v -0.225505 -0.297570 1.460545
v -0.226465 -0.300627 0.921368
v -0.230098 0.008073 0.923666
v 0.210174 0.007939 0.919821
v 0.210530 -0.298748 0.920240
v -0.250519 0.009723 1.382230
v -0.249318 0.008633 0.995281
v 0.185913 0.006781 1.433893
v -0.202660 0.007403 1.431804
v 0.230990 0.006888 0.993781
v 0.234184 0.004107 1.387290
v -0.199839 0.008901 0.952112
v 0.186180 0.006034 0.948959
v -0.247356 -0.281666 1.385930
v -0.249580 -0.283026 0.996109
v 0.233009 -0.283511 0.993018
v 0.231558 -0.283744 1.385070
v 0.186993 -0.282502 1.431819
v -0.199358 -0.280039 1.434890
v -0.202596 -0.282503 0.949339
v 0.184887 -0.285988 0.950985
v -0.342805 -1.060442 1.507712
v -0.280390 0.009373 1.438322
v -0.252631 0.009295 1.462774
v 0.183688 -1.015381 0.974163
v 0.204815 -1.012761 0.998741
v -0.186561 -1.014122 1.393395
v -0.210784 -1.013832 1.372989
v 0.259875 -0.958794 0.948524
v 0.237277 -0.956593 0.919470
v -0.254142 -0.962524 1.463130
v -0.278614 -0.960281 1.437746
v 0.241375 -0.347931 0.920192
v 0.259323 -0.344719 0.945903
v 0.235629 -0.458187 0.920253
v 0.263629 -0.457813 0.943903
v 0.234989 -0.402946 0.973955
v 0.207053 -0.405287 0.947057
v -0.254884 -0.349171 1.460930
v -0.276600 -0.344128 1.438158
v -0.278197 -0.458789 1.437558
v -0.251641 -0.461355 1.462786
v -0.252139 -0.401909 1.410665
v -0.222357 -0.403358 1.430909
v 0.317847 -1.338941 0.842289
v 0.343602 -1.339344 0.867739
v -0.319501 -1.337167 1.529017
v -0.342245 -1.338729 1.506710
v 0.371821 -1.492674 0.787246
v 0.395635 -1.492674 0.811060
v -0.376290 -1.492675 1.582986
v -0.400104 -1.492675 1.559172
v 0.397740 -1.340193 0.813272
v -0.403027 -1.342018 1.559168
v -0.375222 -1.338346 1.584822
v -0.280182 -0.347146 0.944214
v -0.278797 -0.330688 0.935126
v -0.274232 -0.325689 0.919790
v -0.261382 -0.332107 0.917359
v -0.252661 -0.344060 0.918444
v -0.270875 -0.365397 0.927053
v -0.276069 -0.457245 0.958518
v -0.267197 -0.430156 0.935798
v -0.240397 -0.457798 0.920370
v -0.276117 -0.492376 0.924823
v 0.226527 -0.959651 1.461559
v 0.244155 -0.986958 1.442181
v 0.260403 -0.959128 1.420033
v 0.264356 -0.927606 1.461167
v 0.315175 -1.060490 1.531781
v 0.339581 -1.082967 1.528806
v 0.342561 -1.060607 1.508668
v 0.325164 -1.060746 1.512301
v 0.378757 -1.339170 1.584182
v 0.396547 -1.355022 1.583171
v 0.395691 -1.339294 1.560229
v 0.381862 -1.338706 1.567878
v -0.386429 -1.338114 0.802479
v -0.382325 -1.339082 0.787472
v -0.401750 -1.355866 0.785904
v -0.401572 -1.336430 0.807800
v -0.320456 -1.088189 1.528672
v -0.302490 -1.059350 1.526858
v -0.308340 -1.059093 1.515854
v 0.371084 -1.355066 0.786300
v 0.351614 -1.339400 0.790225
v 0.356628 -1.338912 0.801142
v -0.249286 -0.678024 1.461201
v 0.234316 -0.674331 0.919049
v -0.278307 -0.676820 0.919939
v 0.262745 -0.677836 0.946208
v -0.279714 -0.678836 1.432806
v 0.261820 -0.717789 1.464164
v 0.264394 -0.675924 1.422234
v 0.262771 -0.637049 1.460410
v 0.218273 -0.679715 1.459428
v 0.260741 -0.011087 0.946551
v 0.233284 -0.011322 0.920752
v -0.321024 -1.173987 1.528775
v -0.345952 -1.174898 1.503545
v 0.339478 -1.173397 1.525167
v 0.316639 -1.138857 0.842299
v 0.317642 -1.211262 0.841694
v 0.280692 -1.175813 0.841368
v 0.340767 -1.210395 0.866040
v 0.341022 -1.137036 0.865730
v 0.340891 -1.169788 0.903184
v 0.340797 -1.074493 0.866928
v 0.340945 -1.059351 0.880881
v 0.317394 -1.074850 0.840779
v 0.304910 -1.060565 0.845088
v -0.287650 -1.061531 0.841692
v -0.348481 -1.096762 0.846441
v -0.343907 -1.061181 0.885682
v -0.319008 -1.063981 0.867850
v -0.345954 -1.175023 0.838715
v 0.206152 1.029652 1.393143
v -0.210435 1.030001 0.977311
v -0.277125 0.974641 0.920789
v -0.249824 0.416418 0.948352
v 0.262762 0.361958 1.460692
v 0.261272 0.472644 1.457312
v 0.236340 0.415458 1.432823
v 0.341624 1.352715 1.529519
v -0.345042 1.352917 0.842377
v -0.400105 1.507325 0.787246
v 0.395635 1.507325 1.582986
v -0.278858 0.314271 1.409216
v -0.277314 0.314020 0.967230
v 0.258857 0.313749 0.972660
v 0.257948 0.313333 1.406312
v 0.207092 0.316840 1.461087
v -0.228218 0.310732 1.461695
v -0.224542 0.313529 0.918751
v 0.212050 0.314444 0.924019
v -0.249588 0.297228 1.384951
v -0.249325 0.297168 0.995993
v 0.233443 0.296370 0.995876
v 0.233302 0.296475 1.386233
v 0.184845 0.298874 1.428344
v -0.199407 0.299018 1.432166
v -0.203569 0.296876 0.949814
v 0.187601 0.297337 0.949920
v -0.345335 1.054163 1.504075
v 0.182622 1.030752 0.979176
v 0.208203 1.029900 1.000321
v -0.182770 1.028531 1.389730
v -0.212373 1.025907 1.367337
v 0.261945 0.973308 0.950746
v 0.235191 0.974321 0.920317
v -0.251054 0.974489 1.461052
v -0.275650 0.976159 1.435642
v 0.237827 0.364400 0.919566
v 0.263554 0.360836 0.945358
v 0.236096 0.476323 0.923096
v 0.262529 0.472432 0.946839
v 0.237743 0.420485 0.973907
v 0.209242 0.417587 0.947486
v -0.251808 0.361768 1.458999
v -0.278177 0.365414 1.432891
v -0.277216 0.474967 1.434346
v -0.250604 0.474249 1.459628
v -0.253677 0.416433 1.404972
v -0.228428 0.418961 1.434753
v 0.317553 1.351561 0.837318
v 0.339820 1.352789 0.868931
v -0.320891 1.353146 1.528022
v -0.346124 1.352190 1.500630
v 0.371820 1.507326 0.787246
v 0.395635 1.507326 0.811061
v -0.376291 1.507325 1.582986
v -0.400105 1.507325 1.559172
v 0.395397 1.353482 0.811643
v -0.400051 1.353833 1.559436
v -0.375140 1.352007 1.584401
v -0.278163 0.362235 0.943535
v -0.281283 0.345053 0.938038
v -0.278267 0.340405 0.919577
v -0.263010 0.344983 0.918762
v -0.254928 0.361962 0.920464
v -0.270148 0.375879 0.930288
v -0.278423 0.472364 0.957642
v -0.263546 0.443800 0.934445
v -0.239323 0.471999 0.918032
v -0.282360 0.511151 0.919348
v 0.227817 0.978096 1.462790
v 0.247551 0.999624 1.442343
v 0.262029 0.973523 1.423908
v 0.262316 0.940427 1.457635
v 0.321037 1.054605 1.524751
v 0.340559 1.078616 1.528606
v 0.338403 1.058156 1.507153
v 0.324159 1.055226 1.516364
v 0.373212 1.353674 1.583508
v 0.397142 1.369419 1.582046
v 0.395922 1.353501 1.564334
v 0.382906 1.353211 1.567732
v -0.386408 1.351901 0.800622
v -0.378948 1.354443 0.786419
v -0.398832 1.369971 0.788259
v -0.402251 1.350849 0.809879
v -0.319020 1.078418 1.529716
v -0.303676 1.056207 1.527439
v -0.305526 1.059218 1.509528
v 0.374152 1.366215 0.788654
v 0.348513 1.355026 0.789915
v 0.357822 1.354740 0.801490
v -0.251568 0.689725 1.457982
v 0.236977 0.691438 0.919286
v -0.282883 0.690661 0.920600
v 0.261007 0.690909 0.949037
v -0.281484 0.689775 1.437274
v 0.266568 0.733741 1.463431
v 0.263621 0.691651 1.418169
v 0.260324 0.654175 1.456759
v 0.222413 0.691266 1.461645
v 0.262828 0.030213 0.949515
v 0.236370 0.024175 0.920374
v -0.318887 1.189728 1.523671
v -0.345457 1.187289 1.508673
v 0.340521 1.188176 1.528382
v 0.316985 1.153060 0.841915
v 0.317362 1.224976 0.841765
v 0.279344 1.191891 0.838208
v 0.339390 1.225562 0.863001
v 0.341915 1.152204 0.864572
v 0.341601 1.184821 0.899979
v 0.339623 1.071911 0.869089
v 0.338009 1.055161 0.881634
v 0.316859 1.071198 0.841066
v 0.305171 1.056164 0.840951
v -0.310750 1.056751 0.841336
v -0.347509 1.094166 0.842640
v -0.345486 1.056868 0.875934
v -0.318842 1.057046 0.866604
v -0.345201 1.187930 0.842205
v -0.006069 1.457326 -2.700975
v -0.006068 1.457325 1.077257
v 0.249594 1.457326 -2.700975
v -0.261732 1.457326 -2.700975
v -0.261732 1.457325 1.077257
v -0.261732 1.384911 -2.700975
v -0.261732 1.384911 1.077257
v -0.241412 1.364591 -2.700975
v -0.241412 1.364591 1.077257
v -0.205960 1.364591 -2.700975
v -0.205959 1.364591 1.077257
v -0.185640 1.344272 -2.702002
v -0.185640 1.344271 1.076230
v -0.185640 1.070912 -2.715810
v -0.165355 1.049397 -2.715757
v -0.185640 1.070912 1.062422
v -0.165329 1.051193 1.062539
v -0.085879 1.053543 1.067010
v -0.088302 1.049893 0.349511
v -0.141574 1.014748 1.016557
v -0.094752 0.346951 1.069617
v -0.097286 0.349945 0.619175
v -0.144502 0.377734 1.019678
v -0.148152 0.386860 0.630865
v -0.142805 0.376555 0.306848
v -0.141536 0.693742 0.399876
v -0.140933 0.651827 0.339064
v -0.140294 0.745851 0.350068
v -0.088824 0.702911 0.312106
v -0.140716 0.704455 0.268549
v -0.089356 0.349093 0.273965
v -0.092424 0.345787 -0.115499
v -0.142182 0.378192 0.238630
v -0.142077 0.364314 -0.113722
v -0.142505 0.381494 -0.390726
v -0.092373 0.349490 -0.419777
v -0.147334 0.982166 -0.391624
v -0.147061 1.020140 -0.344164
v -0.098073 1.048745 -0.418376
v -0.090014 1.047553 -1.213208
v -0.146039 1.023265 -0.462940
v -0.141358 1.020177 -1.169922
v -0.144445 0.424273 -0.461198
v -0.116308 0.366910 -0.441074
v -0.143057 0.385525 -0.508566
v -0.134258 0.378596 -0.832990
v -0.140555 0.379858 -1.150273
v -0.092306 0.354416 -0.824543
v -0.091140 -0.344522 -0.813190
v -0.143254 0.323141 -0.792551
v -0.143720 0.320507 -0.863952
v -0.091813 0.354313 -1.195808
v -0.091416 0.354796 -1.620320
v -0.135441 0.387675 -1.232638
v -0.142905 0.383781 -1.615559
v -0.141476 0.973934 -1.246795
v -0.141889 1.012330 -1.295221
v -0.142180 1.020349 -1.863620
v -0.090308 1.055415 -1.938265
v -0.142471 0.983305 -1.909669
v -0.146690 0.385990 -1.886459
v -0.090014 0.352588 -1.923667
v -0.091149 0.353592 -2.300497
v -0.141269 0.382562 -2.006313
v -0.141159 0.419507 -1.960380
v -0.142328 1.022283 -1.985626
v -0.138626 1.020838 -2.677627
v -0.147677 0.380311 -2.681013
v -0.092044 1.045077 -2.711856
v -0.090386 0.355514 -2.699443
v -0.094752 -0.341254 -2.707350
v -0.134829 0.326052 -2.663820
v -0.139231 -0.319692 -2.658051
v -0.139017 0.324126 -2.338980
v -0.138470 -0.277433 -2.303111
v -0.138542 -0.315733 -2.348380
v -0.091972 -0.343761 -2.268903
v -0.089356 -0.343395 -1.911698
v -0.148152 -0.381163 -2.268599
v -0.141224 -0.274064 -2.239506
v -0.140936 -0.312279 -2.190293
v -0.137301 -0.315349 -1.902294
v -0.137145 -0.318493 -1.663600
v -0.138797 0.055807 -1.656518
v -0.086019 -0.346880 -1.631268
v -0.094415 -0.345885 -1.212288
v -0.089119 0.056082 -1.624981
v -0.141240 -0.314696 -1.593911
v -0.141998 -0.374093 -1.632598
v -0.142505 -0.375797 -1.247007
v -0.142182 -0.372495 -1.876363
v -0.140716 -0.698757 -1.906283
v -0.139283 -1.017705 -1.935531
v -0.088824 -0.697214 -1.949840
v -0.088301 -1.044195 -1.987244
v -0.140294 -0.740154 -1.987802
v -0.140933 -0.646130 -1.976797
v -0.141536 -0.688045 -2.037609
v -0.142805 -0.370857 -1.944582
v -0.138706 -0.973710 -2.015135
v -0.109443 -1.030320 -2.000855
v -0.138685 -1.011114 -2.067053
v -0.141574 -1.009051 -2.654290
v -0.144502 -0.372037 -2.657411
v -0.085879 -1.047845 -2.704743
v -0.165326 -1.045793 -2.699732
v -0.165359 -1.043993 1.078555
v -0.185640 -1.065588 -2.698615
v -0.185639 -1.065588 1.079617
v -0.185639 -1.338022 -2.700812
v -0.185639 -1.338022 1.077420
v -0.205959 -1.358342 -2.700975
v -0.205959 -1.358342 1.077256
v -0.241412 -1.358342 -2.700975
v -0.241411 -1.358342 1.077256
v -0.261732 -1.378662 -2.700976
v -0.261731 -1.378662 1.077256
v -0.261732 -1.492674 -2.700976
v -0.006068 -1.492674 -2.700976
v -0.261731 -1.492675 1.077256
v -0.006068 -1.492675 1.077256
v 0.249595 -1.492674 1.077256
v 0.249595 -1.492674 -2.700976
v 0.249595 -1.378662 1.077256
v 0.229275 -1.358342 1.077256
v 0.249595 -1.378662 -2.700976
v 0.229275 -1.358342 -2.700975
v 0.193823 -1.358342 -2.700975
v 0.193823 -1.358342 1.077256
v 0.173503 -1.338022 -2.700812
v 0.173503 -1.338022 1.077420
v 0.173503 -1.065588 -2.698615
v 0.173503 -1.065588 1.079617
v 0.153190 -1.045793 -2.699732
v 0.153223 -1.043993 1.078555
v 0.073742 -1.047845 -2.704743
v 0.076165 -1.044195 -1.987244
v 0.129438 -1.009051 -2.654290
v 0.082616 -0.341254 -2.707350
v 0.079835 -0.343761 -2.268903
v 0.127094 -0.319692 -2.658051
v 0.078249 0.355514 -2.699443
v 0.132365 -0.372037 -2.657411
v 0.136015 -0.381163 -2.268599
v 0.130668 -0.370857 -1.944582
v 0.129399 -0.688045 -2.037609
v 0.128797 -0.646130 -1.976797
v 0.128157 -0.740154 -1.987802
v 0.076687 -0.697214 -1.949840
v 0.128579 -0.698757 -1.906283
v 0.077219 -0.343395 -1.911698
v 0.073882 -0.346880 -1.631268
v 0.125164 -0.315349 -1.902294
v 0.130045 -0.372495 -1.876363
v 0.129861 -0.374093 -1.632598
v 0.130368 -0.375797 -1.247007
v 0.082278 -0.345885 -1.212288
v 0.135197 -0.976468 -1.246109
v 0.134924 -1.014442 -1.293569
v 0.085936 -1.043048 -1.219357
v 0.077877 -1.041855 -0.424525
v 0.133903 -1.017567 -1.174794
v 0.129222 -1.014479 -0.467811
v 0.132308 -0.418575 -1.176535
v 0.104172 -0.361213 -1.196659
v 0.130920 -0.379827 -1.129167
v 0.122121 -0.372898 -0.804743
v 0.128418 -0.374161 -0.487461
v 0.079003 -0.344522 -0.813190
v 0.081136 -0.341719 -0.445577
v 0.080169 0.354416 -0.824543
v 0.129101 -0.314572 -0.851315
v 0.130206 -0.277841 -0.774531
v 0.129758 -0.314985 -0.725886
v 0.127428 -0.311526 -0.442324
v 0.131685 -0.316048 -0.175834
v 0.125951 0.328912 -0.151317
v 0.085070 -0.344134 -0.142083
v 0.077877 -0.346891 0.285934
v 0.080287 0.345787 -0.115499
v 0.129164 -0.377148 -0.136945
v 0.129266 -0.307315 -0.098572
v 0.126370 -0.315602 0.277629
v 0.129210 0.286566 -0.087525
v 0.129169 0.324403 -0.039301
v 0.128671 0.325815 0.582851
v 0.128158 -0.318115 0.556380
v 0.085150 0.349945 0.619175
v 0.077757 0.346288 1.079672
v 0.083071 -0.351030 0.593274
v 0.128522 0.323974 0.656193
v 0.136015 0.386860 0.630865
v 0.077219 0.349093 0.273965
v 0.082616 0.346951 1.069617
v 0.073742 1.053543 1.067010
v 0.132365 0.377734 1.019678
v 0.129438 1.014748 1.016557
v 0.126548 1.016812 0.429320
v 0.097306 1.036017 0.363122
v 0.126569 0.979407 0.377402
v 0.128157 0.745851 0.350068
v 0.076687 0.702912 0.312106
v 0.129399 0.693742 0.399876
v 0.128797 0.651827 0.339064
v 0.130668 0.376555 0.306848
v 0.076165 1.049893 0.349511
v 0.128579 0.704455 0.268549
v 0.127146 1.023402 0.297798
v 0.130045 0.378192 0.238630
v 0.130368 0.381494 -0.390726
v 0.080236 0.349490 -0.419777
v 0.129941 0.364314 -0.113722
v 0.135197 0.982166 -0.391624
v 0.134924 1.020140 -0.344164
v 0.085936 1.048745 -0.418376
v 0.077877 1.047553 -1.213208
v 0.133902 1.023265 -0.462940
v 0.129221 1.020177 -1.169922
v 0.132308 0.424273 -0.461198
v 0.104172 0.366910 -0.441074
v 0.130920 0.385525 -0.508566
v 0.122121 0.378596 -0.832990
v 0.128418 0.379859 -1.150273
v 0.079676 0.354313 -1.195808
v 0.079280 0.354796 -1.620320
v 0.123304 0.387675 -1.232638
v 0.130768 0.383781 -1.615559
v 0.129339 0.973934 -1.246795
v 0.129752 1.012330 -1.295221
v 0.130043 1.020349 -1.863620
v 0.078171 1.055415 -1.938265
v 0.130334 0.983305 -1.909669
v 0.134553 0.385990 -1.886459
v 0.077877 0.352588 -1.923667
v 0.079012 0.353592 -2.300497
v 0.129132 0.382562 -2.006313
v 0.129021 0.419507 -1.960380
v 0.130191 1.022283 -1.985626
v 0.126488 1.020838 -2.677627
v 0.135539 0.380311 -2.681013
v 0.079907 1.045077 -2.711856
v 0.153218 1.049397 -2.715757
v 0.173503 1.070912 -2.715810
v 0.153192 1.051193 1.062539
v 0.173503 1.070912 1.062422
v 0.173503 1.344271 1.076230
v 0.193822 1.364591 1.077257
v 0.173502 1.344272 -2.702002
v 0.193822 1.364591 -2.700975
v 0.229275 1.364591 -2.700975
v 0.229275 1.364591 1.077257
v 0.249594 1.384911 -2.700975
v 0.249595 1.384911 1.077257
v 0.249595 1.457326 1.077257
v 0.130811 0.385241 -2.293944
v 0.124157 0.321859 -2.266384
v 0.126880 0.324126 -2.338980
v 0.122692 0.326052 -2.663820
v 0.126333 -0.277433 -2.303111
v 0.126405 -0.315733 -2.348380
v 0.127864 0.328590 -1.651357
v 0.129087 -0.274064 -2.239506
v 0.126660 0.055807 -1.656518
v 0.125008 -0.318493 -1.663600
v 0.076982 0.056082 -1.624981
v 0.133684 0.102558 -1.583623
v 0.132671 0.010305 -1.585898
v 0.132297 0.054829 -1.535347
v 0.124175 -0.308819 -1.208191
v 0.129103 -0.314696 -1.593911
v 0.135659 0.282485 -1.579187
v 0.135774 0.320229 -1.530736
v 0.131584 0.320507 -0.863952
v 0.128799 -0.312279 -2.190293
v 0.124308 0.321336 1.031601
v 0.127915 -0.277559 0.633267
v 0.127846 -0.316026 0.679342
v 0.127607 -0.321837 1.046824
v 0.080920 -0.349971 1.083163
v 0.135540 -0.374614 1.043279
v 0.079907 -1.039379 1.074123
v 0.078172 -1.049718 0.300531
v 0.126489 -1.015141 1.039894
v 0.130191 -1.016585 0.347893
v 0.129022 -0.413809 0.322647
v 0.129132 -0.376864 0.368579
v 0.129979 -0.380411 0.588115
v 0.130044 -1.014652 0.225886
v 0.130334 -0.977607 0.271936
v 0.134554 -0.380293 0.248726
v 0.129752 -1.006632 -0.342512
v 0.129340 -0.968237 -0.390938
v 0.123305 -0.381977 -0.405095
v 0.131118 0.323141 -0.792551
v 0.127146 -1.017705 -1.935531
v 0.126570 -0.973710 -2.015135
v 0.097306 -1.030320 -2.000855
v 0.126548 -1.011114 -2.067053
v -0.092043 -1.039379 1.074123
v -0.090308 -1.049718 0.300531
v -0.138625 -1.015141 1.039894
v -0.093056 -0.349971 1.083163
v -0.095208 -0.351030 0.593274
v -0.139743 -0.321837 1.046824
v -0.089894 0.346288 1.079672
v -0.147676 -0.374614 1.043279
v -0.142115 -0.380411 0.588115
v -0.141268 -0.376864 0.368579
v -0.141158 -0.413809 0.322647
v -0.090014 -0.346891 0.285934
v -0.097207 -0.344134 -0.142083
v -0.146690 -0.380293 0.248726
v -0.138507 -0.315602 0.277629
v -0.140295 -0.318115 0.556380
v -0.141402 -0.307315 -0.098572
v -0.141347 0.286566 -0.087525
v -0.141305 0.324403 -0.039301
v -0.140808 0.325815 0.582851
v -0.141301 -0.377148 -0.136945
v -0.142471 -0.977607 0.271936
v -0.142180 -1.014652 0.225886
v -0.141889 -1.006632 -0.342512
v -0.141476 -0.968237 -0.390938
v -0.090014 -1.041855 -0.424525
v -0.098073 -1.043048 -1.219357
v -0.093273 -0.341719 -0.445577
v -0.141358 -1.014479 -0.467811
v -0.140555 -0.374161 -0.487461
v -0.146039 -1.017567 -1.174794
v -0.144445 -0.418575 -1.176535
v -0.116308 -0.361213 -1.196659
v -0.143057 -0.379827 -1.129167
v -0.134258 -0.372898 -0.804743
v -0.139565 -0.311526 -0.442324
v -0.135441 -0.381977 -0.405095
v -0.143822 -0.316048 -0.175834
v -0.141895 -0.314985 -0.725886
v -0.142342 -0.277841 -0.774531
v -0.138088 0.328912 -0.151317
v -0.147061 -1.014442 -1.293569
v -0.147333 -0.976468 -1.246109
v -0.142328 -1.016585 0.347893
v -0.136445 0.321336 1.031601
v -0.140658 0.323974 0.656193
v -0.140051 -0.277559 0.633267
v -0.139982 -0.316027 0.679342
v -0.136312 -0.308819 -1.208191
v -0.144808 0.010305 -1.585898
v -0.144434 0.054829 -1.535347
v -0.145820 0.102558 -1.583623
v -0.147796 0.282485 -1.579187
v -0.147911 0.320229 -1.530736
v -0.141237 -0.314572 -0.851315
v -0.140001 0.328589 -1.651357
v -0.136294 0.321859 -2.266384
v -0.142948 0.385241 -2.293944
v -0.139283 1.023402 0.297798
v -0.138706 0.979407 0.377402
v -0.109443 1.036017 0.363122
v -0.138685 1.016811 0.429320
vn 0.7450 0.0155 -0.6669
vn 0.0011 0.9998 0.0222
vn 0.7251 -0.0020 -0.6886
vn 0.0014 0.0180 0.9998
vn -0.9996 0.0274 0.0017
vn 0.0029 0.9513 0.3082
vn -0.8983 0.4150 0.1440
vn 0.5762 -0.6745 0.4615
vn 0.0001 0.4521 -0.8920
vn -0.0050 0.9221 -0.3868
vn 0.6031 0.0015 0.7977
vn -0.7865 0.0034 0.6176
vn 0.7354 -0.6293 -0.2512
vn 0.9206 -0.3903 -0.0116
vn 0.0040 0.0052 1.0000
vn 0.9998 -0.0156 -0.0079
vn 0.0042 -0.0014 -1.0000
vn 0.0606 0.0081 -0.9981
vn 0.0008 -0.0119 0.9999
vn -0.8822 -0.4709 -0.0022
vn 0.0013 0.4169 0.9089
vn 0.7562 0.0138 -0.6542
vn 0.0067 -0.8007 0.5990
vn -0.6169 -0.7870 -0.0019
vn 0.4654 0.6119 0.6395
vn 0.0911 0.9943 -0.0555
vn -0.6889 -0.0074 0.7248
vn 0.9991 -0.0066 -0.0418
vn -0.9998 -0.0118 0.0187
vn 0.0005 1.0000 -0.0085
vn -0.2036 -0.0078 -0.9790
vn -0.0000 -1.0000 -0.0000
vn 0.0253 0.9992 -0.0311
vn -0.0000 -0.6812 -0.7321
vn -0.0029 0.0689 -0.9976
vn -0.6053 0.5514 -0.5740
vn 0.1882 0.0095 0.9821
vn 0.9974 0.0053 0.0719
vn 0.8868 0.4622 0.0012
vn -0.0109 -0.0089 0.9999
vn -0.9989 -0.0107 0.0447
vn 0.0022 -0.4486 0.8938
vn -0.9381 0.2937 -0.1835
vn -0.9964 0.0848 -0.0048
vn -0.9999 -0.0108 0.0057
vn 1.0000 0.0069 0.0037
vn 0.0079 -0.0071 0.9999
vn 0.0042 -0.0070 -1.0000
vn -0.6007 -0.0007 -0.7995
vn 0.0042 0.8236 0.5671
vn 0.4066 0.9136 0.0020
vn -0.7719 -0.0010 -0.6357
vn -0.5351 0.8448 -0.0035
vn 0.7555 0.0157 0.6550
vn 0.6494 -0.0001 -0.7605
vn -0.6054 0.0028 0.7959
vn -0.0913 0.9949 -0.0434
vn 0.2069 0.7558 -0.6212
vn 0.7111 0.0004 -0.7030
vn 1.0000 -0.0010 -0.0026
vn -0.3088 -0.8828 0.3540
vn 0.6453 0.0003 -0.7640
vn 0.7299 -0.5192 -0.4446
vn 0.5319 0.5934 -0.6041
vn -0.6689 -0.5308 0.5204
vn -0.4541 0.5423 0.7069
vn 0.9997 -0.0042 -0.0220
vn -0.7191 0.0170 0.6947
vn 0.4506 -0.7927 -0.4105
vn -0.7236 0.0010 0.6903
vn 0.0044 -0.0047 -1.0000
vn -0.1565 0.9673 0.1996
vn 0.0276 0.9995 0.0119
vn -0.6778 -0.0041 0.7352
vn -0.6327 -0.5142 -0.5791
vn -0.0010 -0.4293 -0.9032
vn -0.6958 -0.3140 -0.6460
vn -1.0000 -0.0040 -0.0049
vn 0.7735 0.0511 0.6317
vn 0.0044 -0.0060 1.0000
vn 0.1503 0.6505 0.7445
vn 0.6627 0.7343 0.1471
vn -0.6276 0.7469 -0.2198
vn -0.7600 0.4996 0.4157
vn 0.5628 0.7729 -0.2931
vn -0.1481 0.7402 -0.6558
vn -0.2204 0.4686 0.8554
vn 0.6609 0.6740 0.3300
vn -0.6820 -0.0128 0.7312
vn 1.0000 0.0059 0.0011
vn -1.0000 0.0070 -0.0044
vn 0.6911 0.0062 -0.7227
vn -0.1503 0.0280 -0.9883
vn 0.0038 0.0067 1.0000
vn 0.5406 -0.5779 0.6114
vn 0.9943 0.0135 -0.1059
vn 0.4328 0.7707 -0.4677
vn 0.0392 -0.0013 -0.9992
vn 0.8186 0.0206 -0.5740
vn -0.9997 -0.0224 0.0120
vn -0.3120 0.9501 -0.0071
vn -0.0079 0.0180 0.9998
vn -0.7112 -0.0056 0.7029
vn 0.9999 0.0132 0.0023
vn 0.0057 0.0311 -0.9995
vn 0.5687 0.5542 -0.6078
vn 0.5666 -0.6213 -0.5413
vn 0.2976 0.9547 0.0092
vn 0.5796 0.5491 -0.6021
vn -0.3534 0.7131 -0.6054
vn -0.0008 0.9452 -0.3264
vn -0.4655 0.7378 -0.4889
vn 0.7756 -0.0575 -0.6286
vn 0.0022 -0.9998 -0.0181
vn 0.6942 -0.0263 -0.7193
vn -0.0072 -0.0069 1.0000
vn -1.0000 -0.0009 0.0002
vn -0.0017 -0.9822 0.1877
vn -0.8912 -0.4534 -0.0133
vn 0.6638 0.5366 0.5210
vn 0.0133 -0.3887 -0.9213
vn 0.0083 -0.8380 -0.5456
vn 0.6741 0.0009 0.7386
vn -0.8241 -0.0115 0.5663
vn 0.7520 0.6038 -0.2643
vn 0.8965 0.4430 0.0004
vn -0.0033 0.0128 0.9999
vn 0.9949 -0.1005 0.0017
vn -0.0025 0.0007 -1.0000
vn -0.0172 -0.0036 -0.9998
vn 0.0012 0.0091 1.0000
vn -0.8829 0.4665 -0.0537
vn 0.0007 -0.4101 0.9121
vn 0.8225 -0.0241 -0.5683
vn -0.0082 0.8008 0.5989
vn -0.6184 0.7858 -0.0005
vn 0.5731 -0.6184 0.5377
vn 0.0510 -0.9984 -0.0262
vn -0.6854 -0.0258 0.7278
vn 0.9968 0.0114 -0.0789
vn -0.9862 -0.0104 -0.1651
vn 0.0331 -0.9981 -0.0513
vn 0.0048 0.0061 -1.0000
vn -0.0000 1.0000 -0.0000
vn 0.0200 -0.9998 -0.0087
vn -0.0002 0.7145 -0.6996
vn 0.0585 0.0719 -0.9957
vn -0.5687 -0.6064 -0.5558
vn -0.0903 0.0109 0.9959
vn 0.9970 -0.0135 -0.0762
vn 0.9169 -0.3991 -0.0016
vn 0.0040 0.0039 1.0000
vn -0.9999 0.0064 0.0148
vn -0.0031 0.4608 0.8875
vn -0.9699 -0.2208 -0.1028
vn -0.9998 -0.0176 0.0001
vn -1.0000 0.0032 -0.0007
vn 1.0000 -0.0085 0.0004
vn 0.0100 0.0190 0.9998
vn 0.0003 -0.0080 -1.0000
vn -0.6384 -0.0004 -0.7697
vn 0.0135 -0.9249 0.3800
vn 0.5647 -0.8253 0.0004
vn -0.7317 0.0138 -0.6815
vn -0.5148 -0.8573 -0.0013
vn 0.7154 -0.0017 0.6987
vn 0.6331 -0.0036 -0.7741
vn -0.7118 0.0164 0.7022
vn -0.0270 -0.9986 -0.0461
vn 0.1260 -0.8138 -0.5673
vn 0.7334 -0.0037 -0.6798
vn 0.9991 -0.0266 0.0334
vn -0.3367 0.8772 0.3423
vn 0.6692 0.0121 -0.7430
vn 0.6322 0.5397 -0.5560
vn 0.4979 -0.5756 -0.6487
vn -0.6443 0.5813 0.4969
vn -0.6207 -0.5365 0.5718
vn 0.9855 -0.0000 0.1695
vn -0.5691 -0.0078 0.8222
vn 0.4729 0.7903 -0.3895
vn -0.6610 0.0096 0.7504
vn 0.1233 -0.0350 -0.9918
vn 0.0833 -0.9567 0.2787
vn -0.0239 -0.9991 -0.0353
vn -0.7071 0.0010 0.7071
vn -0.2897 0.9159 -0.2779
vn -0.0039 0.4631 -0.8863
vn -0.6968 0.1972 -0.6896
vn -0.9998 0.0204 0.0027
vn 0.7465 -0.0544 0.6632
vn 0.1314 0.0037 0.9913
vn 0.5023 -0.6504 0.5698
vn 0.5300 -0.7731 0.3484
vn -0.5804 -0.6924 -0.4288
vn -0.8232 -0.5676 -0.0104
vn 0.3663 -0.8751 -0.3162
vn -0.3366 -0.6783 -0.6531
vn -0.0022 -0.7254 0.6884
vn 0.7374 -0.6360 0.2274
vn -0.6887 0.0025 0.7250
vn 1.0000 0.0070 -0.0056
vn -0.9998 -0.0199 0.0026
vn 0.7779 0.0012 -0.6283
vn -0.0243 0.0069 -0.9997
vn -0.0659 0.0266 0.9975
vn 0.6067 0.5437 0.5799
vn 0.9965 0.0182 -0.0818
vn 0.6724 -0.5487 -0.4968
vn 0.0127 0.0136 -0.9998
vn 0.7409 -0.0048 -0.6716
vn -1.0000 -0.0041 -0.0004
vn -0.2120 -0.9773 -0.0042
vn -0.1960 0.0019 0.9806
vn -0.4940 0.0404 0.8685
vn 1.0000 -0.0067 0.0018
vn -0.0064 0.0049 -1.0000
vn 0.6002 -0.5195 -0.6082
vn 0.6200 0.5473 -0.5622
vn 0.1950 -0.9808 0.0046
vn 0.6706 -0.5173 -0.5316
vn -0.2465 -0.6528 -0.7163
vn -0.1930 -0.9799 -0.0504
vn -0.7002 -0.6804 -0.2163
vn 0.1383 0.9652 -0.2218
vn 0.0931 -0.9907 -0.0996
vn -1.0000 -0.0000 -0.0000
vn -0.7071 -0.7071 -0.0000
vn -0.7276 -0.6860 -0.0000
vn -0.0259 -0.9997 0.0005
vn -0.5716 0.8205 0.0001
vn -0.6756 0.0112 0.7372
vn -0.5242 -0.8516 -0.0027
vn -0.9998 0.0087 -0.0159
vn -0.4611 -0.8873 -0.0084
vn -0.9998 0.0088 -0.0168
vn -0.7398 0.5505 -0.3868
vn -0.7422 -0.4537 -0.4932
vn -0.5742 0.0886 -0.8139
vn -0.6902 -0.0765 0.7196
vn -0.6426 -0.0671 0.7632
vn -0.5271 0.0919 -0.8448
vn -0.4882 -0.8726 0.0113
vn -1.0000 0.0045 -0.0005
vn -0.5423 -0.8401 -0.0103
vn -0.4750 -0.0021 -0.8800
vn -1.0000 -0.0035 0.0085
vn -0.8132 0.4567 -0.3608
vn -0.6992 -0.0944 0.7086
vn -0.4647 0.8854 -0.0060
vn -0.4985 0.8669 0.0050
vn -0.9999 -0.0145 -0.0066
vn -0.8999 -0.3502 0.2601
vn -0.5001 -0.8660 0.0049
vn -0.4645 -0.8856 -0.0004
vn -0.3544 0.9350 0.0113
vn -0.6132 0.0118 0.7898
vn -0.6139 -0.0138 -0.7892
vn -0.5500 0.8351 -0.0010
vn -0.6067 -0.7950 -0.0015
vn -0.6389 -0.0176 -0.7691
vn -0.5684 0.0221 0.8224
vn -1.0000 0.0027 0.0041
vn -0.8358 0.4267 0.3454
vn -0.5716 0.8205 0.0091
vn -0.8183 0.4503 -0.3571
vn -0.4607 -0.0186 -0.8874
vn -0.5058 -0.8626 0.0039
vn -0.5684 0.0168 0.8226
vn -0.5039 -0.8638 -0.0008
vn -0.8266 -0.4376 0.3539
vn -1.0000 -0.0017 0.0055
vn -0.5306 0.8476 -0.0101
vn -0.5867 -0.0160 -0.8097
vn -0.3986 -0.9171 -0.0052
vn -0.5509 0.8346 0.0030
vn -0.6305 0.0128 -0.7761
vn -1.0000 -0.0008 0.0022
vn -0.5562 0.0383 0.8302
vn -0.8424 -0.4107 0.3488
vn -0.5202 0.8540 0.0082
vn -0.5136 -0.8580 -0.0016
vn -0.4582 0.8888 0.0024
vn -0.5354 -0.8446 0.0048
vn -0.5504 -0.0371 -0.8341
vn -0.8297 -0.4432 -0.3393
vn -1.0000 -0.0044 0.0006
vn -0.4829 -0.8756 -0.0051
vn -0.5358 -0.0183 0.8442
vn -0.5216 0.8531 -0.0125
vn -0.5076 -0.8615 -0.0081
vn -0.5790 0.0083 -0.8153
vn -0.4739 0.8804 0.0166
vn -1.0000 -0.0046 0.0007
vn -0.6426 0.0671 -0.7632
vn -0.6902 0.0765 -0.7196
vn -1.0000 0.0035 -0.0085
vn -0.5742 -0.0886 0.8139
vn -0.5271 -0.0919 0.8448
vn -0.7422 0.4537 0.4932
vn -0.7398 -0.5505 0.3868
vn -0.9998 -0.0088 0.0168
vn -0.9998 -0.0087 0.0159
vn -0.8803 -0.3851 0.2771
vn -0.5716 -0.8205 -0.0001
vn -0.6756 -0.0112 -0.7372
vn -0.0303 0.9995 -0.0005
vn -0.7290 0.6845 -0.0000
vn -0.7071 0.7071 -0.0000
vn 1.0000 -0.0000 -0.0000
vn 0.7071 0.7071 -0.0000
vn 0.7290 0.6845 -0.0000
vn -0.1862 0.9825 0.0107
vn 0.5716 -0.8205 -0.0001
vn 0.6756 -0.0112 -0.7372
vn 0.5202 0.8540 0.0082
vn 0.5136 -0.8580 -0.0016
vn 0.7427 -0.0009 -0.6697
vn 0.9999 -0.0093 0.0049
vn 0.9998 -0.0088 0.0168
vn 0.5542 0.8322 -0.0173
vn 0.7398 -0.5505 0.3868
vn 0.7422 0.4537 0.4932
vn 0.5835 -0.0983 0.8061
vn 0.6902 0.0765 -0.7196
vn 0.6426 0.0671 -0.7632
vn 0.4814 -0.1051 0.8702
vn 0.5053 -0.8629 -0.0028
vn 0.4739 0.8804 0.0166
vn 0.4829 -0.8756 -0.0051
vn 1.0000 -0.0028 -0.0013
vn 0.4373 0.8993 0.0034
vn 0.5878 0.0059 0.8090
vn 0.9999 -0.0034 -0.0121
vn 0.8132 -0.4567 0.3608
vn 0.4751 -0.8799 0.0070
vn 0.4985 -0.8669 -0.0050
vn 0.5806 -0.0008 -0.8142
vn 0.9996 0.0027 0.0271
vn 0.8999 0.3502 -0.2601
vn 0.5501 0.8351 -0.0029
vn 0.5508 0.8346 -0.0076
vn 0.5455 -0.8380 0.0147
vn 0.6132 0.0118 0.7898
vn 0.6139 -0.0138 -0.7892
vn 0.5171 -0.8559 0.0072
vn 0.8312 -0.4455 -0.3325
vn 1.0000 -0.0013 0.0082
vn 0.5089 -0.8607 -0.0134
vn 0.6113 -0.0246 0.7910
vn 0.5404 -0.8413 -0.0144
vn 0.5995 0.8004 -0.0019
vn 0.6958 0.0134 -0.7181
vn 0.6922 0.7217 -0.0032
vn 1.0000 -0.0028 0.0031
vn 0.7939 0.4787 -0.3749
vn 0.4111 0.9116 -0.0079
vn 0.6298 -0.0324 0.7761
vn 0.5063 0.8623 0.0117
vn 0.6409 0.0264 -0.7672
vn 0.5849 -0.8110 0.0161
vn 0.5242 -0.8516 -0.0027
vn 0.6756 0.0112 0.7372
vn 0.9999 0.0093 -0.0049
vn 0.5716 0.8205 0.0001
vn 0.8803 0.3851 -0.2771
vn 0.5835 0.0983 -0.8061
vn 0.7422 -0.4537 -0.4932
vn 0.9998 0.0088 -0.0168
vn 0.7398 0.5505 -0.3868
vn 0.4814 0.1051 -0.8702
vn 0.6902 -0.0765 0.7196
vn 0.6426 -0.0671 0.7632
vn 0.9999 0.0034 0.0121
vn 1.0000 0.0021 0.0017
vn 0.3508 -0.9347 -0.0574
vn 0.5039 -0.0053 -0.8637
vn 0.8132 0.4567 -0.3608
vn 0.6992 -0.0944 0.7086
vn 0.4751 0.8799 -0.0070
vn -0.1898 -0.9818 -0.0107
vn 0.4985 0.8669 0.0050
vn 0.9996 -0.0027 -0.0271
vn 0.8999 -0.3502 0.2601
vn 0.5001 -0.8660 0.0049
vn 0.5003 -0.8658 0.0065
vn 0.6889 -0.0231 -0.7245
vn 0.6067 -0.7950 -0.0015
vn 0.5322 0.8466 0.0030
vn 0.5684 0.0221 0.8224
vn 0.9998 -0.0098 0.0196
vn 0.8358 0.4267 0.3454
vn 0.5480 0.8364 0.0121
vn 0.8183 0.4503 -0.3571
vn 0.5602 -0.0282 -0.8279
vn 0.4906 -0.8714 -0.0003
vn 0.6831 0.0292 0.7298
vn 0.5039 -0.8638 -0.0008
vn 0.8266 -0.4376 0.3539
vn 1.0000 -0.0042 0.0058
vn 0.4641 0.8858 -0.0043
vn 0.3026 0.0093 -0.9531
vn 0.7276 -0.6860 -0.0000
vn 0.7071 -0.7071 -0.0000
vn 0.5197 -0.8542 0.0172
vn 0.5509 0.8346 0.0030
vn 0.5759 0.8175 -0.0017
vn 0.6426 0.0450 0.7649
vn 0.5504 -0.0371 -0.8341
vn 1.0000 0.0068 0.0013
vn 0.8424 -0.4107 0.3488
vn 1.0000 -0.0043 -0.0060
vn 0.9999 0.0088 0.0127
vn 0.5358 -0.0183 0.8442
vn 0.5316 -0.0173 0.8468
vn 0.5545 0.0144 -0.8321
vn 0.5819 0.0137 -0.8131
vn 0.7389 -0.4896 -0.4629
vn 0.7340 0.5123 -0.4458
vn 0.9999 -0.0111 0.0063
vn 0.9999 -0.0113 0.0129
vn 0.6614 -0.7498 0.0199
vn 0.8250 0.4449 -0.3486
vn 0.8297 -0.4432 -0.3393
vn 0.4882 -0.8726 0.0113
vn 0.4329 0.9014 -0.0046
vn 0.9999 -0.0014 0.0112
vn 0.8775 -0.3687 -0.3065
vn 0.5085 -0.8610 -0.0133
vn 0.7234 0.0200 0.6901
vn 0.5294 0.8482 -0.0173
vn 0.5860 -0.0126 0.8102
vn 0.4641 -0.8858 0.0043
vn 1.0000 0.0018 -0.0038
vn 0.6831 -0.0292 -0.7298
vn 0.8266 0.4376 -0.3539
vn 0.5010 0.8655 0.0032
vn 0.5480 -0.8364 -0.0121
vn 0.5601 0.0282 0.8279
vn 0.8183 -0.4503 0.3571
vn 0.9997 0.0098 -0.0220
vn 0.8358 -0.4267 -0.3454
vn 0.5734 -0.0273 -0.8188
vn 0.5784 -0.8155 -0.0208
vn 0.6703 0.0192 0.7418
vn 0.8803 -0.3851 0.2771
vn -0.5306 -0.8476 0.0101
vn -0.5959 -0.0114 0.8029
vn -0.6106 -0.7919 0.0044
vn -0.4111 0.9116 -0.0002
vn -0.6117 0.0067 0.7911
vn -1.0000 0.0018 -0.0038
vn -0.5010 0.8655 0.0032
vn -0.8266 0.4376 -0.3539
vn -0.6367 -0.7711 0.0057
vn -0.5146 0.8573 0.0142
vn -0.5784 -0.8155 -0.0208
vn -0.4607 0.0186 0.8874
vn -0.5684 -0.0168 -0.8226
vn -1.0000 -0.0000 0.0077
vn -0.5288 0.0363 -0.8479
vn -0.7939 0.4787 -0.3749
vn -0.4111 0.9116 -0.0079
vn -0.6461 -0.0301 0.7627
vn -1.0000 -0.0015 -0.0051
vn -0.8183 -0.4503 0.3571
vn -0.5716 -0.8205 -0.0091
vn -0.8358 -0.4267 -0.3454
vn -0.4647 -0.8854 0.0060
vn -0.6703 0.0192 0.7418
vn -0.5734 -0.0273 -0.8188
vn -0.9999 0.0145 0.0066
vn -0.5806 -0.0008 -0.8142
vn -0.8999 0.3502 -0.2601
vn -0.5501 0.8351 -0.0029
vn -0.5600 0.8285 -0.0096
vn -0.4982 -0.8671 0.0037
vn -0.6922 0.7217 -0.0032
vn -0.5089 -0.8607 -0.0134
vn -1.0000 -0.0013 0.0082
vn -0.8312 -0.4455 -0.3325
vn -0.5968 -0.0268 0.8020
vn -0.4985 -0.8669 -0.0050
vn -0.4838 -0.0063 0.8751
vn -0.8132 -0.4567 0.3608
vn -0.4841 0.8749 0.0147
vn -0.9999 -0.0014 0.0112
vn -0.6409 0.0264 -0.7672
vn -0.8775 -0.3687 -0.3065
vn -0.9998 -0.0088 0.0151
vn -0.7340 0.5123 -0.4458
vn -0.9998 -0.0134 0.0155
vn -0.7389 -0.4896 -0.4629
vn -0.5819 0.0137 -0.8131
vn -0.8250 0.4449 -0.3486
vn -0.5171 -0.8559 0.0072
vn -0.5316 -0.0173 0.8468
vn -1.0000 -0.0043 -0.0060
vn -0.5759 0.8175 -0.0017
vn -0.8803 0.3851 -0.2771
vn 0.6937 -0.0253 -0.7199
vn -0.0283 0.9993 0.0231
vn 0.0027 1.0000 0.0026
vn 0.7029 0.0061 -0.7112
vn 0.0055 0.0015 1.0000
vn -0.9863 -0.0474 0.1580
vn -0.9998 0.0180 -0.0000
vn -0.2177 0.9662 0.1383
vn -0.0008 0.9473 0.3203
vn 0.2449 0.9630 0.1129
vn -0.9096 0.4154 -0.0027
vn -0.9205 0.3908 0.0009
vn -0.1528 0.3645 -0.9186
vn 0.0082 0.3964 -0.9181
vn 0.0098 0.8353 -0.5497
vn 0.5989 0.0021 0.8008
vn -0.7344 -0.0076 0.6787
vn 0.7078 -0.7064 -0.0035
vn 0.6994 -0.7148 -0.0013
vn 0.8603 -0.5098 0.0048
vn 0.0039 0.0067 1.0000
vn 0.9999 -0.0129 -0.0082
vn -0.0018 0.0092 -1.0000
vn -0.0788 0.2115 -0.9742
vn 0.0313 0.0033 -0.9995
vn -0.0000 -0.0078 1.0000
vn 0.0552 -0.0017 0.9985
vn -0.9193 -0.3935 0.0091
vn -0.8822 -0.4704 0.0219
vn -0.0093 0.4853 0.8743
vn 0.6849 0.0005 -0.7286
vn -0.0082 -0.7564 0.6541
vn -0.2917 -0.6716 0.6811
vn -0.6203 -0.7843 -0.0011
vn -0.0477 0.9988 0.0073
vn 0.0538 0.9985 -0.0013
vn -0.7114 0.0056 0.7027
vn 1.0000 -0.0004 -0.0000
vn 0.9999 -0.0138 0.0028
vn -1.0000 -0.0094 -0.0000
vn -0.9998 -0.0194 -0.0021
vn 0.0771 0.9961 -0.0431
vn -0.0003 1.0000 0.0015
vn -0.0324 0.9990 -0.0298
vn -0.0000 0.0194 -0.9998
vn 0.0880 -0.0087 -0.9961
vn 0.0038 0.0010 -1.0000
vn 0.0145 0.9999 -0.0012
vn 0.0071 1.0000 -0.0006
vn 0.0099 -0.7200 -0.6940
vn 0.0036 0.0032 -1.0000
vn 0.1178 -0.0042 -0.9930
vn 0.0224 -0.0053 0.9997
vn 0.9997 0.0143 0.0221
vn 0.8935 0.4491 -0.0007
vn 0.0117 -0.0126 0.9999
vn -0.9972 0.0006 -0.0753
vn -0.0028 -0.4859 0.8740
vn -0.9998 -0.0081 -0.0204
vn -0.9993 -0.0105 -0.0349
vn -0.9966 0.0830 -0.0016
vn -0.9994 -0.0349 0.0075
vn -1.0000 0.0009 -0.0031
vn 0.9999 -0.0091 -0.0082
vn -0.0054 0.0107 0.9999
vn -0.0081 0.0096 -0.9999
vn -0.6923 -0.0167 -0.7214
vn 0.0095 0.8623 0.5063
vn 0.5588 0.8292 -0.0122
vn -0.7683 -0.0018 -0.6401
vn -0.5001 0.8660 -0.0002
vn 0.6984 0.0057 0.7157
vn 0.5599 0.0152 -0.8284
vn -0.6755 -0.0090 0.7373
vn -0.0451 0.9987 -0.0239
vn 0.7071 -0.0011 -0.7071
vn 0.9903 -0.0067 0.1391
vn 0.9996 -0.0270 0.0021
vn 1.0000 0.0003 0.0037
vn 0.9999 0.0039 -0.0148
vn -0.3946 -0.8672 0.3038
vn 0.6901 -0.0104 -0.7237
vn 0.5788 -0.6033 -0.5486
vn 0.5103 0.6025 -0.6137
vn -0.4593 -0.6253 0.6309
vn -0.5210 0.5979 0.6092
vn 0.9989 0.0020 0.0469
vn -0.6824 0.0102 0.7309
vn 0.4875 -0.8072 -0.3330
vn -0.6610 -0.0074 0.7504
vn -0.0015 -0.0060 -1.0000
vn 0.0042 -0.0279 -0.9996
vn -0.0948 0.9658 0.2412
vn 0.0078 0.9999 0.0080
vn -0.7070 -0.0137 0.7070
vn -0.6701 0.2977 -0.6800
vn -0.6230 -0.3373 -0.7057
vn -0.4691 -0.7890 -0.3968
vn 0.0746 -0.4272 -0.9011
vn -0.0001 -0.4241 -0.9056
vn -1.0000 -0.0079 -0.0028
vn 0.0038 -0.0073 1.0000
vn -0.0213 -0.0008 0.9998
vn 0.3246 0.7857 0.5266
vn -0.6893 -0.0109 0.7244
vn 0.9990 -0.0017 0.0442
vn 1.0000 -0.0041 -0.0034
vn -0.9999 0.0122 -0.0113
vn -0.9999 0.0107 -0.0027
vn 0.7888 -0.0131 -0.6145
vn -0.0002 0.0056 -1.0000
vn -0.0017 0.0023 -1.0000
vn 0.0032 0.0077 1.0000
vn 0.0222 -0.0140 0.9997
vn -0.1042 0.0045 0.9945
vn 0.9999 -0.0102 -0.0011
vn 0.9999 -0.0141 -0.0034
vn 0.9988 -0.0144 0.0469
vn 0.5668 0.6559 -0.4986
vn 0.0011 0.0017 -1.0000
vn 0.6848 -0.0015 -0.7288
vn -0.9997 0.0259 -0.0000
vn -0.1146 0.9444 -0.3083
vn -0.3334 0.9428 -0.0005
vn 0.0996 0.0005 0.9950
vn 0.0055 -0.0573 0.9983
vn 0.0844 -0.0402 0.9956
vn -0.7001 -0.0020 0.7140
vn 0.9999 0.0154 0.0029
vn 0.9994 0.0216 -0.0270
vn -0.3448 -0.0182 -0.9385
vn -0.0093 0.0342 -0.9994
vn 0.0043 0.0240 -0.9997
vn -0.1310 0.0932 -0.9870
vn 0.5734 0.5925 -0.5658
vn 0.6109 -0.5806 -0.5383
vn 0.0562 0.9505 0.3056
vn 0.3246 0.9458 0.0011
vn 0.5636 0.6473 -0.5132
vn 0.0004 0.9439 -0.3301
vn -0.2323 0.9541 -0.1892
vn 0.6727 0.0066 -0.7399
vn -0.0007 -0.9998 0.0182
vn -0.0097 -0.9997 0.0234
vn 0.8169 0.0241 -0.5763
vn -0.0023 -0.0266 0.9996
vn -1.0000 0.0021 -0.0004
vn -0.9958 0.0249 0.0884
vn -0.3495 -0.9292 -0.1201
vn 0.0011 -0.9802 0.1980
vn 0.2072 -0.9783 0.0047
vn -0.8909 -0.4542 -0.0075
vn -0.9270 -0.3750 0.0044
vn -0.0004 -0.4788 -0.8779
vn -0.0480 -0.4713 -0.8806
vn 0.0012 -0.8810 -0.4731
vn 0.5984 -0.0109 0.8011
vn -0.7348 0.0102 0.6783
vn 0.7249 0.6888 -0.0004
vn 0.7075 0.7067 0.0041
vn 0.9190 0.3942 0.0071
vn 0.0007 0.0530 0.9986
vn 0.9952 -0.0981 0.0020
vn -0.0009 0.0036 -1.0000
vn -0.0391 -0.0474 -0.9981
vn 0.0608 -0.0172 -0.9980
vn 0.0650 -0.0061 0.9979
vn -0.0000 0.0034 1.0000
vn -0.9020 0.4316 -0.0028
vn -0.8858 0.4640 -0.0075
vn 0.0029 -0.3947 0.9188
vn 0.6849 0.0031 -0.7286
vn -0.1864 0.7610 0.6214
vn -0.0075 0.8026 0.5965
vn -0.6411 0.7674 0.0049
vn 0.0367 -0.9993 -0.0010
vn -0.0260 -0.9997 0.0041
vn -0.4943 0.0477 0.8680
vn 1.0000 -0.0016 -0.0007
vn 1.0000 0.0019 -0.0000
vn -1.0000 -0.0003 0.0029
vn -0.9999 0.0137 -0.0000
vn -0.0022 -0.9997 -0.0259
vn 0.1322 -0.9854 -0.1070
vn 0.0011 -0.9974 -0.0722
vn -0.0985 -0.0082 -0.9951
vn -0.0000 -0.0175 -0.9998
vn -0.0444 -0.0107 -0.9990
vn 0.0146 -0.9999 -0.0002
vn 0.0125 -0.9999 -0.0000
vn 0.0019 0.7227 -0.6912
vn -0.0020 0.0341 -0.9994
vn 0.0122 -0.0950 -0.9954
vn 0.1842 -0.0114 0.9828
vn 0.9973 0.0136 0.0719
vn 0.9030 -0.4296 0.0024
vn 0.0117 0.0051 0.9999
vn -0.9972 -0.0022 -0.0751
vn 0.0068 0.3880 0.9216
vn -0.9998 -0.0014 0.0192
vn -0.9998 0.0046 -0.0203
vn -0.9663 0.0996 0.2372
vn -0.9999 0.0149 -0.0035
vn -1.0000 -0.0000 -0.0031
vn 1.0000 0.0030 -0.0081
vn -0.0054 -0.0012 1.0000
vn -0.0081 0.0033 -1.0000
vn -0.6935 0.0091 -0.7204
vn 0.0044 -0.8779 0.4787
vn 0.5643 -0.8255 0.0004
vn -0.7721 0.0059 -0.6354
vn -0.5033 -0.8641 -0.0002
vn 0.7572 -0.0093 0.6531
vn 0.6494 -0.0008 -0.7604
vn -0.6053 -0.0020 0.7960
vn 0.0038 -0.9995 0.0314
vn 0.7071 0.0046 -0.7071
vn 0.9999 -0.0166 0.0018
vn 0.9950 0.0001 -0.1001
vn 0.9996 -0.0276 -0.0005
vn 0.9963 -0.0385 0.0768
vn -0.3085 0.8819 0.3565
vn 0.7777 -0.0143 -0.6284
vn 0.5110 0.5985 -0.6169
vn 0.6066 -0.5252 -0.5968
vn -0.5700 0.5071 0.6465
vn -0.5973 -0.5159 0.6141
vn 0.9893 0.0019 0.1459
vn -0.7178 0.0186 0.6960
vn 0.3864 0.8134 -0.4347
vn -0.7024 0.0152 0.7116
vn -0.0064 0.0010 -1.0000
vn -0.0076 -0.0037 -1.0000
vn -0.0580 -0.9798 0.1915
vn 0.0696 -0.9975 -0.0103
vn -0.7078 0.0012 0.7064
vn -0.6840 0.3320 -0.6496
vn -0.6814 -0.2630 -0.6831
vn -0.6507 0.3759 -0.6598
vn -0.1429 0.4617 -0.8754
vn -0.0028 0.4560 -0.8900
vn -0.9998 0.0203 0.0028
vn -0.0078 0.0076 0.9999
vn 0.0045 -0.0190 0.9998
vn 0.1861 -0.7371 0.6496
vn -0.5690 -0.0225 0.8220
vn 0.9959 0.0055 0.0904
vn 0.9999 -0.0103 0.0025
vn -0.9998 -0.0200 0.0027
vn -0.9951 -0.0036 0.0987
vn 0.7511 0.0071 -0.6602
vn -0.0025 0.0112 -0.9999
vn 0.0108 -0.0177 -0.9998
vn 0.1407 -0.0066 0.9900
vn -0.0036 -0.0039 1.0000
vn -0.0077 -0.0108 0.9999
vn 1.0000 -0.0033 -0.0056
vn 1.0000 0.0057 -0.0002
vn 1.0000 0.0057 -0.0029
vn 0.4702 -0.7424 -0.4771
vn -0.1672 -0.0016 -0.9859
vn 0.7072 -0.0104 -0.7069
vn -1.0000 0.0010 -0.0016
vn -0.0576 -0.9814 -0.1833
vn -0.1870 -0.9823 -0.0112
vn -0.0072 -0.0261 0.9996
vn 0.2207 0.0526 0.9739
vn 0.0044 0.0287 0.9996
vn -0.7348 -0.0271 0.6778
vn 0.9982 -0.0006 -0.0603
vn 0.9999 0.0101 -0.0027
vn 0.0962 -0.0018 -0.9954
vn -0.0035 0.0104 -0.9999
vn -0.0006 -0.0203 -0.9998
vn -0.0392 -0.0037 -0.9992
vn 0.5485 -0.5639 -0.6174
vn 0.5380 0.6224 -0.5685
vn 0.2054 -0.9787 0.0064
vn 0.2103 -0.9776 0.0005
vn 0.6757 -0.4825 -0.5573
vn -0.0011 -0.9833 -0.1817
vn 0.0028 -0.9808 -0.1950
vn 0.1574 0.9688 -0.1913
vn 0.0741 -0.9888 -0.1294
vn -0.6966 -0.7175 0.0003
vn -0.0595 -0.9981 0.0135
vn 0.1898 -0.9818 -0.0107
vn -0.0452 -0.9990 0.0010
vn -0.0027 -1.0000 0.0015
vn 0.0293 -0.9996 0.0050
vn -0.5515 0.8342 -0.0024
vn -0.5486 0.8361 0.0002
vn -0.7064 0.0067 0.7078
vn -0.5893 -0.8078 -0.0134
vn -0.9998 0.0155 -0.0081
vn -0.9999 0.0046 0.0095
vn -0.9999 0.0093 -0.0049
vn -0.9999 0.0094 -0.0064
vn -0.5849 -0.8110 0.0161
vn -0.9998 0.0093 -0.0163
vn -0.5340 0.1019 -0.8393
vn -0.5835 0.0983 -0.8061
vn -0.5862 -0.0860 0.8056
vn -0.4814 0.1051 -0.8702
vn -0.3482 -0.9367 0.0368
vn -1.0000 0.0021 0.0017
vn -0.3508 -0.9347 -0.0574
vn -0.5039 -0.0053 -0.8637
vn -0.9999 -0.0080 0.0066
vn -0.9999 0.0034 0.0121
vn -0.6284 -0.0067 0.7779
vn -0.6807 0.0003 0.7325
vn -0.4751 0.8799 -0.0070
vn -0.4619 0.8869 0.0011
vn -0.9998 -0.0006 0.0198
vn -0.9996 -0.0027 -0.0271
vn -0.5676 -0.8232 -0.0101
vn -0.5975 -0.8018 0.0157
vn -0.5003 -0.8658 0.0065
vn -0.5184 0.8551 0.0103
vn -0.4329 0.9014 -0.0046
vn -0.6004 0.0136 0.7996
vn -0.5199 -0.0264 -0.8538
vn -0.5214 0.8533 0.0005
vn -0.5322 0.8466 0.0030
vn -0.4892 -0.8720 0.0184
vn -0.6889 -0.0231 -0.7245
vn -0.6397 0.0120 0.7686
vn -0.9999 0.0076 0.0140
vn -0.9998 -0.0098 0.0196
vn -1.0000 -0.0019 0.0070
vn -1.0000 0.0013 0.0005
vn -0.5480 0.8364 0.0121
vn -0.5602 -0.0282 -0.8279
vn -0.4906 -0.8714 -0.0003
vn -0.6831 0.0292 0.7298
vn -0.5218 -0.8530 -0.0049
vn -1.0000 0.0036 -0.0054
vn -0.9998 0.0141 0.0120
vn -1.0000 -0.0042 0.0058
vn -0.4641 0.8858 -0.0043
vn -0.3026 0.0093 -0.9531
vn -0.5197 -0.8542 0.0172
vn -0.5232 0.8522 -0.0017
vn -0.7427 -0.0009 -0.6697
vn -0.9999 -0.0017 -0.0129
vn -1.0000 0.0068 0.0013
vn -0.6426 0.0450 0.7649
vn -0.5541 0.8324 0.0143
vn -0.4249 -0.9051 0.0125
vn -0.5542 0.8322 -0.0173
vn -0.5053 -0.8629 -0.0028
vn -0.5883 -0.0316 -0.8080
vn -1.0000 -0.0010 -0.0045
vn -0.9999 0.0088 0.0127
vn -0.5065 -0.8622 -0.0110
vn -0.5412 -0.0173 0.8407
vn -0.4373 0.8993 0.0034
vn -0.6614 -0.7498 0.0199
vn -0.5545 0.0144 -0.8321
vn -0.4373 0.8993 0.0062
vn -1.0000 -0.0028 -0.0013
vn -0.5862 0.0860 -0.8056
vn -0.9999 0.0080 -0.0066
vn -0.9999 -0.0034 -0.0121
vn -0.5340 -0.1019 0.8393
vn -0.5835 -0.0983 0.8061
vn -0.4814 -0.1051 0.8702
vn -0.9998 -0.0093 0.0163
vn -0.9998 -0.0155 0.0081
vn -0.9999 -0.0046 -0.0095
vn -0.9999 -0.0093 0.0049
vn -0.9999 -0.0094 0.0064
vn -0.5515 -0.8342 0.0024
vn -0.5486 -0.8361 -0.0002
vn -0.7064 -0.0067 -0.7078
vn -0.0636 0.9979 -0.0135
vn 0.1862 0.9825 0.0107
vn -0.0484 0.9988 -0.0010
vn -0.0062 1.0000 -0.0016
vn 0.0255 0.9997 -0.0050
vn -0.6979 0.7162 -0.0003
vn 0.6979 0.7162 -0.0003
vn 0.0636 0.9979 -0.0135
vn 0.0303 0.9995 -0.0005
vn -0.0255 0.9997 -0.0050
vn 0.0062 1.0000 -0.0016
vn 0.0484 0.9988 -0.0010
vn 0.5486 -0.8361 -0.0002
vn 0.5515 -0.8342 0.0024
vn 0.7064 -0.0067 -0.7078
vn 0.5541 0.8324 0.0143
vn 0.4249 -0.9051 0.0125
vn 0.6305 0.0128 -0.7761
vn 0.9999 -0.0046 -0.0095
vn 0.9998 -0.0155 0.0081
vn 0.9998 -0.0087 0.0159
vn 0.9999 -0.0094 0.0064
vn 0.9998 -0.0093 0.0163
vn 0.4582 0.8888 0.0024
vn 0.5340 -0.1019 0.8393
vn 0.5742 -0.0886 0.8139
vn 0.5862 0.0860 -0.8056
vn 0.5271 -0.0919 0.8448
vn 0.5354 -0.8446 0.0048
vn 0.4373 0.8993 0.0062
vn 0.5065 -0.8622 -0.0110
vn 1.0000 -0.0046 0.0007
vn 0.5216 0.8531 -0.0125
vn 0.4838 -0.0063 0.8751
vn 0.9999 0.0080 -0.0066
vn 1.0000 0.0035 -0.0085
vn 0.4647 -0.8854 0.0060
vn 0.4620 -0.8869 -0.0011
vn 0.6807 -0.0003 -0.7325
vn 0.5922 0.0113 -0.8057
vn 0.9998 0.0006 -0.0198
vn 0.9999 0.0145 0.0066
vn 0.5744 0.8185 -0.0019
vn 0.5701 0.8216 0.0019
vn 0.5600 0.8285 -0.0096
vn 0.4982 -0.8671 0.0037
vn 0.6004 0.0136 0.7996
vn 0.5199 -0.0264 -0.8538
vn 0.6636 -0.7478 -0.0212
vn 1.0000 -0.0014 0.0081
vn 0.9998 0.0095 -0.0158
vn 0.5473 -0.8366 -0.0229
vn 0.5968 -0.0268 0.8020
vn 0.6367 -0.7711 0.0057
vn 0.5146 0.8573 0.0142
vn 0.5288 0.0363 -0.8479
vn 0.6012 0.7987 -0.0275
vn 1.0000 -0.0040 0.0008
vn 1.0000 -0.0005 -0.0064
vn 1.0000 -0.0000 0.0077
vn 0.4839 0.8751 -0.0016
vn 0.6461 -0.0301 0.7627
vn 0.4841 0.8749 0.0147
vn 0.6586 0.0280 -0.7520
vn 0.4611 -0.8873 -0.0084
vn 0.5893 -0.8078 -0.0134
vn 0.7064 0.0067 0.7078
vn 0.9999 0.0046 0.0095
vn 0.9998 0.0155 -0.0081
vn 0.9998 0.0087 -0.0159
vn 0.9999 0.0094 -0.0064
vn 0.5486 0.8361 0.0002
vn 0.5515 0.8342 -0.0024
vn 0.5340 0.1019 -0.8393
vn 0.5742 0.0886 -0.8139
vn 0.9998 0.0093 -0.0163
vn 0.5271 0.0919 -0.8448
vn 0.5862 -0.0860 0.8056
vn 0.9999 -0.0080 0.0066
vn 1.0000 -0.0035 0.0085
vn 1.0000 0.0045 -0.0005
vn 0.5423 -0.8401 -0.0103
vn 0.4750 -0.0021 -0.8800
vn 0.6807 0.0003 0.7325
vn 0.6284 -0.0067 0.7779
vn 0.4647 0.8854 -0.0060
vn 0.0595 -0.9981 0.0135
vn 0.0259 -0.9997 0.0005
vn -0.0293 -0.9996 0.0050
vn 0.0027 -1.0000 0.0015
vn 0.0452 -0.9990 0.0010
vn 0.4619 0.8869 0.0011
vn 0.9998 -0.0006 0.0198
vn 0.9999 -0.0145 -0.0066
vn 0.5975 -0.8018 0.0157
vn 0.5676 -0.8232 -0.0101
vn 0.4645 -0.8856 -0.0004
vn 0.6389 -0.0176 -0.7691
vn 0.4892 -0.8720 0.0184
vn 0.5214 0.8533 0.0005
vn 0.5500 0.8351 -0.0010
vn 0.6397 0.0120 0.7686
vn 0.9999 0.0076 0.0140
vn 1.0000 0.0027 0.0041
vn 1.0000 0.0013 0.0005
vn 1.0000 -0.0019 0.0070
vn 0.5716 0.8205 0.0091
vn 0.4607 -0.0186 -0.8874
vn 0.5058 -0.8626 0.0039
vn 0.5684 0.0168 0.8226
vn 0.5218 -0.8530 -0.0049
vn 0.9998 0.0141 0.0120
vn 1.0000 0.0036 -0.0054
vn 1.0000 -0.0017 0.0055
vn 0.5306 0.8476 -0.0101
vn 0.5867 -0.0160 -0.8097
vn 0.6966 -0.7175 0.0003
vn 0.3986 -0.9171 -0.0052
vn 0.5232 0.8522 -0.0017
vn 0.4685 0.8834 -0.0125
vn 0.5562 0.0383 0.8302
vn 0.5883 -0.0316 -0.8080
vn 0.9999 -0.0017 -0.0129
vn 1.0000 -0.0008 0.0022
vn 1.0000 -0.0010 -0.0045
vn 1.0000 -0.0044 0.0006
vn 0.5412 -0.0173 0.8407
vn 0.5790 0.0083 -0.8153
vn 0.5960 0.0079 -0.8029
vn 0.9999 -0.0132 0.0063
vn 0.9999 -0.0042 -0.0139
vn 0.9998 -0.0158 0.0073
vn 0.9998 -0.0134 0.0155
vn 0.9998 -0.0088 0.0151
vn 0.5076 -0.8615 -0.0081
vn 0.3482 -0.9367 0.0368
vn 0.5184 0.8551 0.0103
vn 0.3544 0.9350 0.0113
vn 1.0000 0.0052 0.0013
vn 1.0000 -0.0010 0.0006
vn 0.6106 -0.7919 0.0044
vn 0.6117 0.0067 0.7911
vn 0.4111 0.9116 -0.0002
vn 0.5959 -0.0114 0.8029
vn 0.5306 -0.8476 0.0101
vn 0.9998 -0.0141 -0.0120
vn 1.0000 -0.0017 0.0054
vn 0.5684 -0.0168 -0.8226
vn 0.5317 0.8468 0.0116
vn 0.5716 -0.8205 -0.0091
vn 0.4607 0.0186 0.8874
vn 0.9999 -0.0076 -0.0140
vn 1.0000 -0.0015 -0.0051
vn 1.0000 0.0011 -0.0005
vn 1.0000 0.0030 -0.0062
vn 0.6873 -0.0105 -0.7263
vn 0.5408 -0.8411 -0.0111
vn 0.6367 0.0245 0.7707
vn -0.4641 -0.8858 0.0043
vn -0.5860 -0.0126 0.8102
vn -0.5085 -0.8610 -0.0133
vn -0.5294 0.8482 -0.0173
vn -0.7234 0.0200 0.6901
vn -1.0000 -0.0017 0.0054
vn -0.9998 -0.0141 -0.0120
vn -0.5317 0.8468 0.0116
vn -0.5404 -0.8413 -0.0144
vn -0.5995 0.8004 -0.0019
vn -0.5408 -0.8411 -0.0111
vn -0.5601 0.0282 0.8279
vn -0.6831 -0.0292 -0.7298
vn -1.0000 -0.0005 -0.0064
vn -1.0000 -0.0040 0.0008
vn -1.0000 -0.0028 0.0031
vn -0.6958 0.0134 -0.7181
vn -0.4839 0.8751 -0.0016
vn -0.6298 -0.0324 0.7761
vn -0.9999 -0.0076 -0.0140
vn -0.9997 0.0098 -0.0220
vn -1.0000 0.0030 -0.0062
vn -1.0000 0.0011 -0.0005
vn -0.5480 -0.8364 -0.0121
vn -0.4751 -0.8799 0.0070
vn -0.6367 0.0244 0.7707
vn -0.6873 -0.0105 -0.7263
vn -0.9998 0.0006 -0.0198
vn -0.9996 0.0027 0.0271
vn -0.5922 0.0113 -0.8057
vn -0.6807 -0.0003 -0.7325
vn -0.5701 0.8216 0.0019
vn -0.5744 0.8185 -0.0019
vn -0.5508 0.8346 -0.0076
vn -0.5455 -0.8380 0.0147
vn -0.6012 0.7987 -0.0275
vn -0.5473 -0.8366 -0.0229
vn -0.9998 0.0095 -0.0158
vn -1.0000 -0.0014 0.0081
vn -0.6113 -0.0246 0.7910
vn -0.4620 -0.8869 -0.0011
vn -0.5878 0.0059 0.8090
vn -0.5063 0.8623 0.0117
vn -1.0000 -0.0010 0.0006
vn -1.0000 0.0052 0.0013
vn -0.6586 0.0280 -0.7520
vn -0.9999 -0.0113 0.0129
vn -0.9999 -0.0042 -0.0139
vn -0.9999 -0.0132 0.0063
vn -0.9999 -0.0111 0.0063
vn -0.9998 -0.0158 0.0073
vn -0.5960 0.0079 -0.8029
vn -0.6636 -0.7478 -0.0212
vn -0.4685 0.8834 -0.0125
vt 0.407102 0.258733
vt 0.415785 0.241268
vt 0.415785 0.258732
vt 0.391800 0.741266
vt 0.391800 0.742492
vt 0.391800 0.506769
vt 0.401174 0.258733
vt 0.391800 0.241266
vt 0.401080 0.241266
vt 0.404138 0.500000
vt 0.391800 0.500000
vt 0.404093 0.758733
vt 0.417000 0.758732
vt 0.417000 0.983315
vt 0.417000 0.735674
vt 0.417000 0.507850
vt 0.417000 0.500000
vt 0.466704 1.000000
vt 0.464611 1.000000
vt 0.462217 0.982459
vt 0.424256 0.500000
vt 0.421500 0.516841
vt 0.421500 0.483159
vt 0.466703 0.236487
vt 0.462217 0.237819
vt 0.462217 0.017541
vt 0.475133 0.024095
vt 0.475133 0.225905
vt 0.500000 0.274095
vt 0.475133 0.274095
vt 0.500000 0.524095
vt 0.475133 0.524095
vt 0.419415 0.500000
vt 0.471190 0.500000
vt 0.466703 0.263513
vt 0.471190 0.262059
vt 0.471190 0.737941
vt 0.475133 0.725905
vt 0.475133 0.475905
vt 0.421500 0.000000
vt 0.444699 0.237784
vt 0.421500 0.237738
vt 0.500000 0.000000
vt 0.500000 0.024095
vt 0.375000 0.742518
vt 0.471190 0.989083
vt 0.466703 0.763513
vt 0.466703 0.500000
vt 0.462217 0.737819
vt 0.462217 0.500000
vt 0.421500 0.737738
vt 0.417000 0.764326
vt 0.421500 1.000000
vt 0.417000 1.000000
vt 0.442044 0.500000
vt 0.445335 0.480368
vt 0.445306 0.519632
vt 0.391800 1.000000
vt 0.391800 0.993231
vt 0.415168 0.741268
vt 0.391800 0.493231
vt 0.389968 0.500000
vt 0.375000 0.500000
vt 0.389968 1.000000
vt 0.375000 1.000000
vt 0.391800 0.235723
vt 0.391800 0.006769
vt 0.389968 0.242494
vt 0.375000 0.242518
vt 0.367518 0.750000
vt 0.132482 0.500000
vt 0.417000 0.000000
vt 0.417000 0.235674
vt 0.471190 0.010917
vt 0.459347 0.000000
vt 0.500000 0.737971
vt 0.500000 0.725905
vt 0.500000 0.500000
vt 0.500000 0.475905
vt 0.462217 0.262181
vt 0.500000 0.762029
vt 0.475133 0.774095
vt 0.471190 0.762059
vt 0.472976 1.000000
vt 0.472453 0.992281
vt 0.475133 0.975905
vt 0.500000 0.774095
vt 0.500000 0.225905
vt 0.500000 0.975905
vt 0.391800 0.758734
vt 0.391800 0.757508
vt 0.391800 0.257508
vt 0.391800 0.242151
vt 0.375000 0.257482
vt 0.417000 0.263940
vt 0.417000 0.492150
vt 0.404138 0.271431
vt 0.471190 0.237941
vt 0.462217 0.762181
vt 0.466703 0.736487
vt 0.498439 0.262031
vt 0.443984 0.737783
vt 0.421500 0.762262
vt 0.421500 0.262262
vt 0.404046 0.228569
vt 0.417000 0.740636
vt 0.391800 0.258734
vt 0.472453 0.007719
vt 0.466703 0.000000
vt 0.444094 0.762217
vt 0.415168 0.500000
vt 0.417000 0.500000
vt 0.389968 0.000000
vt 0.417000 0.733418
vt 0.444175 0.737783
vt 0.444525 0.262216
vt 0.445741 0.000000
vt 0.445290 0.519632
vt 0.448448 0.500000
vt 0.498619 0.237970
vt 0.404138 0.741267
vt 0.417000 0.021295
vt 0.417000 0.236060
vt 0.407009 0.241267
vt 0.417000 0.264326
vt 0.414091 0.000000
vt 0.417000 0.987534
vt 0.472976 0.000000
vt 0.469700 1.000000
vt 0.375000 0.000000
vt 0.375000 0.757482
vt 0.443772 1.000000
vt 0.404166 0.515758
vt 0.417000 0.012466
vt 0.417000 0.241268
vt 0.000000 0.000000
vt 1.000000 1.000000
vt 0.000000 0.959538
vt 1.000000 0.959538
vt 1.000000 0.952422
vt 0.000000 0.952422
vt 0.999728 0.952422
vt 1.000000 0.058409
vt 0.000000 0.143663
vt 0.000000 0.058409
vt 1.000000 0.150000
vt 1.000000 0.143663
vt 0.000000 0.150000
vt 0.393604 0.150000
vt 0.166573 0.165320
vt 0.010214 0.165320
vt 0.000000 0.500000
vt 0.010214 0.484680
vt 0.114390 0.500000
vt 0.180393 0.184055
vt 0.187648 0.300523
vt 0.179968 0.343620
vt 0.199120 0.484680
vt 0.210330 0.500000
vt 0.114361 0.484680
vt 0.190569 0.347410
vt 0.199322 0.323293
vt 0.188527 0.150000
vt 0.199737 0.165320
vt 0.219632 0.484680
vt 0.209572 0.323190
vt 0.282618 0.500000
vt 0.316148 0.484680
vt 0.383049 0.484680
vt 0.389578 0.500000
vt 0.383355 0.184195
vt 0.370719 0.165320
vt 0.403497 0.465754
vt 0.397733 0.493282
vt 0.600887 0.150000
vt 0.403802 0.165320
vt 0.590521 0.165320
vt 0.499901 0.484680
vt 0.415787 0.484680
vt 0.499930 0.500000
vt 0.587373 0.484680
vt 0.590913 0.500000
vt 0.673123 0.827505
vt 0.683559 0.842500
vt 0.603253 0.842500
vt 0.486364 0.827505
vt 0.496425 0.842500
vt 0.509803 0.533452
vt 0.398284 0.842480
vt 0.607804 0.484680
vt 0.678538 0.500000
vt 0.610762 0.184628
vt 0.772193 0.165320
vt 0.784321 0.184287
vt 0.708534 0.484680
vt 0.623391 0.165320
vt 0.795100 0.150000
vt 0.789372 0.500000
vt 0.779405 0.484680
vt 0.800148 0.465876
vt 0.812631 0.484680
vt 0.871758 0.500000
vt 0.889391 0.484680
vt 0.805067 0.165320
vt 1.000000 0.500000
vt 0.989786 0.165320
vt 0.989786 0.484680
vt 0.010214 0.827505
vt 0.105628 0.842500
vt 0.000000 0.842500
vt 0.010214 0.514995
vt 0.091338 0.514995
vt 0.103314 0.533421
vt 0.136421 0.514995
vt 0.114427 0.500056
vt 0.123752 0.533593
vt 0.210330 0.514995
vt 0.272554 0.514995
vt 0.274374 0.695764
vt 0.284598 0.696692
vt 0.393248 0.500000
vt 0.292984 0.514995
vt 0.294595 0.674966
vt 0.282588 0.484680
vt 0.184606 0.156458
vt 0.000000 0.143644
vt 1.000000 0.143644
vt 1.000000 0.058428
vt 0.000000 0.058428
vt 1.000000 0.052072
vt 0.000000 0.052072
vt 1.000000 0.044195
vt 1.000000 0.000000
vt 1.000000 0.044195
vt 0.000000 0.044195
vt 1.000000 0.058428
vt 0.600887 0.150000
vt 0.597438 0.500000
vt 0.522541 0.514995
vt 0.597438 0.514995
vt 0.489562 0.514995
vt 0.506794 0.827505
vt 0.668542 0.514995
vt 0.688974 0.514995
vt 0.789372 0.514995
vt 0.678509 0.484680
vt 0.693282 0.808837
vt 0.705937 0.827505
vt 0.878548 0.842500
vt 0.861837 0.514995
vt 0.868033 0.827505
vt 0.989786 0.827505
vt 0.888469 0.827505
vt 0.882639 0.533433
vt 0.308787 0.827505
vt 1.000000 0.058409
vt 0.999728 0.952422
vt 0.286067 0.842500
vt 0.116233 0.827505
vt 0.095790 0.827505
vt 0.275701 0.827505
vt 0.295944 0.808936
vt 0.295052 0.720374
vt 0.304442 0.679818
vt 0.393248 0.514995
vt 0.894583 0.514995
vt 0.989786 0.514995
vt 1.000000 0.842500
vt 0.871729 0.484680
vt 0.414091 1.000000
vt 0.464610 0.000000
vt 0.391800 0.000000
vt 0.125000 0.750000
vt 0.125000 0.507482
vt 0.500000 1.000000
vt 0.469700 0.000000
vt 0.459347 1.000000
vt 0.000000 1.000000
vt 0.000000 0.044195
vt 0.000000 0.058409
s 0
usemtl pillar_gray
f 130/1/1 134/2/1 132/3/1
f 129/7/3 69/8/3 127/9/3
f 125/10/4 71/4/4 10/11/4
f 124/12/5 46/13/5 138/14/5
f 51/15/6 94/16/6 3/17/6
f 6/18/7 87/19/7 86/20/7
f 93/21/8 90/22/8 92/23/8
f 62/24/9 59/25/9 88/26/9
f 26/27/10 45/28/10 29/28/10
f 19/29/11 40/30/11 18/30/11
f 23/31/12 42/32/12 22/32/12
f 92/23/13 91/33/13 3/17/13
f 7/34/14 61/35/14 58/36/14
f 63/37/15 22/32/15 25/38/15
f 58/36/16 21/39/16 7/34/16
f 5/40/17 113/41/17 54/42/17
f 1/43/18 27/44/18 26/27/18
f 80/46/20 6/18/20 67/47/20
f 9/48/21 66/49/21 8/50/21
f 27/44/22 44/27/22 26/27/22
f 90/22/23 55/51/23 51/15/23
f 52/52/24 5/53/24 4/54/24
f 117/55/25 118/56/25 120/57/25
f 124/12/27 106/60/27 46/13/27
f 4/72/34 54/42/34 49/73/34
f 84/74/35 26/27/35 29/28/35
f 89/75/36 86/20/36 88/26/36
f 48/76/37 25/38/37 24/77/37
f 2/78/38 21/39/38 20/79/38
f 61/35/39 8/50/39 60/80/39
f 2/78/40 22/32/40 7/34/40
f 47/81/41 14/82/41 64/83/41
f 63/37/42 9/48/42 7/34/42
f 82/84/43 81/85/43 17/86/43
f 80/46/44 14/82/44 17/86/44
f 15/87/49 38/82/49 14/82/49
f 22/32/50 43/38/50 25/38/50
f 21/39/51 40/30/51 41/39/51
f 28/88/52 45/28/52 37/88/52
f 14/82/53 39/86/53 17/86/53
f 24/77/54 43/38/54 33/77/54
f 20/79/55 41/39/55 35/79/55
f 16/89/56 39/86/56 31/89/56
f 133/95/60 96/96/60 131/97/60
f 55/51/61 52/52/61 51/15/61
f 60/80/62 113/41/62 59/25/62
f 61/35/63 57/98/63 58/36/63
f 61/35/64 59/25/64 62/24/64
f 67/47/65 63/37/65 64/83/65
f 65/99/66 68/100/66 67/47/66
f 121/101/67 18/30/67 58/36/67
f 112/102/68 56/103/68 55/51/68
f 53/104/69 49/73/69 54/42/69
f 48/76/70 64/83/70 63/37/70
f 128/105/71 127/9/71 69/8/71
f 52/52/72 108/106/72 51/15/72
f 83/108/75 84/74/75 81/85/75
f 84/74/76 62/24/76 6/109/76
f 86/20/77 87/19/77 88/26/77
f 116/110/78 5/53/78 56/103/78
f 90/22/79 91/33/79 92/23/79
f 120/57/80 8/50/80 66/49/80
f 95/111/81 96/96/81 97/112/81
f 106/60/84 107/114/84 108/106/84
f 46/13/87 106/60/87 108/106/87
f 94/16/88 95/111/88 97/112/88
f 66/49/89 116/110/89 112/115/89
f 118/56/90 60/80/90 8/50/90
f 116/110/91 65/99/91 86/20/91
f 115/116/92 54/42/92 113/41/92
f 114/117/93 89/75/93 88/26/93
f 120/118/94 112/102/94 55/51/94
f 118/56/95 119/119/95 120/57/95
f 117/55/96 93/21/96 92/23/96
f 122/120/97 19/29/97 121/101/97
f 122/120/98 29/28/98 28/88/98
f 122/120/99 58/36/99 57/98/99
f 124/12/100 11/58/100 72/90/100
f 138/14/101 52/52/101 4/54/101
f 94/16/102 107/114/102 123/121/102
f 124/12/103 71/4/103 123/121/103
f 131/97/104 125/10/104 10/11/104
f 136/122/105 135/123/105 128/105/105
f 129/7/106 128/105/106 131/97/106
f 131/97/107 126/124/107 130/1/107
f 96/96/108 50/125/108 3/17/108
f 132/3/109 135/123/109 133/95/109
f 137/126/110 138/14/110 139/54/110
f 136/122/111 4/72/111 49/73/111
f 136/122/112 137/126/112 139/54/112
f 254/2/113 250/1/113 252/3/113
f 189/8/115 249/7/115 247/9/115
f 148/11/116 243/121/116 245/10/116
f 258/127/117 168/13/117 244/12/117
f 214/16/118 227/114/118 141/17/118
f 206/20/119 207/19/119 144/18/119
f 213/21/120 212/23/120 210/22/120
f 208/26/121 179/25/121 182/24/121
f 167/28/122 158/27/122 159/28/122
f 162/30/123 19/29/123 154/30/123
f 164/32/124 23/31/124 156/32/124
f 141/17/125 211/33/125 212/23/125
f 178/36/126 147/48/126 145/34/126
f 183/37/127 156/32/127 145/34/127
f 155/39/128 178/36/128 145/34/128
f 143/40/129 233/41/129 234/117/129
f 158/27/130 1/43/130 202/128/130
f 144/18/132 205/129/132 200/46/132
f 147/48/133 186/49/133 188/100/133
f 166/27/134 27/44/134 158/27/134
f 171/15/135 175/51/135 210/22/135
f 172/52/136 143/53/136 176/103/136
f 237/55/137 240/57/137 238/56/137
f 226/60/139 244/12/139 168/13/139
f 142/72/146 174/42/146 143/40/146
f 158/27/147 203/108/147 204/74/147
f 209/75/148 208/26/148 206/20/148
f 48/76/149 157/38/149 183/37/149
f 2/78/150 155/39/150 145/34/150
f 181/35/151 146/50/151 147/48/151
f 156/32/152 2/78/152 145/34/152
f 152/82/153 47/81/153 184/83/153
f 147/48/154 183/37/154 145/34/154
f 153/86/155 201/85/155 202/84/155
f 153/86/156 184/83/156 200/46/156
f 160/82/161 15/87/161 152/82/161
f 165/38/162 156/32/162 157/38/162
f 155/39/163 162/30/163 154/30/163
f 28/88/164 167/28/164 159/28/164
f 161/86/165 152/82/165 153/86/165
f 24/77/166 165/38/166 157/38/166
f 20/79/167 163/39/167 155/39/167
f 16/89/168 161/86/168 153/86/168
f 252/3/172 250/1/172 251/97/172
f 172/52/173 175/51/173 171/15/173
f 179/25/174 235/116/174 180/80/174
f 177/98/175 181/35/175 178/36/175
f 181/35/176 179/25/176 180/80/176
f 184/83/177 188/100/177 187/47/177
f 188/100/178 185/99/178 187/47/178
f 154/30/179 241/101/179 178/36/179
f 175/51/180 236/110/180 232/102/180
f 174/42/181 170/125/181 173/104/181
f 183/37/182 47/81/182 48/76/182
f 189/8/183 247/9/183 248/105/183
f 172/52/184 228/106/184 168/13/184
f 203/108/187 202/84/187 201/85/187
f 182/24/188 177/98/188 204/74/188
f 206/20/189 208/26/189 207/19/189
f 176/103/190 234/132/190 236/110/190
f 210/22/191 212/23/191 211/33/191
f 146/50/192 239/119/192 240/57/192
f 215/111/193 217/112/193 216/96/193
f 226/60/196 228/106/196 227/114/196
f 168/13/199 228/106/199 226/60/199
f 214/16/200 217/112/200 215/111/200
f 232/115/201 185/99/201 186/49/201
f 180/80/202 235/116/202 238/56/202
f 206/20/203 185/99/203 236/110/203
f 233/41/204 173/104/204 235/116/204
f 208/26/205 209/75/205 234/117/205
f 240/118/206 237/55/206 213/21/206
f 238/56/207 240/57/207 239/119/207
f 213/21/208 237/55/208 238/56/208
f 19/29/209 242/120/209 241/101/209
f 159/28/210 242/120/210 28/88/210
f 177/98/211 241/101/211 242/120/211
f 192/90/212 260/133/212 244/12/212
f 172/52/213 168/13/213 258/127/213
f 214/16/214 215/111/214 245/10/214
f 243/121/215 192/90/215 244/12/215
f 148/11/216 245/10/216 251/97/216
f 260/133/217 248/105/217 256/134/217
f 251/97/218 247/9/218 249/7/218
f 251/97/219 246/124/219 248/105/219
f 170/125/220 253/95/220 216/96/220
f 252/3/221 255/123/221 254/135/221
f 257/126/222 259/54/222 258/127/222
f 142/72/223 259/72/223 256/134/223
f 256/134/224 259/54/224 257/126/224
f 133/95/225 49/73/225 50/125/225
f 253/95/226 169/73/226 255/123/226
f 261/136/144 265/136/144 262/136/144
f 514/136/144 261/136/144 262/136/144
f 265/137/227 266/138/227 267/139/227
f 266/138/228 269/140/228 267/139/228
f 271/140/32 268/141/32 270/141/32
f 270/141/228 273/142/228 271/140/228
f 272/143/227 276/144/227 273/145/227
f 275/146/229 276/144/229 274/147/229
f 277/148/230 275/146/230 299/149/230
f 620/150/231 280/151/231 278/148/231
f 280/151/232 281/152/232 278/148/232
f 283/153/233 282/154/233 281/152/233
f 618/155/234 288/156/234 286/157/234
f 282/154/235 285/158/235 291/159/235
f 284/160/236 287/161/236 285/158/236
f 287/161/237 286/157/237 289/162/237
f 289/162/238 286/157/238 288/156/238
f 618/155/239 279/163/239 289/162/239
f 303/173/249 304/174/249 296/170/249
f 300/175/250 301/176/250 299/149/250
f 301/176/252 302/177/252 306/178/252
f 304/174/253 303/173/253 305/179/253
f 305/179/254 306/178/254 308/180/254
f 308/180/255 307/181/255 312/182/255
f 311/186/257 309/180/257 308/187/257
f 311/186/259 308/187/259 312/189/259
f 312/182/261 302/177/261 300/175/261
f 319/197/269 325/200/269 322/198/269
f 324/201/270 323/202/270 322/198/270
f 322/198/271 325/200/271 324/201/271
f 616/203/272 325/200/272 326/204/272
f 329/146/273 326/204/273 319/197/273
f 330/205/274 327/206/274 329/146/274
f 323/202/275 328/207/275 330/205/275
f 332/208/276 323/209/276 330/210/276
f 331/152/277 332/208/277 330/210/277
f 333/211/278 336/212/278 335/213/278
f 323/209/279 335/213/279 337/154/279
f 337/154/280 335/213/280 336/212/280
f 364/153/281 337/154/281 331/152/281
f 336/212/282 331/152/282 337/154/282
f 337/154/283 359/158/283 338/159/283
f 346/221/291 348/222/291 345/167/291
f 345/167/292 608/223/292 347/220/292
f 360/155/298 355/163/298 354/162/298
f 338/159/299 357/161/299 354/162/299
f 354/162/300 358/157/300 356/156/300
f 357/161/301 358/157/301 354/162/301
f 339/160/302 357/161/302 359/158/302
f 360/155/303 356/156/303 358/157/303
f 361/225/304 360/155/304 362/150/304
f 362/150/305 363/151/305 365/148/305
f 363/151/306 331/152/306 365/148/306
f 366/148/307 367/146/307 585/149/307
f 367/146/308 368/226/308 369/227/308
f 371/228/227 368/226/227 370/229/227
f 370/229/309 373/230/309 371/228/309
f 372/231/144 375/230/144 373/230/144
f 374/231/309 377/232/309 375/230/309
f 377/232/227 378/136/227 380/233/227
f 379/136/32 380/233/32 378/136/32
f 382/233/32 379/136/32 383/136/32
f 383/136/310 384/234/310 382/233/310
f 386/235/311 385/230/311 384/234/311
f 385/230/144 388/231/144 389/230/144
f 389/230/311 390/229/311 391/236/311
f 391/236/310 392/226/310 393/227/310
f 392/226/312 395/146/312 393/227/312
f 421/237/313 542/197/313 395/146/313
f 396/148/314 398/151/314 558/150/314
f 399/152/315 398/151/315 396/148/315
f 400/154/316 403/153/316 399/152/316
f 399/152/317 520/212/317 400/154/317
f 399/152/318 518/208/318 401/211/318
f 558/150/319 398/151/319 406/157/319
f 407/161/320 404/160/320 405/158/320
f 400/154/321 405/158/321 404/160/321
f 407/161/322 409/162/322 406/157/322
f 409/162/323 408/156/323 406/157/323
f 397/163/324 557/225/324 556/155/324
f 411/159/327 407/161/327 405/158/327
f 421/237/336 422/176/336 423/177/336
f 417/221/338 425/174/338 424/173/338
f 424/173/339 426/179/339 427/178/339
f 425/174/340 426/179/340 424/173/340
f 429/180/341 427/178/341 426/179/341
f 429/180/342 428/181/342 427/178/342
f 429/180/344 533/186/344 431/187/344
f 417/221/346 432/241/346 429/180/346
f 439/198/351 442/244/351 443/245/351
f 438/191/353 444/247/353 442/244/353
f 445/248/355 443/245/355 444/247/355
f 445/248/356 444/247/356 440/184/356
f 448/249/357 445/248/357 440/184/357
f 448/249/358 447/250/358 446/251/358
f 448/154/361 465/158/361 452/160/361
f 448/154/362 456/153/362 454/152/362
f 454/152/363 457/151/363 455/148/363
f 458/150/364 457/151/364 463/157/364
f 455/148/365 457/151/365 458/150/365
f 459/225/366 458/150/366 460/155/366
f 466/163/367 459/225/367 460/155/367
f 462/162/368 461/156/368 463/157/368
f 464/161/369 452/160/369 465/158/369
f 464/161/370 462/162/370 463/157/370
f 471/170/379 480/174/379 479/173/379
f 476/175/380 477/176/380 478/177/380
f 476/175/381 491/197/381 502/146/381
f 479/173/383 481/179/383 482/178/383
f 480/174/384 481/179/384 479/173/384
f 431/180/385 482/178/385 481/179/385
f 431/180/386 483/181/386 482/178/386
f 484/182/387 478/177/387 483/181/387
f 484/189/389 533/186/389 532/255/389
f 491/197/397 497/200/397 498/204/397
f 495/202/398 496/201/398 494/198/398
f 494/198/399 496/201/399 497/200/399
f 497/200/400 496/201/400 515/203/400
f 501/146/401 498/204/401 499/206/401
f 402/205/402 499/206/402 500/207/402
f 505/144/403 502/146/403 503/147/403
f 508/256/310 505/144/310 503/147/310
f 506/257/404 509/141/404 507/140/404
f 510/141/32 507/140/32 509/141/32
f 510/141/404 513/139/404 511/140/404
f 512/138/310 514/137/310 513/139/310
f 495/202/405 500/207/405 515/203/405
f 495/209/406 518/208/406 402/210/406
f 495/209/408 519/213/408 517/260/408
f 519/213/410 401/211/410 518/208/410
f 400/154/411 520/212/411 519/213/411
f 412/167/416 527/223/416 530/222/416
f 525/220/417 531/262/417 526/263/417
f 526/263/418 528/264/418 525/220/418
f 528/264/419 527/223/419 525/220/419
f 526/263/420 531/262/420 532/255/420
f 527/223/421 529/265/421 530/222/421
f 417/221/422 530/222/422 529/265/422
f 532/255/423 531/262/423 485/258/423
f 450/202/431 540/207/431 547/269/431
f 539/205/432 543/206/432 540/207/432
f 541/146/433 544/204/433 543/206/433
f 545/200/434 546/201/434 547/269/434
f 542/197/435 545/200/435 544/204/435
f 439/198/436 546/201/436 545/200/436
f 450/202/437 546/201/437 439/198/437
f 439/198/444 447/250/444 450/202/444
f 421/237/445 428/181/445 430/238/445
f 557/225/446 558/150/446 556/155/446
f 559/146/447 602/204/447 560/197/447
f 562/205/448 561/206/448 559/146/448
f 563/202/450 566/207/450 562/205/450
f 567/269/452 569/200/452 602/204/452
f 568/201/453 563/202/453 570/198/453
f 570/198/454 569/200/454 568/201/454
f 570/198/455 575/244/455 571/191/455
f 574/250/457 570/198/457 563/202/457
f 560/197/459 569/200/459 570/198/459
f 576/247/460 575/244/460 573/245/460
f 571/191/461 576/247/461 292/184/461
f 577/248/462 292/184/462 576/247/462
f 577/248/463 282/249/463 292/184/463
f 282/249/464 574/250/464 563/202/464
f 584/237/469 589/176/469 585/149/469
f 588/181/470 584/237/470 586/238/470
f 589/176/472 587/177/472 593/178/472
f 590/173/473 591/174/473 346/221/473
f 591/174/474 590/173/474 592/179/474
f 592/179/475 593/178/475 309/180/475
f 309/180/476 588/181/476 586/238/476
f 608/223/490 607/265/490 609/264/490
f 609/264/491 347/220/491 608/223/491
f 612/255/492 610/263/492 609/264/492
f 610/263/493 347/220/493 609/264/493
f 611/262/494 347/220/494 610/263/494
f 612/255/495 313/258/495 611/262/495
f 613/241/496 346/221/496 309/180/496
f 619/225/500 618/155/500 620/150/500
f 130/1/501 126/124/501 134/2/501
f 129/7/504 70/107/504 69/8/504
f 125/10/505 123/121/505 71/4/505
f 137/270/506 140/133/506 138/14/506
f 140/133/507 124/12/507 138/14/507
f 51/15/508 108/106/508 107/114/508
f 107/114/509 94/16/509 51/15/509
f 94/16/510 97/112/510 3/17/510
f 65/99/511 67/47/511 86/20/511
f 67/47/512 6/18/512 86/20/512
f 87/271/513 6/109/513 88/26/513
f 6/109/514 62/24/514 88/26/514
f 26/27/515 44/27/515 45/28/515
f 19/29/516 34/29/516 40/30/516
f 23/31/517 32/31/517 42/32/517
f 3/17/518 50/125/518 92/23/518
f 50/125/519 53/104/519 92/23/519
f 7/34/520 9/48/520 61/35/520
f 63/37/521 7/34/521 22/32/521
f 58/36/522 18/30/522 21/39/522
f 5/40/523 114/117/523 113/41/523
f 26/27/524 83/108/524 82/128/524
f 82/128/525 1/43/525 26/27/525
f 67/47/528 64/83/528 80/46/528
f 80/46/529 85/129/529 6/18/529
f 9/48/530 68/100/530 66/49/530
f 27/44/531 36/44/531 44/27/531
f 51/15/532 3/17/532 90/22/532
f 3/17/533 91/33/533 90/22/533
f 52/52/534 56/103/534 5/53/534
f 124/12/537 123/121/537 106/60/537
f 4/72/550 5/40/550 54/42/550
f 29/28/551 57/98/551 84/74/551
f 84/74/552 83/108/552 26/27/552
f 48/76/553 63/37/553 25/38/553
f 2/78/554 7/34/554 21/39/554
f 61/35/555 9/48/555 8/50/555
f 2/78/556 23/31/556 22/32/556
f 47/81/557 15/87/557 14/82/557
f 63/37/558 68/100/558 9/48/558
f 16/89/559 1/275/559 17/86/559
f 1/275/560 82/84/560 17/86/560
f 17/86/561 81/85/561 80/46/561
f 80/46/562 64/83/562 14/82/562
f 15/87/567 30/87/567 38/82/567
f 22/32/568 42/32/568 43/38/568
f 21/39/569 18/30/569 40/30/569
f 28/88/570 29/28/570 45/28/570
f 14/82/571 38/82/571 39/86/571
f 24/77/572 25/38/572 43/38/572
f 20/79/573 21/39/573 41/39/573
f 16/89/574 17/86/574 39/86/574
f 95/111/577 125/10/577 96/96/577
f 125/10/578 131/97/578 96/96/578
f 131/97/579 130/1/579 133/95/579
f 130/1/580 132/3/580 133/95/580
f 55/51/581 56/103/581 52/52/581
f 60/80/582 115/116/582 113/41/582
f 61/35/583 62/24/583 57/98/583
f 61/35/584 60/80/584 59/25/584
f 67/47/585 68/100/585 63/37/585
f 65/99/586 66/49/586 68/100/586
f 121/101/587 19/29/587 18/30/587
f 112/102/588 116/110/588 56/103/588
f 53/104/589 50/125/589 49/73/589
f 48/76/590 47/81/590 64/83/590
f 69/8/591 11/272/591 128/105/591
f 11/272/592 140/133/592 128/105/592
f 52/52/593 46/13/593 108/106/593
f 85/276/596 80/46/596 84/74/596
f 80/46/597 81/85/597 84/74/597
f 81/85/598 82/84/598 83/108/598
f 6/109/599 85/276/599 84/74/599
f 84/74/600 57/98/600 62/24/600
f 116/110/601 114/132/601 5/53/601
f 66/49/602 112/115/602 120/57/602
f 120/57/603 119/119/603 8/50/603
f 66/49/605 65/99/605 116/110/605
f 8/50/606 119/119/606 118/56/606
f 118/56/607 115/116/607 60/80/607
f 89/277/608 114/132/608 86/20/608
f 114/132/609 116/110/609 86/20/609
f 115/116/610 53/104/610 54/42/610
f 59/25/611 113/41/611 88/26/611
f 113/41/612 114/117/612 88/26/612
f 55/51/613 90/22/613 120/118/613
f 90/22/614 93/21/614 117/55/614
f 120/118/615 90/22/615 117/55/615
f 92/23/616 53/104/616 115/116/616
f 115/116/617 118/56/617 92/23/617
f 118/56/618 117/55/618 92/23/618
f 122/120/619 28/88/619 19/29/619
f 122/120/620 57/98/620 29/28/620
f 122/120/621 121/101/621 58/36/621
f 124/12/622 140/133/622 11/58/622
f 4/54/623 139/54/623 138/14/623
f 138/14/624 46/13/624 52/52/624
f 106/60/625 123/121/625 107/114/625
f 123/121/626 125/10/626 94/16/626
f 125/10/627 95/111/627 94/16/627
f 124/12/628 72/90/628 71/4/628
f 10/11/629 70/107/629 131/97/629
f 70/107/630 129/7/630 131/97/630
f 134/2/631 126/124/631 135/123/631
f 126/124/632 128/105/632 135/123/632
f 128/105/633 140/133/633 136/122/633
f 140/133/634 137/126/634 136/122/634
f 129/7/635 127/9/635 128/105/635
f 131/97/636 128/105/636 126/124/636
f 3/17/637 97/112/637 96/96/637
f 96/96/638 133/95/638 50/125/638
f 132/3/639 134/135/639 135/123/639
f 49/73/640 135/123/640 136/122/640
f 136/122/641 139/72/641 4/72/641
f 254/2/642 246/124/642 250/1/642
f 189/8/645 190/107/645 249/7/645
f 148/11/646 191/4/646 243/121/646
f 244/12/647 260/133/647 258/127/647
f 260/133/648 257/270/648 258/127/648
f 227/114/649 228/106/649 171/15/649
f 171/15/650 141/17/650 227/114/650
f 141/17/651 217/112/651 214/16/651
f 144/18/652 187/47/652 206/20/652
f 187/47/653 185/99/653 206/20/653
f 182/24/654 144/109/654 208/26/654
f 144/109/655 207/271/655 208/26/655
f 167/28/656 166/27/656 158/27/656
f 162/30/657 34/29/657 19/29/657
f 164/32/658 32/31/658 23/31/658
f 173/104/659 170/125/659 212/23/659
f 170/125/660 141/17/660 212/23/660
f 178/36/661 181/35/661 147/48/661
f 183/37/662 157/38/662 156/32/662
f 155/39/663 154/30/663 178/36/663
f 143/40/664 174/42/664 233/41/664
f 202/128/665 203/108/665 158/27/665
f 158/27/666 27/44/666 1/43/666
f 200/46/669 184/83/669 187/47/669
f 187/47/670 144/18/670 200/46/670
f 147/48/671 146/50/671 186/49/671
f 166/27/672 36/44/672 27/44/672
f 211/33/673 141/17/673 210/22/673
f 141/17/674 171/15/674 210/22/674
f 172/52/675 142/54/675 143/53/675
f 226/60/678 243/121/678 244/12/678
f 142/72/691 169/73/691 174/42/691
f 204/74/692 177/98/692 158/27/692
f 177/98/693 159/28/693 158/27/693
f 48/76/694 24/77/694 157/38/694
f 2/78/695 20/79/695 155/39/695
f 181/35/696 180/80/696 146/50/696
f 156/32/697 23/31/697 2/78/697
f 152/82/698 15/87/698 47/81/698
f 147/48/699 188/100/699 183/37/699
f 202/84/700 1/275/700 153/86/700
f 1/275/701 16/89/701 153/86/701
f 200/46/702 201/85/702 153/86/702
f 153/86/703 152/82/703 184/83/703
f 160/82/708 30/87/708 15/87/708
f 165/38/709 164/32/709 156/32/709
f 155/39/710 163/39/710 162/30/710
f 28/88/711 37/88/711 167/28/711
f 161/86/712 160/82/712 152/82/712
f 24/77/713 33/77/713 165/38/713
f 20/79/714 35/79/714 163/39/714
f 16/89/715 31/89/715 161/86/715
f 251/97/718 245/10/718 216/96/718
f 245/10/719 215/111/719 216/96/719
f 216/96/720 253/95/720 251/97/720
f 253/95/721 252/3/721 251/97/721
f 172/52/722 176/103/722 175/51/722
f 179/25/723 233/41/723 235/116/723
f 177/98/724 182/24/724 181/35/724
f 181/35/725 182/24/725 179/25/725
f 184/83/726 183/37/726 188/100/726
f 188/100/727 186/49/727 185/99/727
f 154/30/728 19/29/728 241/101/728
f 175/51/729 176/103/729 236/110/729
f 174/42/730 169/73/730 170/125/730
f 183/37/731 184/83/731 47/81/731
f 260/133/732 149/272/732 248/105/732
f 149/272/733 189/8/733 248/105/733
f 172/52/734 171/15/734 228/106/734
f 201/85/737 200/46/737 203/108/737
f 200/46/738 205/276/738 204/74/738
f 203/108/739 200/46/739 204/74/739
f 204/74/740 205/276/740 144/109/740
f 144/109/741 182/24/741 204/74/741
f 176/103/742 143/53/742 234/132/742
f 240/57/743 232/115/743 186/49/743
f 186/49/744 146/50/744 240/57/744
f 232/115/746 236/110/746 185/99/746
f 238/56/747 239/119/747 146/50/747
f 146/50/748 180/80/748 238/56/748
f 236/110/749 234/132/749 206/20/749
f 234/132/750 209/277/750 206/20/750
f 233/41/751 174/42/751 173/104/751
f 234/117/752 233/41/752 208/26/752
f 233/41/753 179/25/753 208/26/753
f 213/21/754 210/22/754 240/118/754
f 210/22/755 175/51/755 240/118/755
f 175/51/756 232/102/756 240/118/756
f 235/116/757 173/104/757 238/56/757
f 173/104/758 212/23/758 238/56/758
f 212/23/759 213/21/759 238/56/759
f 19/29/760 28/88/760 242/120/760
f 159/28/761 177/98/761 242/120/761
f 177/98/762 178/36/762 241/101/762
f 192/90/763 149/58/763 260/133/763
f 258/127/764 259/54/764 142/54/764
f 142/54/765 172/52/765 258/127/765
f 245/10/766 243/121/766 214/16/766
f 243/121/767 226/60/767 227/114/767
f 214/16/768 243/121/768 227/114/768
f 243/121/769 191/4/769 192/90/769
f 249/7/770 190/107/770 251/97/770
f 190/107/771 148/11/771 251/97/771
f 248/105/772 246/124/772 255/123/772
f 246/124/773 254/2/773 255/123/773
f 255/123/774 256/134/774 248/105/774
f 256/134/775 257/126/775 260/133/775
f 251/97/776 248/105/776 247/9/776
f 251/97/777 250/1/777 246/124/777
f 216/96/778 217/112/778 141/17/778
f 141/17/779 170/125/779 216/96/779
f 252/3/780 253/95/780 255/123/780
f 256/134/781 255/123/781 169/73/781
f 169/73/782 142/72/782 256/134/782
f 133/95/783 135/123/783 49/73/783
f 253/95/784 170/125/784 169/73/784
f 261/136/144 264/136/144 265/136/144
f 514/136/144 263/136/144 261/136/144
f 265/137/227 264/278/227 266/138/227
f 266/138/228 268/141/228 269/140/228
f 271/140/32 269/140/32 268/141/32
f 270/141/228 272/141/228 273/142/228
f 272/143/227 274/147/227 276/144/227
f 275/146/785 277/148/785 276/144/785
f 275/146/786 329/146/786 319/197/786
f 319/197/787 300/175/787 275/146/787
f 300/175/788 299/149/788 275/146/788
f 299/149/789 279/163/789 277/148/789
f 279/163/790 278/148/790 277/148/790
f 278/148/791 279/163/791 620/150/791
f 279/163/792 619/225/792 620/150/792
f 280/151/793 283/153/793 281/152/793
f 283/153/794 284/160/794 282/154/794
f 286/157/795 284/160/795 280/151/795
f 284/160/796 283/153/796 280/151/796
f 280/151/797 620/150/797 286/157/797
f 620/150/798 618/155/798 286/157/798
f 282/154/799 284/160/799 285/158/799
f 284/160/800 286/157/800 287/161/800
f 289/162/801 288/156/801 618/155/801
f 618/155/802 619/225/802 279/163/802
f 296/170/811 299/149/811 303/173/811
f 299/149/812 301/176/812 303/173/812
f 300/175/813 302/177/813 301/176/813
f 302/177/815 307/181/815 306/178/815
f 306/178/816 305/179/816 303/173/816
f 303/173/816 301/176/816 306/178/816
f 308/180/817 296/170/817 305/179/817
f 296/170/818 304/174/818 305/179/818
f 308/180/819 306/178/819 307/181/819
f 311/186/822 613/241/822 309/180/822
f 312/189/824 313/258/824 612/255/824
f 612/255/825 311/186/825 312/189/825
f 312/182/827 307/181/827 302/177/827
f 319/197/836 326/204/836 325/200/836
f 324/201/837 616/203/837 323/202/837
f 326/204/838 327/206/838 616/203/838
f 327/206/839 328/207/839 616/203/839
f 616/203/840 324/201/840 325/200/840
f 329/146/841 327/206/841 326/204/841
f 330/205/842 328/207/842 327/206/842
f 323/202/843 616/203/843 328/207/843
f 332/208/844 334/260/844 323/209/844
f 331/152/845 333/211/845 332/208/845
f 335/213/846 334/260/846 332/208/846
f 332/208/847 333/211/847 335/213/847
f 323/209/848 334/260/848 335/213/848
f 364/153/849 339/160/849 337/154/849
f 336/212/850 333/211/850 331/152/850
f 337/154/851 339/160/851 359/158/851
f 346/221/859 607/265/859 348/222/859
f 345/167/860 348/222/860 608/223/860
f 354/162/866 356/156/866 360/155/866
f 360/155/867 361/225/867 355/163/867
f 338/159/868 359/158/868 357/161/868
f 339/160/869 358/157/869 357/161/869
f 358/157/870 339/160/870 363/151/870
f 339/160/871 364/153/871 363/151/871
f 363/151/872 362/150/872 358/157/872
f 362/150/873 360/155/873 358/157/873
f 365/148/874 355/163/874 362/150/874
f 355/163/875 361/225/875 362/150/875
f 363/151/876 364/153/876 331/152/876
f 367/146/877 559/146/877 560/197/877
f 560/197/878 584/237/878 367/146/878
f 584/237/879 585/149/879 367/146/879
f 585/149/880 355/163/880 366/148/880
f 355/163/881 365/148/881 366/148/881
f 367/146/882 366/148/882 368/226/882
f 371/228/227 369/227/227 368/226/227
f 370/229/309 372/231/309 373/230/309
f 372/231/144 374/231/144 375/230/144
f 374/231/309 376/279/309 377/232/309
f 377/232/227 376/279/227 378/136/227
f 379/136/32 381/233/32 380/233/32
f 382/233/32 381/233/32 379/136/32
f 383/136/310 386/235/310 384/234/310
f 386/235/311 387/231/311 385/230/311
f 385/230/144 387/231/144 388/231/144
f 389/230/311 388/231/311 390/229/311
f 391/236/310 390/229/310 392/226/310
f 392/226/883 394/148/883 395/146/883
f 542/197/884 541/146/884 395/146/884
f 395/146/885 394/148/885 420/149/885
f 394/148/886 396/148/886 397/163/886
f 420/149/887 394/148/887 397/163/887
f 420/149/888 421/237/888 395/146/888
f 557/225/889 397/163/889 558/150/889
f 397/163/890 396/148/890 558/150/890
f 399/152/891 403/153/891 398/151/891
f 400/154/892 404/160/892 403/153/892
f 399/152/893 401/211/893 520/212/893
f 399/152/894 402/210/894 518/208/894
f 403/153/895 404/160/895 398/151/895
f 404/160/896 406/157/896 398/151/896
f 406/157/897 408/156/897 556/155/897
f 556/155/898 558/150/898 406/157/898
f 407/161/899 406/157/899 404/160/899
f 400/154/900 411/159/900 405/158/900
f 556/155/901 408/156/901 409/162/901
f 409/162/902 397/163/902 556/155/902
f 411/159/904 409/162/904 407/161/904
f 421/237/913 420/149/913 422/176/913
f 422/176/915 420/149/915 424/173/915
f 420/149/916 417/221/916 424/173/916
f 427/178/917 428/181/917 423/177/917
f 423/177/918 422/176/918 427/178/918
f 422/176/339 424/173/339 427/178/339
f 425/174/919 417/221/919 426/179/919
f 417/221/920 429/180/920 426/179/920
f 429/180/921 430/238/921 428/181/921
f 429/180/923 432/241/923 533/186/923
f 417/221/925 529/265/925 432/241/925
f 439/198/930 438/191/930 442/244/930
f 438/191/932 440/184/932 444/247/932
f 445/248/934 446/251/934 443/245/934
f 446/251/935 447/250/935 443/245/935
f 443/245/936 442/244/936 444/247/936
f 448/249/937 446/251/937 445/248/937
f 448/249/938 450/202/938 447/250/938
f 448/154/941 453/159/941 465/158/941
f 448/154/942 452/160/942 456/153/942
f 454/152/943 456/153/943 457/151/943
f 456/153/944 452/160/944 457/151/944
f 452/160/945 463/157/945 457/151/945
f 463/157/946 461/156/946 460/155/946
f 460/155/947 458/150/947 463/157/947
f 459/225/948 466/163/948 458/150/948
f 466/163/949 455/148/949 458/150/949
f 460/155/950 461/156/950 462/162/950
f 462/162/951 466/163/951 460/155/951
f 464/161/952 463/157/952 452/160/952
f 477/176/960 475/149/960 479/173/960
f 475/149/961 471/170/961 479/173/961
f 476/175/962 475/149/962 477/176/962
f 491/197/963 501/146/963 502/146/963
f 502/146/964 504/148/964 475/149/964
f 504/148/965 455/148/965 466/163/965
f 475/149/966 504/148/966 466/163/966
f 475/149/967 476/175/967 502/146/967
f 482/178/969 483/181/969 478/177/969
f 478/177/970 477/176/970 482/178/970
f 477/176/383 479/173/383 482/178/383
f 480/174/971 471/170/971 481/179/971
f 471/170/972 431/180/972 481/179/972
f 431/180/973 484/182/973 483/181/973
f 484/182/974 476/175/974 478/177/974
f 532/255/976 485/258/976 484/189/976
f 484/189/977 431/187/977 533/186/977
f 491/197/986 494/198/986 497/200/986
f 495/202/987 515/203/987 496/201/987
f 500/207/988 499/206/988 515/203/988
f 499/206/989 498/204/989 515/203/989
f 498/204/990 497/200/990 515/203/990
f 501/146/991 491/197/991 498/204/991
f 402/205/992 501/146/992 499/206/992
f 505/144/993 504/148/993 502/146/993
f 508/256/310 506/280/310 505/144/310
f 506/257/404 508/141/404 509/141/404
f 510/141/32 511/140/32 507/140/32
f 510/141/404 512/138/404 513/139/404
f 512/138/310 263/278/310 514/137/310
f 495/202/994 402/205/994 500/207/994
f 495/209/995 517/260/995 518/208/995
f 495/209/997 400/154/997 519/213/997
f 518/208/999 517/260/999 519/213/999
f 519/213/1000 520/212/1000 401/211/1000
f 412/167/1004 525/220/1004 527/223/1004
f 525/220/1005 485/258/1005 531/262/1005
f 532/255/1006 533/186/1006 528/264/1006
f 533/186/1007 432/241/1007 529/265/1007
f 528/264/1008 533/186/1008 529/265/1008
f 528/264/1009 526/263/1009 532/255/1009
f 527/223/1010 528/264/1010 529/265/1010
f 417/221/1011 412/167/1011 530/222/1011
f 450/202/1019 539/205/1019 540/207/1019
f 539/205/1020 541/146/1020 543/206/1020
f 541/146/1021 542/197/1021 544/204/1021
f 540/207/1022 543/206/1022 547/269/1022
f 543/206/1023 544/204/1023 547/269/1023
f 544/204/434 545/200/434 547/269/434
f 542/197/1024 439/198/1024 545/200/1024
f 450/202/1025 547/269/1025 546/201/1025
f 439/198/1033 443/245/1033 447/250/1033
f 421/237/1034 423/177/1034 428/181/1034
f 559/146/1035 561/206/1035 602/204/1035
f 562/205/1036 566/207/1036 561/206/1036
f 563/202/1038 567/269/1038 566/207/1038
f 602/204/1040 561/206/1040 567/269/1040
f 561/206/1041 566/207/1041 567/269/1041
f 567/269/452 568/201/452 569/200/452
f 568/201/1042 567/269/1042 563/202/1042
f 570/198/1043 573/245/1043 575/244/1043
f 574/250/1045 573/245/1045 570/198/1045
f 560/197/1047 602/204/1047 569/200/1047
f 574/250/1048 578/251/1048 573/245/1048
f 578/251/1049 577/248/1049 573/245/1049
f 577/248/1050 576/247/1050 573/245/1050
f 571/191/1051 575/244/1051 576/247/1051
f 577/248/1052 578/251/1052 282/249/1052
f 282/249/1053 578/251/1053 574/250/1053
f 584/237/1059 587/177/1059 589/176/1059
f 588/181/1060 587/177/1060 584/237/1060
f 587/177/1062 588/181/1062 593/178/1062
f 593/178/1063 592/179/1063 590/173/1063
f 590/173/1063 589/176/1063 593/178/1063
f 346/221/1064 585/149/1064 590/173/1064
f 585/149/1065 589/176/1065 590/173/1065
f 309/180/1066 346/221/1066 592/179/1066
f 346/221/1067 591/174/1067 592/179/1067
f 309/180/1068 593/178/1068 588/181/1068
f 608/223/1081 348/222/1081 607/265/1081
f 613/241/1082 311/186/1082 607/265/1082
f 311/186/1083 612/255/1083 609/264/1083
f 612/255/1084 611/262/1084 610/263/1084
f 609/264/1085 607/265/1085 311/186/1085
f 611/262/1086 313/258/1086 347/220/1086
f 613/241/1087 607/265/1087 346/221/1087
usemtl pillar_gray_light
f 71/4/2 79/5/2 98/6/2
f 98/6/19 79/5/19 75/45/19
f 11/58/26 102/58/26 105/59/26
f 100/61/28 99/62/28 13/63/28
f 105/59/29 104/64/29 12/65/29
f 110/66/30 103/67/30 69/8/30
f 110/66/31 109/68/31 73/69/31
f 75/45/32 76/70/32 74/71/32
f 10/11/33 101/11/33 100/61/33
f 30/87/45 39/86/45 38/82/45
f 34/29/46 41/39/46 40/30/46
f 32/31/47 43/38/47 42/32/47
f 44/27/48 37/88/48 45/28/48
f 79/5/57 72/90/57 78/91/57
f 77/92/58 109/68/58 111/93/58
f 74/94/59 109/68/59 77/92/59
f 111/93/73 70/107/73 77/92/73
f 78/91/74 75/45/74 79/5/74
f 99/62/82 101/11/82 98/6/82
f 102/58/83 103/67/83 104/113/83
f 109/68/85 110/66/85 111/93/85
f 105/59/86 102/58/86 104/113/86
f 218/6/114 199/5/114 191/4/114
f 195/45/131 199/5/131 218/6/131
f 225/59/138 222/58/138 149/58/138
f 151/63/140 219/62/140 220/61/140
f 150/65/141 224/64/141 225/59/141
f 230/66/142 231/93/142 189/8/142
f 230/66/143 223/67/143 150/130/143
f 195/45/144 151/63/144 194/71/144
f 220/61/145 221/11/145 148/11/145
f 161/86/157 30/87/157 160/82/157
f 163/39/158 34/29/158 162/30/158
f 165/38/159 32/31/159 164/32/159
f 167/28/160 36/44/160 166/27/160
f 198/91/169 191/4/169 199/5/169
f 197/92/170 231/93/170 229/68/170
f 229/68/171 194/94/171 197/92/171
f 190/107/185 231/93/185 197/92/185
f 198/91/186 195/45/186 196/131/186
f 221/11/194 219/62/194 218/6/194
f 222/58/195 224/113/195 223/67/195
f 229/68/197 231/93/197 230/66/197
f 225/59/198 224/113/198 222/58/198
f 617/164/240 289/162/240 279/163/240
f 293/165/241 289/162/241 290/166/241
f 291/159/242 287/161/242 289/162/242
f 293/165/243 292/167/243 291/159/243
f 290/166/244 294/168/244 293/165/244
f 292/167/245 295/169/245 296/170/245
f 296/170/246 297/171/246 299/149/246
f 290/166/247 298/172/247 297/171/247
f 299/149/248 297/171/248 298/172/248
f 298/172/251 279/163/251 299/149/251
f 599/183/256 292/184/256 296/185/256
f 598/188/258 308/187/258 309/180/258
f 314/190/260 313/191/260 312/182/260
f 316/192/262 312/182/262 300/175/262
f 318/193/263 320/194/263 315/195/263
f 300/175/264 317/196/264 316/192/264
f 319/197/265 317/196/265 300/175/265
f 319/197/266 320/194/266 318/193/266
f 322/198/267 320/194/267 319/197/267
f 313/191/268 321/199/268 322/198/268
f 338/159/284 341/214/284 337/215/284
f 340/216/285 323/209/285 337/154/285
f 337/215/286 341/214/286 340/216/286
f 342/217/287 343/218/287 344/219/287
f 343/218/288 338/159/288 345/167/288
f 343/218/289 347/220/289 344/219/289
f 345/167/290 350/169/290 346/221/290
f 351/165/293 345/167/293 338/159/293
f 352/166/294 349/224/294 351/165/294
f 351/165/295 354/162/295 352/166/295
f 353/164/296 354/162/296 355/163/296
f 352/166/297 600/172/297 601/171/297
f 409/162/325 555/164/325 397/163/325
f 409/162/326 414/165/326 410/166/326
f 411/159/328 534/214/328 413/217/328
f 412/167/329 414/165/329 411/159/329
f 411/159/330 524/218/330 412/167/330
f 410/166/331 415/224/331 416/169/331
f 412/167/332 416/169/332 415/224/332
f 417/221/333 418/171/333 416/169/333
f 419/172/334 555/164/334 410/166/334
f 420/149/335 419/172/335 418/171/335
f 397/163/337 419/172/337 420/149/337
f 430/238/343 434/239/343 435/240/343
f 431/187/345 433/188/345 429/180/345
f 429/180/347 433/188/347 434/239/347
f 435/240/348 433/188/348 554/242/348
f 430/238/349 436/243/349 438/191/349
f 440/184/350 436/243/350 437/183/350
f 438/191/352 550/199/352 441/246/352
f 438/191/354 553/190/354 430/238/354
f 448/249/359 535/252/359 451/253/359
f 448/249/360 536/254/360 450/202/360
f 453/159/371 464/161/371 465/158/371
f 462/162/372 468/164/372 466/163/372
f 462/162/373 469/165/373 467/166/373
f 474/172/374 468/164/374 467/166/374
f 467/166/375 472/168/375 470/169/375
f 440/167/376 470/169/376 472/168/376
f 471/170/377 473/171/377 470/169/377
f 475/149/378 474/172/378 473/171/378
f 466/163/382 474/172/382 475/149/382
f 485/191/388 486/190/388 484/182/388
f 484/182/390 488/192/390 476/175/390
f 488/192/391 486/190/391 487/195/391
f 476/175/392 488/192/392 489/196/392
f 491/197/393 489/196/393 490/193/393
f 491/197/394 490/193/394 492/194/394
f 494/198/395 492/194/395 493/199/395
f 485/191/396 493/199/396 487/195/396
f 485/258/407 516/259/407 495/209/407
f 495/209/409 522/216/409 400/154/409
f 521/261/412 523/219/412 516/259/412
f 413/217/413 534/214/413 522/216/413
f 525/220/414 524/218/414 523/219/414
f 525/220/415 521/261/415 485/258/415
f 400/215/424 522/216/424 534/214/424
f 440/167/425 469/165/425 453/159/425
f 471/185/426 437/183/426 554/242/426
f 536/254/427 451/253/427 535/252/427
f 450/202/428 536/254/428 537/266/428
f 539/205/429 537/266/429 538/267/429
f 449/268/430 538/267/430 535/252/430
f 542/197/438 551/196/438 548/193/438
f 439/198/439 549/194/439 550/199/439
f 542/197/440 548/193/440 549/194/440
f 552/192/441 553/190/441 441/246/441
f 421/237/442 552/192/442 551/196/442
f 430/238/443 552/192/443 421/237/443
f 562/205/449 606/266/449 563/202/449
f 565/268/451 564/267/451 562/205/451
f 571/191/456 572/199/456 570/198/456
f 570/198/458 580/194/458 560/197/458
f 581/193/465 580/194/465 579/246/465
f 560/197/466 580/194/466 581/193/466
f 560/197/467 582/196/467 584/237/467
f 584/237/468 582/196/468 583/192/468
f 583/192/471 586/238/471 584/237/471
f 586/238/477 597/239/477 309/180/477
f 595/190/478 571/191/478 586/238/478
f 596/243/479 586/238/479 571/191/479
f 598/188/480 597/239/480 594/240/480
f 309/180/481 597/239/481 598/188/481
f 292/184/482 596/243/482 571/191/482
f 600/172/483 355/163/483 585/149/483
f 346/221/484 601/171/484 585/149/484
f 585/149/485 601/171/485 600/172/485
f 282/249/486 603/252/486 565/268/486
f 603/252/487 604/253/487 605/254/487
f 605/254/488 282/249/488 563/202/488
f 563/202/489 606/266/489 605/254/489
f 614/261/497 347/220/497 313/258/497
f 614/261/498 615/259/498 344/219/498
f 615/259/499 313/258/499 323/209/499
f 101/11/502 10/11/502 98/6/502
f 10/11/503 71/4/503 98/6/503
f 75/45/526 13/63/526 98/6/526
f 13/63/527 99/62/527 98/6/527
f 78/91/535 72/90/535 105/59/535
f 72/90/536 11/58/536 105/59/536
f 13/63/538 74/94/538 100/61/538
f 74/94/539 77/92/539 100/61/539
f 12/65/540 76/131/540 105/59/540
f 76/131/541 78/91/541 105/59/541
f 102/272/542 11/272/542 103/67/542
f 11/272/543 69/8/543 103/67/543
f 69/8/544 111/93/544 110/66/544
f 73/69/545 12/130/545 110/66/545
f 12/130/546 104/113/546 103/67/546
f 110/66/547 12/130/547 103/67/547
f 12/273/32 73/274/32 76/70/32
f 73/274/32 74/71/32 76/70/32
f 74/71/32 13/63/32 75/45/32
f 77/92/548 70/107/548 100/61/548
f 70/107/549 10/11/549 100/61/549
f 30/87/563 31/89/563 39/86/563
f 34/29/564 35/79/564 41/39/564
f 32/31/565 33/77/565 43/38/565
f 44/27/566 36/44/566 37/88/566
f 79/5/575 71/4/575 72/90/575
f 74/94/576 73/69/576 109/68/576
f 111/93/594 69/8/594 70/107/594
f 78/91/595 76/131/595 75/45/595
f 99/62/604 100/61/604 101/11/604
f 191/4/643 148/11/643 218/6/643
f 148/11/644 221/11/644 218/6/644
f 219/62/667 151/63/667 218/6/667
f 151/63/668 195/45/668 218/6/668
f 149/58/676 192/90/676 225/59/676
f 192/90/677 198/91/677 225/59/677
f 197/92/679 194/94/679 220/61/679
f 194/94/680 151/63/680 220/61/680
f 198/91/681 196/131/681 225/59/681
f 196/131/682 150/65/682 225/59/682
f 189/8/683 149/272/683 223/67/683
f 149/272/684 222/272/684 223/67/684
f 223/67/685 230/66/685 189/8/685
f 224/113/686 150/130/686 223/67/686
f 150/130/687 193/69/687 230/66/687
f 193/69/688 229/68/688 230/66/688
f 194/71/144 193/274/144 196/70/144
f 193/274/144 150/273/144 196/70/144
f 196/70/144 195/45/144 194/71/144
f 148/11/689 190/107/689 220/61/689
f 190/107/690 197/92/690 220/61/690
f 161/86/704 31/89/704 30/87/704
f 163/39/705 35/79/705 34/29/705
f 165/38/706 33/77/706 32/31/706
f 167/28/707 37/88/707 36/44/707
f 198/91/716 192/90/716 191/4/716
f 229/68/717 193/69/717 194/94/717
f 190/107/735 189/8/735 231/93/735
f 198/91/736 199/5/736 195/45/736
f 221/11/745 220/61/745 219/62/745
f 617/164/241 290/166/241 289/162/241
f 293/165/803 291/159/803 289/162/803
f 291/159/804 285/158/804 287/161/804
f 293/165/805 294/168/805 292/167/805
f 290/166/806 295/169/806 294/168/806
f 292/167/807 294/168/807 295/169/807
f 296/170/808 295/169/808 297/171/808
f 297/171/809 295/169/809 290/166/809
f 290/166/810 617/164/810 298/172/810
f 298/172/814 617/164/814 279/163/814
f 296/185/820 308/187/820 310/242/820
f 310/242/821 599/183/821 296/185/821
f 598/188/823 310/242/823 308/187/823
f 314/190/826 315/195/826 313/191/826
f 316/192/828 314/190/828 312/182/828
f 320/194/829 321/199/829 315/195/829
f 315/195/830 314/190/830 316/192/830
f 316/192/831 317/196/831 315/195/831
f 317/196/832 318/193/832 315/195/832
f 319/197/833 318/193/833 317/196/833
f 322/198/834 321/199/834 320/194/834
f 313/191/835 315/195/835 321/199/835
f 338/159/852 342/217/852 341/214/852
f 340/216/853 615/259/853 323/209/853
f 344/219/854 615/259/854 342/217/854
f 615/259/855 340/216/855 342/217/855
f 340/216/855 341/214/855 342/217/855
f 343/218/856 342/217/856 338/159/856
f 343/218/857 345/167/857 347/220/857
f 345/167/858 349/224/858 350/169/858
f 351/165/861 349/224/861 345/167/861
f 352/166/862 350/169/862 349/224/862
f 351/165/863 338/159/863 354/162/863
f 353/164/295 352/166/295 354/162/295
f 601/171/864 350/169/864 352/166/864
f 352/166/865 353/164/865 600/172/865
f 409/162/326 410/166/326 555/164/326
f 409/162/903 411/159/903 414/165/903
f 411/159/905 400/215/905 534/214/905
f 412/167/906 415/224/906 414/165/906
f 411/159/907 413/217/907 524/218/907
f 410/166/908 414/165/908 415/224/908
f 412/167/909 417/221/909 416/169/909
f 417/221/910 420/149/910 418/171/910
f 410/166/911 416/169/911 418/171/911
f 418/171/912 419/172/912 410/166/912
f 397/163/914 555/164/914 419/172/914
f 430/238/922 429/180/922 434/239/922
f 431/187/924 554/242/924 433/188/924
f 554/242/926 437/183/926 435/240/926
f 437/183/927 436/243/927 435/240/927
f 435/240/348 434/239/348 433/188/348
f 430/238/928 435/240/928 436/243/928
f 440/184/929 438/191/929 436/243/929
f 438/191/931 439/198/931 550/199/931
f 438/191/933 441/246/933 553/190/933
f 448/249/939 449/268/939 535/252/939
f 448/249/940 451/253/940 536/254/940
f 453/159/953 462/162/953 464/161/953
f 462/162/373 467/166/373 468/164/373
f 462/162/954 453/159/954 469/165/954
f 467/166/955 470/169/955 473/171/955
f 473/171/956 474/172/956 467/166/956
f 467/166/957 469/165/957 472/168/957
f 440/167/958 471/170/958 470/169/958
f 471/170/959 475/149/959 473/171/959
f 466/163/968 468/164/968 474/172/968
f 485/191/975 487/195/975 486/190/975
f 484/182/978 486/190/978 488/192/978
f 487/195/979 493/199/979 492/194/979
f 492/194/980 490/193/980 487/195/980
f 490/193/981 489/196/981 487/195/981
f 489/196/982 488/192/982 487/195/982
f 491/197/983 476/175/983 489/196/983
f 494/198/984 491/197/984 492/194/984
f 485/191/985 494/198/985 493/199/985
f 485/258/996 521/261/996 516/259/996
f 495/209/998 516/259/998 522/216/998
f 522/216/413 516/259/413 413/217/413
f 516/259/1001 523/219/1001 413/217/1001
f 523/219/1002 524/218/1002 413/217/1002
f 525/220/1003 412/167/1003 524/218/1003
f 525/220/414 523/219/414 521/261/414
f 440/167/1012 472/168/1012 469/165/1012
f 554/242/1013 431/187/1013 471/185/1013
f 471/185/1014 440/184/1014 437/183/1014
f 535/252/1015 538/267/1015 536/254/1015
f 538/267/1016 537/266/1016 536/254/1016
f 539/205/1017 450/202/1017 537/266/1017
f 449/268/1018 539/205/1018 538/267/1018
f 542/197/1026 421/237/1026 551/196/1026
f 439/198/1027 542/197/1027 549/194/1027
f 441/246/1028 550/199/1028 549/194/1028
f 549/194/1029 548/193/1029 441/246/1029
f 548/193/1030 551/196/1030 441/246/1030
f 551/196/1031 552/192/1031 441/246/1031
f 430/238/1032 553/190/1032 552/192/1032
f 562/205/1037 564/267/1037 606/266/1037
f 565/268/1039 603/252/1039 564/267/1039
f 571/191/1044 579/246/1044 572/199/1044
f 570/198/1046 572/199/1046 580/194/1046
f 580/194/1054 572/199/1054 579/246/1054
f 579/246/1055 595/190/1055 583/192/1055
f 583/192/1056 582/196/1056 579/246/1056
f 582/196/1057 581/193/1057 579/246/1057
f 560/197/1058 581/193/1058 582/196/1058
f 583/192/1061 595/190/1061 586/238/1061
f 586/238/1069 594/240/1069 597/239/1069
f 595/190/1070 579/246/1070 571/191/1070
f 596/243/1071 594/240/1071 586/238/1071
f 596/243/1072 599/183/1072 594/240/1072
f 599/183/1073 310/242/1073 594/240/1073
f 310/242/480 598/188/480 594/240/480
f 292/184/1074 599/183/1074 596/243/1074
f 600/172/1075 353/164/1075 355/163/1075
f 346/221/1076 350/169/1076 601/171/1076
f 282/249/1077 604/253/1077 603/252/1077
f 606/266/1078 564/267/1078 605/254/1078
f 564/267/1079 603/252/1079 605/254/1079
f 605/254/1080 604/253/1080 282/249/1080
f 614/261/289 344/219/289 347/220/289
f 615/259/1088 614/261/1088 313/258/1088
